<svg viewBox="0 0 1150 400" xmlns="http://www.w3.org/2000/svg"><g><g><g><g><g><line x1="53.1875" y1="376" x2="48.1875" y2="376" style="visibility: inherit;" fill="rgb(0, 0, 0)" stroke="rgb(204, 204, 204)" stroke-width="1px"></line><line x1="53.1875" y1="334.22222222222223" x2="48.1875" y2="334.22222222222223" style="visibility: inherit;" fill="rgb(0, 0, 0)" stroke="rgb(204, 204, 204)" stroke-width="1px"></line><line x1="53.1875" y1="292.44444444444446" x2="48.1875" y2="292.44444444444446" style="visibility: inherit;" fill="rgb(0, 0, 0)" stroke="rgb(204, 204, 204)" stroke-width="1px"></line><line x1="53.1875" y1="250.66666666666669" x2="48.1875" y2="250.66666666666669" style="visibility: inherit;" fill="rgb(0, 0, 0)" stroke="rgb(204, 204, 204)" stroke-width="1px"></line><line x1="53.1875" y1="208.88888888888889" x2="48.1875" y2="208.88888888888889" style="visibility: inherit;" fill="rgb(0, 0, 0)" stroke="rgb(204, 204, 204)" stroke-width="1px"></line><line x1="53.1875" y1="167.11111111111111" x2="48.1875" y2="167.11111111111111" style="visibility: inherit;" fill="rgb(0, 0, 0)" stroke="rgb(204, 204, 204)" stroke-width="1px"></line><line x1="53.1875" y1="125.33333333333334" x2="48.1875" y2="125.33333333333334" style="visibility: inherit;" fill="rgb(0, 0, 0)" stroke="rgb(204, 204, 204)" stroke-width="1px"></line><line x1="53.1875" y1="83.55555555555551" x2="48.1875" y2="83.55555555555551" style="visibility: inherit;" fill="rgb(0, 0, 0)" stroke="rgb(204, 204, 204)" stroke-width="1px"></line><line x1="53.1875" y1="41.77777777777776" x2="48.1875" y2="41.77777777777776" style="visibility: inherit;" fill="rgb(0, 0, 0)" stroke="rgb(204, 204, 204)" stroke-width="1px"></line><line x1="53.1875" y1="0" x2="48.1875" y2="0" style="visibility: inherit;" fill="rgb(0, 0, 0)" stroke="rgb(204, 204, 204)" stroke-width="1px"></line></g><g transform="translate(43.1875, 0)"><text x="0" y="376" dx="0em" dy="0.3em" style="text-anchor: end; visibility: hidden; font-family: Roboto, sans-serif; font-size: 12px; font-weight: 200;" fill="rgb(33, 33, 33)" stroke="none" stroke-width="1px">0</text><text x="0" y="334.22222222222223" dx="0em" dy="0.3em" style="text-anchor: end; visibility: inherit; font-family: Roboto, sans-serif; font-size: 12px; font-weight: 200;" fill="rgb(33, 33, 33)" stroke="none" stroke-width="1px">0.01</text><text x="0" y="292.44444444444446" dx="0em" dy="0.3em" style="text-anchor: end; visibility: inherit; font-family: Roboto, sans-serif; font-size: 12px; font-weight: 200;" fill="rgb(33, 33, 33)" stroke="none" stroke-width="1px">0.02</text><text x="0" y="250.66666666666669" dx="0em" dy="0.3em" style="text-anchor: end; visibility: inherit; font-family: Roboto, sans-serif; font-size: 12px; font-weight: 200;" fill="rgb(33, 33, 33)" stroke="none" stroke-width="1px">0.03</text><text x="0" y="208.88888888888889" dx="0em" dy="0.3em" style="text-anchor: end; visibility: inherit; font-family: Roboto, sans-serif; font-size: 12px; font-weight: 200;" fill="rgb(33, 33, 33)" stroke="none" stroke-width="1px">0.04</text><text x="0" y="167.11111111111111" dx="0em" dy="0.3em" style="text-anchor: end; visibility: inherit; font-family: Roboto, sans-serif; font-size: 12px; font-weight: 200;" fill="rgb(33, 33, 33)" stroke="none" stroke-width="1px">0.05</text><text x="0" y="125.33333333333334" dx="0em" dy="0.3em" style="text-anchor: end; visibility: inherit; font-family: Roboto, sans-serif; font-size: 12px; font-weight: 200;" fill="rgb(33, 33, 33)" stroke="none" stroke-width="1px">0.06</text><text x="0" y="83.55555555555551" dx="0em" dy="0.3em" style="text-anchor: end; visibility: inherit; font-family: Roboto, sans-serif; font-size: 12px; font-weight: 200;" fill="rgb(33, 33, 33)" stroke="none" stroke-width="1px">0.07</text><text x="0" y="41.77777777777776" dx="0em" dy="0.3em" style="text-anchor: end; visibility: inherit; font-family: Roboto, sans-serif; font-size: 12px; font-weight: 200;" fill="rgb(33, 33, 33)" stroke="none" stroke-width="1px">0.08</text><text x="0" y="0" dx="0em" dy="0.3em" style="text-anchor: end; visibility: hidden; font-family: Roboto, sans-serif; font-size: 12px; font-weight: 200;" fill="rgb(33, 33, 33)" stroke="none" stroke-width="1px">0.09</text></g><line x1="53.1875" y1="0" x2="53.1875" y2="376" fill="rgb(0, 0, 0)" stroke="rgb(204, 204, 204)" stroke-width="1px"></line></g></g><g transform="translate(53, 0)" clip-path="url(#clip_0)"><clipPath id="clip_0"><rect width="1096" height="376"></rect></clipPath><g><g><g><line x1="0" y1="0" x2="0" y2="376" fill="rgb(0, 0, 0)" stroke="rgb(66, 66, 66)" stroke-width="1px" opacity="0.25"></line><line x1="109.68125" y1="0" x2="109.68125" y2="376" fill="rgb(0, 0, 0)" stroke="rgb(66, 66, 66)" stroke-width="1px" opacity="0.25"></line><line x1="219.3625" y1="0" x2="219.3625" y2="376" fill="rgb(0, 0, 0)" stroke="rgb(66, 66, 66)" stroke-width="1px" opacity="0.25"></line><line x1="329.04375" y1="0" x2="329.04375" y2="376" fill="rgb(0, 0, 0)" stroke="rgb(66, 66, 66)" stroke-width="1px" opacity="0.25"></line><line x1="438.725" y1="0" x2="438.725" y2="376" fill="rgb(0, 0, 0)" stroke="rgb(66, 66, 66)" stroke-width="1px" opacity="0.25"></line><line x1="548.40625" y1="0" x2="548.40625" y2="376" fill="rgb(0, 0, 0)" stroke="rgb(66, 66, 66)" stroke-width="1px" opacity="0.25"></line><line x1="658.0875" y1="0" x2="658.0875" y2="376" fill="rgb(0, 0, 0)" stroke="rgb(66, 66, 66)" stroke-width="1px" opacity="0.25"></line><line x1="767.76875" y1="0" x2="767.76875" y2="376" fill="rgb(0, 0, 0)" stroke="rgb(66, 66, 66)" stroke-width="1px" opacity="0.25"></line><line x1="877.45" y1="0" x2="877.45" y2="376" fill="rgb(0, 0, 0)" stroke="rgb(66, 66, 66)" stroke-width="1px" opacity="0.25"></line><line x1="987.13125" y1="0" x2="987.13125" y2="376" fill="rgb(0, 0, 0)" stroke="rgb(66, 66, 66)" stroke-width="1px" opacity="0.25"></line><line x1="1096.8125" y1="0" x2="1096.8125" y2="376" fill="rgb(0, 0, 0)" stroke="rgb(66, 66, 66)" stroke-width="1px" opacity="0.25"></line></g><g><line x1="0" y1="376" x2="1096.8125" y2="376" fill="rgb(0, 0, 0)" stroke="rgb(66, 66, 66)" stroke-width="1px" opacity="0.25"></line><line x1="0" y1="334.22222222222223" x2="1096.8125" y2="334.22222222222223" fill="rgb(0, 0, 0)" stroke="rgb(66, 66, 66)" stroke-width="1px" opacity="0.25"></line><line x1="0" y1="292.44444444444446" x2="1096.8125" y2="292.44444444444446" fill="rgb(0, 0, 0)" stroke="rgb(66, 66, 66)" stroke-width="1px" opacity="0.25"></line><line x1="0" y1="250.66666666666669" x2="1096.8125" y2="250.66666666666669" fill="rgb(0, 0, 0)" stroke="rgb(66, 66, 66)" stroke-width="1px" opacity="0.25"></line><line x1="0" y1="208.88888888888889" x2="1096.8125" y2="208.88888888888889" fill="rgb(0, 0, 0)" stroke="rgb(66, 66, 66)" stroke-width="1px" opacity="0.25"></line><line x1="0" y1="167.11111111111111" x2="1096.8125" y2="167.11111111111111" fill="rgb(0, 0, 0)" stroke="rgb(66, 66, 66)" stroke-width="1px" opacity="0.25"></line><line x1="0" y1="125.33333333333334" x2="1096.8125" y2="125.33333333333334" fill="rgb(0, 0, 0)" stroke="rgb(66, 66, 66)" stroke-width="1px" opacity="0.25"></line><line x1="0" y1="83.55555555555551" x2="1096.8125" y2="83.55555555555551" fill="rgb(0, 0, 0)" stroke="rgb(66, 66, 66)" stroke-width="1px" opacity="0.25"></line><line x1="0" y1="41.77777777777776" x2="1096.8125" y2="41.77777777777776" fill="rgb(0, 0, 0)" stroke="rgb(66, 66, 66)" stroke-width="1px" opacity="0.25"></line><line x1="0" y1="0" x2="1096.8125" y2="0" fill="rgb(0, 0, 0)" stroke="rgb(66, 66, 66)" stroke-width="1px" opacity="0.25"></line></g></g></g><g><g><line x1="0" y1="376" x2="1096.8125" y2="376" fill="rgb(0, 0, 0)" stroke="rgb(153, 153, 153)" stroke-width="1.5px"></line></g></g><g><g><line x1="109.68125" y1="0" x2="109.68125" y2="376" fill="rgb(0, 0, 0)" stroke="rgb(153, 153, 153)" stroke-width="1.5px"></line></g></g><g><g><g><g><g><path stroke="rgb(255, 112, 67)" stroke-width="2px" d="M109.68125,-34.7826424969567L111.87487499999999,17.712843295600727L114.0685,43.518771438101275L116.262125,69.10514532224414L118.45575,96.64357942743061L120.649375,122.09549855803378L122.843,147.18865992428258L125.036625,163.43385556232323L127.23025000000001,175.49143412733684L129.42387499999998,185.26439252579803L131.6175,196.92506883959592L133.811125,206.4062249568969L136.00475,215.59396702876998L138.198375,225.2622203666251L140.392,226.18002817113782L142.585625,233.9532045970907L144.77925000000002,232.83241992653797L146.97287500000002,238.13254767117277L149.1665,241.82777217733155L151.360125,243.6079185249945L153.55375,245.47733730201574L155.74737499999998,248.83780436897018L157.94099999999997,248.86660862904847L160.134625,249.74137811873092L162.32825,251.7544793016541L164.521875,253.62766187996792L166.7155,254.69261814243495L168.909125,257.50619349656716L171.10275,260.13737628186044L173.296375,263.0462581786406L175.49,263.9757328568043L177.683625,264.51636939671437L179.87725,263.2233772593157L182.070875,264.7560690475004L184.2645,263.6087260399547L186.45812500000002,262.87536993454853L188.65175,267.1327714054201L190.845375,270.5081834716812L193.039,272.3524653059202L195.23262499999998,271.3045258367465L197.42624999999998,271.54578930158664L199.619875,272.21396437662094L201.8135,273.8520971398284L204.007125,276.3861065494541L206.20075,276.7235541747213L208.394375,276.4953326997072L210.588,276.6426379412613L212.78162500000002,278.17623232455395L214.97525000000002,278.0611590596436L217.168875,279.0160521671027L219.3625,278.4981313072527L221.556125,278.56837790612377L223.74974999999998,278.59611412461334L225.94337499999997,279.7389446902165L228.137,283.70186978228475L230.330625,283.2870901417918L232.52425,284.46162922335816L234.717875,281.9120415213226L236.9115,282.6487421397545L239.105125,282.5068597809315L241.29875,285.01882255701605L243.492375,286.3860351388027L245.686,286.2069473697035L247.879625,288.0834031230847L250.07325,287.01821261472014L252.266875,288.9839348663479L254.46050000000002,290.13820525557674L256.654125,290.4857167965557L258.84774999999996,289.71830296448513L261.041375,289.0229650784763L263.235,290.08048808338305L265.428625,287.73044864194827L267.62225,289.8903563649887L269.815875,289.59915745843057L272.0095,289.722835854224L274.203125,290.0335168361521L276.39675,291.7727173519049L278.590375,293.08934481916975L280.784,290.83869611144286L282.977625,291.722241885319L285.17125,291.82157346816143L287.364875,293.9529613249179L289.55850000000004,292.955221453866L291.75212500000004,295.38245792097814L293.94575000000003,296.3914132980259L296.13937500000003,297.53663539495574L298.333,298.5012958264739L300.526625,296.6539860165617L302.72025,298.0960798340937L304.913875,298.9681497964667L307.1075,298.791871397897L309.30112499999996,298.0488563989825L311.49474999999995,296.9968484927352L313.68837499999995,298.2744959420775L315.88199999999995,298.71246248113664L318.075625,300.9703720560656L320.26925,301.18062325423875L322.462875,302.2332528094141L324.6565,303.21706842937203L326.850125,303.22898942895944L329.04375,303.5551333056648L331.237375,302.58657819854443L333.431,304.57878129842874L335.624625,303.7877232700368L337.81825,304.3168366314836L340.011875,303.9325867153328L342.2055,304.30144690218293L344.399125,303.7102178604633L346.59275,305.5570466017794L348.786375,306.47955299658673L350.98,305.04869085364066L353.173625,306.1091668952258L355.36725,304.9569648208801L357.560875,307.2503026520097L359.7545,307.8566654745337L361.948125,309.55805924609217L364.14175,308.09544285116874L366.335375,308.5512267323365L368.529,309.0212414565899L370.72262500000005,309.69709235250264L372.91625000000005,310.3368886155379L375.10987500000005,310.155216046058L377.3035,309.4423916903433L379.497125,308.61421254148536L381.69075,309.62773175228574L383.884375,309.60972784406636L386.078,309.28320876891104L388.271625,310.05845878204514L390.46524999999997,309.4300097883591L392.65887499999997,309.8127255012435L394.85249999999996,310.182195505358L397.04612499999996,311.8082487363097L399.23975,310.79759261082467L401.433375,311.18768988426376L403.627,313.3661302072357L405.820625,312.3989454367622L408.01425,313.39671552664555L410.207875,313.4204658471072L412.4015,313.81536497687443L414.595125,313.17732346861646L416.78875,314.05962840800936L418.982375,313.97094690188374L421.176,313.6742169303771L423.369625,315.68445394031L425.56325000000004,315.5971579699557L427.75687500000004,317.0078117591776L429.95050000000003,315.32534972219827L432.14412500000003,316.5014550185882L434.33775,315.3766714762989L436.531375,314.5989970808697L438.725,315.4257636971557L440.918625,315.81502426310084L443.11225,317.7858241358024L445.305875,317.4429053348143L447.49949999999995,319.0885522705751L449.69312499999995,318.2382333694692L451.88674999999995,318.2622647177455L454.080375,318.0164317662285L456.274,317.78709945395855L458.467625,317.2135838149901L460.66125,317.37984615637356L462.854875,319.1037413866397L465.0485,319.8991190997739L467.242125,321.44572024260503L469.43575,320.3919031477179L471.629375,320.87706441287105L473.823,319.38677973709844L476.016625,320.44674293892984L478.21025,322.25593616980757L480.403875,322.0344083771215L482.5975,323.10468529983336L484.791125,322.14004973829833L486.98475,321.9592643435461L489.178375,321.34846923418155L491.372,321.7992110219305L493.565625,322.9561400155249L495.75925,323.42102622495895L497.952875,323.6036296258776L500.1465,323.5610435256274L502.340125,323.414549968244L504.53375,322.2505496895586L506.72737500000005,323.1380090793403L508.92100000000005,324.07753701821883L511.11462500000005,322.83496929429856L513.30825,323.4900413188709L515.5018749999999,324.0974490622703L517.6954999999999,324.49097087396655L519.8891249999999,324.78720551048474L522.08275,325.0845652976518L524.276375,326.3313082657255L526.47,325.8594655514954L528.663625,326.4657900021526L530.85725,324.7499315617778L533.050875,325.7926038285407L535.2445,326.23130745373044L537.438125,326.42235419891733L539.63175,325.13547157690397L541.825375,325.923725773897L544.019,326.1869610051351L546.212625,325.45240918066986L548.40625,326.01287853015924L550.599875,325.3634281937554L552.7935,326.75205319761216L554.987125,327.5169405160684L557.18075,328.57107157816523L559.374375,328.5589812158149L561.568,327.19782487701985L563.761625,328.5291154459877L565.95525,327.69438277404754L568.148875,329.9424877977976L570.3425,330.1110292378364L572.536125,330.8552663639498L574.72975,330.5943244539222L576.9233750000001,329.95861405917464L579.1170000000001,329.1154222614872L581.3106250000001,328.8094910975679L583.5042500000001,329.5982144247655L585.6978750000001,329.26652935041636L587.8915000000001,329.5006051249258L590.0851250000001,329.33065655418613L592.2787500000001,329.0059653184781L594.472375,329.69279271336217L596.666,329.593826409013L598.859625,331.80839677270774L601.05325,331.59261903004426L603.246875,331.56759548420985L605.4405,330.6420441469335L607.634125,331.4196764204704L609.82775,330.59836130383434L612.021375,330.95145737819234L614.215,332.2708370733468L616.408625,331.40614032502884L618.6022499999999,331.0797906079579L620.7958749999999,332.2931720020254L622.9894999999999,333.2974844933676L625.1831249999999,333.89832421441974L627.3767499999999,334.4279979167388L629.5703749999999,333.64258804640536L631.7639999999999,333.5998548497705L633.957625,334.179028692971L636.15125,334.01564923711436L638.344875,334.5884756486219L640.5385,333.9666533388391L642.732125,334.01825341157945L644.92575,333.4147622447249L647.119375,334.8514333363992L649.313,335.97761596288683L651.506625,335.77469648349125L653.70025,335.67943843129643L655.893875,334.9394627897675L658.0875,335.94775755536966L660.281125,336.66711632410136L662.47475,336.59590345753236L664.668375,336.83633376174305L666.862,336.111526619804L669.055625,336.2426875791755L671.24925,335.63257297844524L673.442875,336.7362761131509L675.6365,337.7034028058863L677.830125,337.9636494634585L680.02375,336.9119114840185L682.217375,337.63005042789644L684.411,337.9526294062299L686.604625,338.7300981992342L688.79825,339.40899857431464L690.991875,339.3064012944356L693.1855,339.38872532696786L695.379125,339.0184719535122L697.57275,339.656467405635L699.766375,339.15098473556185L701.96,338.54014765033855L704.153625,338.66380022187207L706.34725,338.06128582820133L708.540875,339.74241111621825L710.7345,339.1415905432636L712.928125,338.78463265558486L715.12175,339.46388624863073L717.315375,339.30434262805926L719.509,339.95148566728415L721.702625,340.7761764342853L723.89625,341.4861491583282L726.089875,341.43107946688895L728.2835,342.3413833610049L730.477125,340.69176033660096L732.67075,340.8927947386893L734.864375,340.8748478925436L737.058,341.8631604891743L739.2516250000001,341.7061523386871L741.4452500000001,341.6135271370498L743.6388750000001,341.78541784432724L745.8325000000001,342.14243858425135L748.0261250000001,342.9145542617075L750.2197500000001,343.0099313002089L752.4133750000001,343.18776013765955L754.607,342.998823766462L756.800625,343.13226689636497L758.99425,343.63857868556056L761.187875,343.0553487904832L763.3815,343.62987967207494L765.575125,343.92419523853073L767.76875,344.130286625837L769.962375,343.9554176546688L772.156,344.9834365245898L774.349625,344.6534688437965L776.54325,343.3691285655556L778.7368749999999,344.6511648333796L780.9304999999999,343.6723692730437L783.1241249999999,344.1529132209773L785.3177499999999,344.9566025081145L787.5113749999999,345.1613955165664L789.7049999999999,344.9498745785255L791.8986249999999,345.72092474814843L794.0922499999999,345.5347658249069L796.285875,345.8366244009532L798.4795,346.49024154307165L800.673125,345.8994283848706L802.86675,345.02032900030963L805.060375,344.9723468976418L807.254,344.6073952212254L809.447625,345.33217379549393L811.64125,345.4029374903396L813.834875,345.8130079333888L816.0285,346.2954611117585L818.222125,347.02998033771576L820.41575,347.64713687068024L822.609375,347.97755415723867L824.803,347.21840892922563L826.996625,347.8682478422756L829.19025,347.90029723772415L831.383875,348.2528341776537L833.5775,348.2197022557104L835.771125,347.5519974541571L837.96475,347.56542886765243L840.158375,347.472260021662L842.352,348.2012647636372L844.545625,348.9425078817788L846.73925,348.9585955089811L848.932875,349.1891858307411L851.1265000000001,349.1118455996183L853.3201250000001,349.1013906613363L855.5137500000001,349.2893423639295L857.7073750000001,348.6998289434315L859.9010000000001,349.5493463944979L862.0946250000001,349.85443660315065L864.2882500000001,350.2133653258388L866.4818750000001,350.2016987327466L868.6755,349.80130572063104L870.869125,350.23555339143104L873.06275,350.4016124890174L875.256375,350.595064333898L877.45,350.38192365609274L879.643625,351.095642892774L881.83725,351.1274885299672L884.030875,350.9211307635958L886.2245,350.5897621342837L888.418125,350.9229404089431L890.61175,351.3715090441586L892.8053749999999,351.1960682530597L894.9989999999999,351.169809221788L897.1926249999999,351.17275560472234L899.3862499999999,351.2456491107175L901.5798749999999,352.15240414427296L903.7734999999999,351.67661172507815L905.9671249999999,351.5569195397877L908.16075,351.81426465401154L910.354375,352.09839373164834L912.548,352.2515848709485L914.741625,351.33602082067114L916.93525,350.85240988930093L919.128875,350.62569934593324L921.3225,350.3792566737865L923.516125,351.117751262135L925.70975,351.6652809986751L927.903375,352.2787108638785L930.097,352.0141976354527L932.290625,351.81118604608423L934.48425,352.1491649843669L936.677875,352.42062833889815L938.8715,352.17039131049347L941.065125,351.9216601797715L943.25875,352.1247107475266L945.452375,352.31352066532367L947.646,352.141749074605L949.839625,352.4082904659988L952.03325,351.9957859352531L954.226875,352.7485506330445L956.4205,353.3384501069826L958.614125,353.53472674734314L960.80775,353.677581766991L963.001375,353.7110778979284L965.195,353.438275620185L967.388625,353.7993356978618L969.58225,353.71347303961056L971.775875,353.4807690467894L973.9695,353.79367297873324L976.163125,353.10984741308215L978.35675,353.10619895121874L980.550375,353.4920397706514L982.744,353.60687297164844L984.937625,353.7997123070657" style="fill: none;" fill="none"></path></g><g><path stroke="rgb(187, 187, 187)" stroke-width="2px" d="M109.68125,326.226512302955L111.87487499999999,308.3154717166391L114.0685,284.91543697912135L116.262125,262.83993959391574L118.45575,243.5943328300473L120.649375,242.8819742895812L122.843,242.08965863605673L125.036625,244.3337168424193L127.23025000000001,244.44897558834847L129.42387499999998,252.6104919168024L131.6175,246.46184873112705L133.811125,248.90466503618455L136.00475,249.94872504891472L138.198375,250.06625075417912L140.392,252.01235737980159L142.585625,251.8394846890175L144.77925000000002,260.6107278605651L146.97287500000002,252.06632020890913L149.1665,258.66902743316825L151.360125,257.470631194114L153.55375,259.91718156309025L155.74737499999998,257.6363506547764L157.94099999999997,260.8128660197638L160.134625,272.7141300976077L162.32825,265.64734753773445L164.521875,270.720998535848L166.7155,267.70184364014744L168.909125,267.98043613246426L171.10275,270.0332175357928L173.296375,268.4529180713632L175.49,273.0310816750763L177.683625,274.20940918679173L179.87725,279.8054877824854L182.070875,277.135634099213L184.2645,279.1113572879467L186.45812500000002,277.7023291818304L188.65175,279.68298624316094L190.845375,281.636675040051L193.039,281.2667230969453L195.23262499999998,287.57827573833197L197.42624999999998,286.2098941661906L199.619875,292.0779860228189L201.8135,290.4891070618876L204.007125,288.94735110873313L206.20075,290.11137430790507L208.394375,286.6201146311112L210.588,293.843140684497L212.78162500000002,290.6812480492932L214.97525000000002,297.74321006567106L217.168875,290.8748056209045L219.3625,295.5586300230493L221.556125,296.70198427987583L223.74974999999998,296.9153259742081L225.94337499999997,299.50618544241314L228.137,295.0074120145244L230.330625,301.39502446937024L232.52425,301.1611029345374L234.717875,304.7672423465205L236.9115,305.89594511382046L239.105125,307.7227630149858L241.29875,308.73673173443365L243.492375,309.7845092017803L245.686,310.6027320954149L247.879625,311.27324141394104L250.07325,313.728854333016L252.266875,311.34569004058005L254.46050000000002,314.8221052155975L256.654125,313.0864866958376L258.84774999999996,314.73200879545243L261.041375,316.49920267162133L263.235,316.701043034048L265.428625,318.6015396793723L267.62225,318.5360091786938L269.815875,320.86891633505434L272.0095,318.32544803361975L274.203125,318.8877170110199L276.39675,319.64463592251195L278.590375,320.51917899457646L280.784,321.94848125197643L282.977625,322.406101002404L285.17125,323.8355466542628L287.364875,324.9261208505225L289.55850000000004,323.98506542561535L291.75212500000004,325.7377513850151L293.94575000000003,326.6224497890457L296.13937500000003,328.4640010967775L298.333,330.3283387990416L300.526625,332.0454037437478L302.72025,331.4927106357068L304.913875,331.69425603355336L307.1075,333.97996525992835L309.30112499999996,333.65206134668256L311.49474999999995,333.5245685028774L313.68837499999995,333.7436473292091L315.88199999999995,334.679149925032L318.075625,335.81074243213527L320.26925,334.25808967142115L322.462875,334.80175757732604L324.6565,336.1194798647957L326.850125,336.126749524119" style="fill: none;" fill="none"></path></g><g><path stroke="rgb(0, 153, 136)" stroke-width="2px" d="M116.262125,-2.674650070519304L118.45575,11.389047772397713L120.649375,15.300075495978575L122.843,28.28738012649459L125.036625,33.828240606383126L127.23025000000001,43.00522137867101L129.42387499999998,61.48552424978841L131.6175,70.28483723039912L133.811125,83.66171551263484L136.00475,93.2515227235486L138.198375,97.72254974938633L140.392,97.80752663313379L142.585625,110.70099160984807L144.77925000000002,129.31860679639138L146.97287500000002,145.56698230846322L149.1665,165.36121931340048L151.360125,170.82503074536842L153.55375,182.50516373066932L155.74737499999998,181.92258653447155L157.94099999999997,184.46143603803432L160.134625,203.70299079166512L162.32825,198.71831105877192L164.521875,208.47841979109856L166.7155,207.35352580213564L168.909125,213.3851647834121L171.10275,215.53859883909564L173.296375,216.48503837401182L175.49,224.11623715106307L177.683625,224.41961134880776L179.87725,232.55775137177756L182.070875,234.60680745411634L184.2645,241.13985205153452L186.45812500000002,241.61871838807818L188.65175,248.6242470844728L190.845375,249.60513947730092L193.039,246.83524125920755L195.23262499999998,251.75824461572697L197.42624999999998,251.4680166770276L199.619875,262.30925279161045L201.8135,259.4650296969324L204.007125,261.7754277592793L206.20075,263.2549382625439L208.394375,260.65082294398707L210.588,261.3293701144893L212.78162500000002,262.5582197719131L214.97525000000002,268.10049111532567L217.168875,264.5717233617727L219.3625,272.3949936323851L221.556125,269.18611118025245L223.74974999999998,264.9549716548315L225.94337499999997,266.84039667001053L228.137,268.9416334289698L230.330625,275.44354276475553L232.52425,277.48363459478213L234.717875,281.85841062024855L236.9115,281.22678309096267L239.105125,282.9882271162142L241.29875,281.678327727604L243.492375,285.5671117063757L245.686,287.7773469143945L247.879625,288.8924011699659L250.07325,292.46566719221227L252.266875,290.3215985256197L254.46050000000002,294.48225997832L256.654125,293.3440562768242L258.84774999999996,295.3970614257862L261.041375,298.3233926445291L263.235,298.8746717727874L265.428625,301.2086930143187L267.62225,301.56097377675206L269.815875,306.2018078989697L272.0095,305.8784024546028L274.203125,305.9211194996392L276.39675,307.5767518544144L278.590375,308.6166130223242L280.784,309.6769906949024L282.977625,311.00118960565453L285.17125,313.5065755755604L287.364875,314.5285546196706L289.55850000000004,313.57954513575544L291.75212500000004,314.67049338414483L293.94575000000003,316.1910756680356L296.13937500000003,317.94413845325096L298.333,320.1770447434725L300.526625,321.85479519947154L302.72025,320.8388339080109L304.913875,321.7174374592254L307.1075,324.6191439985404L309.30112499999996,324.21593433772546L311.49474999999995,323.38287815212885L313.68837499999995,323.90331009284466L315.88199999999995,324.9931776121605L318.075625,326.34197903976263L320.26925,325.26659172491816L322.462875,325.59581868612054L324.6565,327.3779039786058L326.850125,327.72822094925357" style="fill: none;" fill="none"></path></g><g><path stroke="rgb(51, 187, 238)" stroke-width="2px" d="M109.68125,177.45615438620248L111.87487499999999,179.7063060949246L114.0685,172.54319244447476L116.262125,177.1842814888927L118.45575,170.82180057499238L120.649375,171.67749204332156L122.843,173.47035823778918L125.036625,169.8047975475871L127.23025000000001,169.73802934529485L129.42387499999998,169.0849919463558L131.6175,172.79151588571702L133.811125,171.68931591491216L136.00475,174.68016682810565L138.198375,174.14367942083672L140.392,176.07667051844138L142.585625,170.63454562011842L144.77925000000002,168.02856120157972L146.97287500000002,164.31962168404866L149.1665,162.36904856165506L151.360125,159.0389390143391L153.55375,157.19485205728438L155.74737499999998,156.58199237238327L157.94099999999997,158.0784224392835L160.134625,155.14812911454203L162.32825,153.41729147562646L164.521875,151.0147231139562L166.7155,148.99009069184402L168.909125,152.94857664236122L171.10275,149.555556693507L173.296375,150.28236790866765L175.49,148.26558837056606L177.683625,150.072847784907L179.87725,153.11525787153667L182.070875,148.49280986731176L184.2645,148.2670630561276L186.45812500000002,143.3097390320699L188.65175,146.2278853006368L190.845375,142.29389221614707L193.039,144.3443046034791L195.23262499999998,142.63101466130507L197.42624999999998,147.52182126747547L199.619875,142.0309898710072L201.8135,141.16781708044968L204.007125,133.4344372364981L206.20075,139.09508125389132L208.394375,130.36481883977422L210.588,140.20218272887791L212.78162500000002,131.53005424781256L214.97525000000002,144.17031144370608L217.168875,130.7685120855876L219.3625,137.26616470814233L221.556125,130.5407882367073L223.74974999999998,136.6087156091272L225.94337499999997,132.02455146833609L228.137,138.39612464740884L230.330625,132.93252873534098L232.52425,134.95887542368828L234.717875,131.3349967515574L236.9115,136.32997834314918L239.105125,132.32376393256575L241.29875,139.5349884862385L243.492375,129.18527948268326L245.686,138.62705285196355L247.879625,130.25076089276442L250.07325,141.3044108667388L252.266875,135.14729831659616L254.46050000000002,137.02244958771226L256.654125,138.09502932060866L258.84774999999996,139.13569376843634L261.041375,138.03852750844237L263.235,140.62604438058418L265.428625,145.01488470576007L267.62225,141.48107816634985L269.815875,142.1072549453879L272.0095,142.48510254147016L274.203125,139.72410470280465L276.39675,142.67881483919138L278.590375,140.22943040780257L280.784,144.8116227821961L282.977625,140.79070701286588L285.17125,146.76285233945882L287.364875,147.66367567755188L289.55850000000004,144.3056412634562L291.75212500000004,150.92446810984475L293.94575000000003,146.30188441200704L296.13937500000003,154.53559851600917L298.333,144.6182684365827L300.526625,148.06977883958334L302.72025,143.51282819102317L304.913875,150.86373879638708L307.1075,141.0475126393282L309.30112499999996,148.91543018148204L311.49474999999995,147.4154259244156L313.68837499999995,155.9940595555038L315.88199999999995,148.0580621941194L318.075625,159.58084068993557L320.26925,155.84169135934673L322.462875,156.78607260784779L324.6565,160.40009663926992L326.850125,157.41484140942285L329.04375,162.19185627586847" style="fill: none;" fill="none"></path></g></g></g></g><g opacity="0.2"><g><g><g><path stroke="rgb(255, 112, 67)" stroke-width="2px" d="M109.68125,-34.7826424969567L111.87487499999999,49.210134771135124L114.0685,68.29246245490178L116.262125,99.1947210099962L118.45575,132.59775899516208L120.649375,157.30466540654498L122.843,183.07228216860028L125.036625,187.11950675646463L127.23025000000001,193.27402044667136L129.42387499999998,199.7760967678494L131.6175,214.31032183435224L133.811125,220.5763630999459L136.00475,229.3455805646049L138.198375,239.74565925863055L140.392,227.55566102928586L142.585625,245.60748698976306L144.77925000000002,231.15171719921958L146.97287500000002,246.08139358626474L149.1665,247.37004600630868L151.360125,246.2779753340615L153.55375,248.2813629441791L155.74737499999998,253.87839439180163L157.94099999999997,248.9098144504759L160.134625,251.05352199077606L162.32825,254.77411676777731L164.521875,256.43742775917053L166.7155,256.29004981120426L168.909125,261.72655220826465L171.10275,264.08414803610907L173.296375,267.40957941611606L175.49,265.369944565826L177.683625,265.32732409901087L179.87725,261.28388920757504L182.070875,267.0551066199938L184.2645,261.8877115779453L186.45812500000002,261.7753357953495L188.65175,273.5188735458586L190.845375,275.57130153973895L193.039,275.1188880470064L195.23262499999998,269.73261663648816L197.42624999999998,271.9076844983631L199.619875,273.2162269883686L201.8135,276.309296283457L204.007125,280.18712066279517L206.20075,277.2297256125344L208.394375,276.1530004872216L210.588,276.8635958035787L212.78162500000002,280.47662389940683L214.97525000000002,277.8885491622819L217.168875,280.44839182827207L219.3625,277.721250017484L221.556125,278.6737478044298L223.74974999999998,278.63771845234766L225.94337499999997,281.4531905386183L228.137,289.6462574203809L230.330625,282.66492068105276L232.52425,286.22343784570694L234.717875,278.0876599682702L236.9115,283.7537930674023L239.105125,282.29403624269696L241.29875,288.78676672114267L243.492375,288.43685401148264L245.686,285.9383157160547L247.879625,290.89808675315646L250.07325,285.42042685217325L252.266875,291.9325182437897L254.46050000000002,291.8696108394199L256.654125,291.0069841080242L258.84774999999996,288.56718221637936L261.041375,287.979958249463L263.235,291.66677259074316L265.428625,284.20538947979605L267.62225,293.1302179495493L269.815875,289.16235909859336L272.0095,289.9083534479141L274.203125,290.4995383090443L276.39675,294.38151812553406L278.590375,295.064286020067L280.784,287.46272304985257L282.977625,293.04756054613324L285.17125,291.970570842425L287.364875,297.1500431100527L289.55850000000004,291.45861164728797L291.75212500000004,299.0233126216465L293.94575000000003,297.90484636359747L296.13937500000003,299.25446854035056L298.333,299.94828647375107L300.526625,293.88302130169336L302.72025,300.2592205603917L304.913875,300.2762547400263L307.1075,298.52745380004245L309.30112499999996,296.93433390061057L311.49474999999995,295.4188366333643L313.68837499999995,300.190967116091L315.88199999999995,299.3694122897254L318.075625,304.35723641845914L320.26925,301.4960000514984L322.462875,303.8121971421772L324.6565,304.69279185930884L326.850125,303.2468709283405L329.04375,304.04434912072287L331.237375,301.13374553786383L333.431,307.56708594825534L335.624625,302.60113622744876L337.81825,305.1105066736539L340.011875,303.3562118411064L342.2055,304.8547371824582L344.399125,302.8233742978838L346.59275,308.3272897137536L348.786375,307.86331258879767L350.98,302.9023976392216L353.173625,307.69988095760345L355.36725,303.22866170936163L357.560875,310.69030939870413L359.7545,308.76620970831976L361.948125,312.1101499034299L364.14175,305.90151825878354L366.335375,309.2349025540882L368.529,309.72626354297L370.72262500000005,310.7108686963717L372.91625000000005,311.2965830100907L375.10987500000005,309.88270719183816L377.3035,308.3731551567713L379.497125,307.3719438181983L381.69075,311.1480105684863L383.884375,309.58272198173734L386.078,308.7934301561779L388.271625,311.22133380174637L390.46524999999997,308.4873362978299L392.65887499999997,310.3867990705702L394.85249999999996,310.7364005115297L397.04612499999996,314.24732858273717L399.23975,309.28160842259723L401.433375,311.77283579442235L403.627,316.6337906916936L405.820625,310.94816828105184L408.01425,314.8933706614706L410.207875,313.4560913277997L412.4015,314.4077136715253L414.595125,312.2202612062295L416.78875,315.3830858170986L418.982375,313.8379246426953L421.176,313.2291219731172L423.369625,318.69980945520933L425.56325000000004,315.4662140144242L427.75687500000004,319.12379244301053L429.95050000000003,312.8016566667292L432.14412500000003,318.2656129631731L434.33775,313.6894961628649L436.531375,313.432485487726L438.725,316.66591362158454L440.918625,316.3989151120186L443.11225,320.74202394485474L445.305875,316.92852713333235L447.49949999999995,321.55702267421617L449.69312499999995,316.9627550178104L451.88674999999995,318.29831174016L454.080375,317.647682338953L456.274,317.44310098555354L458.467625,316.35331035653746L460.66125,317.62923966844875L462.854875,321.6895842320389L465.0485,321.09218566947516L467.242125,323.76562195685176L469.43575,318.8111775053872L471.629375,321.6048063106007L473.823,317.1513527234395L476.016625,322.03668774167693L478.21025,324.96972601612407L480.403875,321.70211668809253L482.5975,324.71010068390103L484.791125,320.6930963959959L486.98475,321.68808625141776L489.178375,320.4322765701347L491.372,322.47532370355395L493.565625,324.6915335059166L495.75925,324.11835553911L497.952875,323.87753472725547L500.1465,323.49716437525217L502.340125,323.19480963216887L504.53375,320.50454927153055L506.72737500000005,324.4691981640127L508.92100000000005,325.48682892653676L511.11462500000005,320.9711177084181L513.30825,324.4726493557294L515.5018749999999,325.0085606773694L517.6954999999999,325.081253591511L519.8891249999999,325.23155746526186L522.08275,325.53060497840244L524.276375,328.2014227178362L526.47,325.1517014801502L528.663625,327.37527667813833L530.85725,322.17614390121565L533.050875,327.356612228685L535.2445,326.8893628915151L537.438125,326.7089243166977L539.63175,323.205147643884L541.825375,327.1061070693864L544.019,326.58181385199225L546.212625,324.35058144397203L548.40625,326.85358255439337L550.599875,324.38925268914966L552.7935,328.83499070339735L554.987125,328.6642714937528L557.18075,330.1522681713104L559.374375,328.5408456722895L561.568,325.15609036882717L563.761625,330.52605129943953L565.95525,326.4422837661372L568.148875,333.31464533342256L570.3425,330.36384139789476L572.536125,331.97162205311986L574.72975,330.20291158888074L576.9233750000001,329.0050484670533L579.1170000000001,327.850634564956L581.3106250000001,328.350594351689L583.5042500000001,330.7812994155619L585.6978750000001,328.76900173889265L587.8915000000001,329.85171878668996L590.0851250000001,329.07573369807665L592.2787500000001,328.51892846491603L594.472375,330.72303380568826L596.666,329.44537695248926L598.859625,335.1302523182498L601.05325,331.2689524160491L603.246875,331.5300601654583L605.4405,329.25371714101897L607.634125,332.5861248307758L609.82775,329.36638862888015L612.021375,331.4811014897293L614.215,334.2499066160785L616.408625,330.10909520255194L618.6022499999999,330.5902660323514L620.7958749999999,334.1132440931267L622.9894999999999,334.803953230381L625.1831249999999,334.7995837959978L627.3767499999999,335.22250847021735L629.5703749999999,332.46447324090536L631.7639999999999,333.53575505481825L633.957625,335.0477894577715L636.15125,333.77058005332947L638.344875,335.44771526588335L640.5385,333.0339198741648L642.732125,334.09565352069006L644.92575,332.50952549444304L647.119375,337.0064399739107L649.313,337.6668899026182L651.506625,335.470317264398L653.70025,335.53655135300426L655.893875,333.8294993274742L658.0875,337.4601997037729L660.281125,337.74615447719896L662.47475,336.4890841576788L664.668375,337.19697921805914L666.862,335.02431590689554L669.055625,336.43942901823254L671.24925,334.71740107735L673.442875,338.3918308152093L675.6365,339.1540928449896L677.830125,338.3540194498168L680.02375,335.33430451485845L682.217375,338.70725884371336L684.411,338.4364978737301L686.604625,339.89630138874054L688.79825,340.42734913693533L690.991875,339.152505374617L693.1855,339.51221137576636L695.379125,338.46309189332857L697.57275,340.6134605838193L699.766375,338.392760730452L701.96,337.62389202250375L704.153625,338.84927907917233L706.34725,337.1575142376953L708.540875,342.2640990482436L710.7345,338.24035968383157L712.928125,338.24919582406676L715.12175,340.48276663819945L717.315375,339.0650271972021L719.509,340.9222002261215L721.702625,342.01321258478697L723.89625,342.5511082443926L726.089875,341.34847492973006L728.2835,343.70683920217886L730.477125,338.217325799995L732.67075,341.19434634182187L734.864375,340.84792762332495L737.058,343.34562938412034L739.2516250000001,341.4706401129564L741.4452500000001,341.4745893345939L743.6388750000001,342.0432539052433L745.8325000000001,342.6779696941376L748.0261250000001,344.0727277778917L750.2197500000001,343.15299685796106L752.4133750000001,343.45450339383547L754.607,342.7154192096657L756.800625,343.33243159121935L758.99425,344.3980463693539L761.187875,342.1805039478673L763.3815,344.4916759944624L765.575125,344.3656685882145L767.76875,344.43942370679645L769.962375,343.69311419791643L772.156,346.5254648294714L774.349625,344.1585173226065L776.54325,341.4426181481944L778.7368749999999,346.5742192351156L780.9304999999999,342.20417593253984L783.1241249999999,344.8737291428778L785.3177499999999,346.1621364388201L787.5113749999999,345.4685850292444L789.7049999999999,344.63259317146407L791.8986249999999,346.8775000025829L794.0922499999999,345.2555274400446L796.285875,346.28941226502263L798.4795,347.4706672562493L800.673125,345.01320864756906L802.86675,343.7016799234682L805.060375,344.90037374364005L807.254,344.0599677066008L809.447625,346.4193416568968L811.64125,345.50908303260803L813.834875,346.4281135979626L816.0285,347.0191408793131L818.222125,348.1317591766516L820.41575,348.5728716701269L822.609375,348.4731800870763L824.803,346.07969108720624L826.996625,348.84300621185037L829.19025,347.948371330897L831.383875,348.78163958754806L833.5775,348.17000437279546L835.771125,346.55044025182724L837.96475,347.58557598789537L840.158375,347.3325067526764L842.352,349.29477187660007L844.545625,350.0543725589911L846.73925,348.9827269497845L848.932875,349.5350713133812L851.1265000000001,348.99583525293406L853.3201250000001,349.0857082539135L855.5137500000001,349.5712699178192L857.7073750000001,347.81555881268446L859.9010000000001,350.8236225710975L862.0946250000001,350.31207191612987L864.2882500000001,350.751758409871L866.4818750000001,350.1841988431083L868.6755,349.2007162024578L870.869125,350.88692489763105L873.06275,350.65070113539696L875.256375,350.885242101219L877.45,350.0622126393848L879.643625,352.1662217477957L881.83725,351.1752569857571L884.030875,350.61159411403867L886.2245,350.09270919031565L888.418125,351.42270782093203L890.61175,352.0443619969818L892.8053749999999,350.9329070664114L894.9989999999999,351.1304206748804L897.1926249999999,351.1771751791239L899.3862499999999,351.3549893697103L901.5798749999999,353.5125366946062L903.7734999999999,350.9629230962859L905.9671249999999,351.37738126185207L908.16075,352.2002823253473L910.354375,352.5245873481035L912.548,352.48137157989873L914.741625,349.9626747452551L916.93525,350.1269934922457L919.128875,350.2856335308817L921.3225,350.00959266556634L923.516125,352.2254931446579L925.70975,352.4865756034851L927.903375,353.19885566168364L930.097,351.61742779281406L932.290625,351.50666866203153L934.48425,352.65613339179095L936.677875,352.8278233706951L938.8715,351.79503576788636L941.065125,351.54856348368855L943.25875,352.42928659915924L945.452375,352.59673554201925L947.646,351.884091688527L949.839625,352.8081025530895L952.03325,351.3770291391346L954.226875,353.87769767973157L956.4205,354.22329931788977L958.614125,353.82914170788393L960.80775,353.8918642964628L963.001375,353.7613220943345L965.195,353.02907220356997L967.388625,354.34092581437693L969.58225,353.5846790522337L971.775875,353.1317130575577L973.9695,354.263028876649L976.163125,352.0841090646055L978.35675,353.1007262584236L980.550375,354.0708009998003L982.744,353.77912277314397L984.937625,354.0889713101917" style="fill: none;" fill="none"></path></g><g><path stroke="rgb(187, 187, 187)" stroke-width="2px" d="M109.68125,326.226512302955L111.87487499999999,297.5688473648495L114.0685,262.45140363110437L116.262125,236.87915466891397L118.45575,218.46726863914066L120.649375,241.89652597904205L122.843,240.95663457446628L125.036625,247.60557525025476L127.23025000000001,244.61895985073514L129.42387499999998,264.7293924887975L131.6175,237.29465169376797L133.811125,252.5555957953135L136.00475,251.51140603091983L138.198375,250.24230906698438L140.392,254.92922974295087L142.585625,251.5802975760566L144.77925000000002,273.7638809217347L146.97287500000002,239.25187815560233L149.1665,268.57208241356744L151.360125,255.6731463736958L153.55375,263.5868729419178L155.74737499999998,254.21517934401828L157.94099999999997,265.5775763524903L160.134625,290.56588523255454L162.32825,255.04722392559052L164.521875,278.3314533962144L166.7155,263.1731190217866L168.909125,268.39832444323434L171.10275,273.11238774988385L173.296375,266.08246974812613L175.49,279.8983255624771L177.683625,275.9769002199173L179.87725,288.19960500796634L182.070875,273.1308537655407L184.2645,282.074941986137L186.45812500000002,275.58878705898917L188.65175,282.6539718045129L190.845375,284.56720821724997L193.039,280.71179518434735L195.23262499999998,297.0456046793196L197.42624999999998,284.15732181072235L199.619875,300.88012380070154L201.8135,288.10578862163754L204.007125,286.6347171796693L206.20075,291.85740910636054L208.394375,281.3832251164648L210.588,304.6776797638999L212.78162500000002,285.9384090966648L214.97525000000002,308.33615309000015L217.168875,280.57219895389346L219.3625,302.58436662620966L221.556125,298.41701566510733L223.74974999999998,297.2353385157055L225.94337499999997,303.39247464471396L228.137,288.2592518726984L230.330625,310.9764431516329L232.52425,300.8102206322882L234.717875,310.17645146449405L236.9115,307.5889992647701L239.105125,310.46298986673355L241.29875,310.2576848136054L243.492375,311.3561754028002L245.686,311.8300664358669L247.879625,312.2790053917302L250.07325,317.41227371162836L252.266875,307.77094360192615L254.46050000000002,320.03672797812357L256.654125,310.4830589161979L258.84774999999996,317.20029194487466L261.041375,319.1499934858746L263.235,317.003803577688L265.428625,321.4522846473588L267.62225,318.4377134276761L269.815875,324.36827706959514L272.0095,314.5102455814679L274.203125,319.73112047712004L276.39675,320.78001428975L278.590375,321.8309936026732L280.784,324.0924346380764L282.977625,323.0925306280454L285.17125,325.97971513205107L287.364875,326.56198214491206L289.55850000000004,322.57348228825464L291.75212500000004,328.3667803241147L293.94575000000003,327.9494973950916L296.13937500000003,331.22632805837526L298.333,333.1248453524378L300.526625,334.62100116080705L302.72025,330.6636709736453L304.913875,331.9965741303232L307.1075,337.4085290994909L309.30112499999996,333.16020547681387L311.49474999999995,333.33332923716966L313.68837499999995,334.0722655687067L315.88199999999995,336.08240381876624L318.075625,337.50813119279013L320.26925,331.92911053034993L322.462875,335.61725943618353L324.6565,338.0960632960001L326.850125,336.1376540131039" style="fill: none;" fill="none"></path></g><g><path stroke="rgb(0, 153, 136)" stroke-width="2px" d="M111.87487499999999,-8.934578339258858L114.0685,21.5000301202138L116.262125,1.735619333055289L118.45575,29.750611676110143L120.649375,20.710434807671422L122.843,46.859433545006624L125.036625,41.90686837832131L127.23025000000001,56.539485481050285L129.42387499999998,88.92662024497986L131.6175,83.40399758021036L133.811125,103.65423655509949L136.00475,107.60492115550572L138.198375,104.42033108075456L140.392,97.93489207161795L142.585625,130.0320956044727L144.77925000000002,157.2371512254079L146.97287500000002,169.93542011578876L149.1665,195.04955936802756L151.360125,179.02024847931332L153.55375,200.02472264236874L155.74737499999998,181.04873991012573L157.94099999999997,188.2696601682239L160.134625,232.56509498755136L162.32825,191.24132688840228L164.521875,223.1185412671831L166.7155,205.66618769698673L168.909125,222.43261399534015L171.10275,218.76874793900382L173.296375,217.90469715330335L175.49,235.56303278605142L177.683625,224.8746725850635L179.87725,244.76496043470172L182.070875,237.6803914308548L184.2645,250.93941866689258L186.45812500000002,242.33701788054574L188.65175,259.13254002067777L190.845375,251.07647805743747L193.039,242.68039394749533L195.23262499999998,259.142749634054L197.42624999999998,251.0326747695605L199.619875,278.57110695044196L201.8135,255.19869505696826L204.007125,265.241024851799L206.20075,265.47420401705637L208.394375,256.7446499665578L210.588,262.3471908701791L212.78162500000002,264.40149425797995L214.97525000000002,276.4138981302579L217.168875,259.2785717315144L219.3625,284.12989903820886L221.556125,264.3727875020769L223.74974999999998,258.6082623667187L225.94337499999997,269.668534192774L228.137,272.0934885674053L230.330625,285.19640676842795L232.52425,280.54377233982086L234.717875,288.42057465844687L236.9115,280.2793417970339L239.105125,285.6303931540913L241.29875,279.7134786446889L243.492375,291.400287674533L245.686,291.0926997264226L247.879625,290.5649825533231L250.07325,297.8255662255817L252.266875,287.105495525731L254.46050000000002,300.7232521573702L256.654125,291.63675072458057L258.84774999999996,298.47656914922925L261.041375,302.7128894726435L263.235,299.7015904651748L265.428625,304.7097248766157L267.62225,302.0893949204021L269.815875,313.1630590822962L272.0095,305.39329428805246L274.203125,305.9851950671938L276.39675,310.0602003865772L278.590375,310.176404774189L280.784,311.2675572037697L282.977625,312.9874879717827L285.17125,317.26465453041925L287.364875,316.06152318583594L289.55850000000004,312.15603090988265L291.75212500000004,316.3069157567289L293.94575000000003,318.4719490938717L296.13937500000003,320.57373263107405L298.333,323.5264041788048L300.526625,324.37142088347014L302.72025,319.3148919708199L304.913875,323.0353427860472L307.1075,328.9717038075129L309.30112499999996,323.6111198465029L311.49474999999995,322.1332938737339L313.68837499999995,324.6839580039183L315.88199999999995,326.62797889113426L318.075625,328.3651811811659L320.26925,323.6535107526514L322.462875,326.08965912792416L324.6565,330.0510319173336L326.850125,328.25369640522536" style="fill: none;" fill="none"></path></g><g><path stroke="rgb(51, 187, 238)" stroke-width="2px" d="M109.68125,177.45615438620248L111.87487499999999,181.05639712015787L114.0685,165.66660334004294L116.262125,182.64220220512814L118.45575,162.51494549380405L120.649375,172.8612213929494L122.843,176.0341855817371L125.036625,164.46037487188974L127.23025000000001,169.6395592159695L129.42387499999998,168.11530751652188L131.6175,178.31768389542896L133.811125,170.04201408227283L136.00475,179.15667755073972L138.198375,173.33999934461383L140.392,178.9738850063748L142.585625,162.47519648075104L144.77925000000002,164.12068733904096L146.97287500000002,158.7571541070938L149.1665,159.4434860282474L151.360125,154.04407907856833L153.55375,154.4288227558136L155.74737499999998,155.6627230114407L157.94099999999997,160.32303799523245L160.134625,150.7527238395479L162.32825,150.82104731930625L164.521875,147.41088081730734L166.7155,145.95314723915524L168.909125,158.88629949092865L171.10275,144.46602989567648L173.296375,151.37258432971103L175.49,145.24041973219974L177.683625,152.7837365468343L179.87725,157.67887263827853L182.070875,141.55913819207083L184.2645,147.92844284905325L186.45812500000002,135.8737531238132L188.65175,150.60510465833875L190.845375,136.3929026259316L193.039,147.41992317305667L195.23262499999998,140.06107975376975L197.42624999999998,154.85803116692435L199.619875,133.79474278291065L201.8135,139.87305789523654L204.007125,121.83436747392015L206.20075,147.58604727851016L208.394375,117.26942521995967L210.588,154.95822856161328L212.78162500000002,118.52186152670119L214.97525000000002,163.1306972371207L217.168875,110.66581304868059L219.3625,147.01264364189572L221.556125,120.45272352960374L223.74974999999998,145.71060666773053L225.94337499999997,125.14830525716143L228.137,147.953484416008L230.330625,124.73713486724431L232.52425,137.9983954562081L234.717875,125.89917874336243L236.9115,143.8224507305357L239.105125,126.31444231669107L241.29875,150.351825316747L243.492375,113.66071597735086L245.686,152.7897129058838L247.879625,117.68632295396593L250.07325,157.8848858277003L252.266875,125.91162949138219L254.46050000000002,139.83517649438647L256.654125,139.70389891995322L258.84774999999996,140.69669044017792L261.041375,136.39277811845142L263.235,144.507319688797L265.428625,151.59814519352383L267.62225,136.18036835723453L269.815875,143.046520113945L272.0095,143.05187393559348L274.203125,135.5826079448064L276.39675,147.11088004377154L278.590375,136.5553537607193L280.784,151.68491134378644L282.977625,134.75933335887058L285.17125,155.72107032934824L287.364875,149.0149106846915L289.55850000000004,139.2685896423128L291.75212500000004,160.85270837942758L293.94575000000003,139.36800886525046L296.13937500000003,166.88616967201233L298.333,129.74227331744297L300.526625,153.24704444408417L302.72025,136.67740221818286L304.913875,161.890104704433L307.1075,126.32317340373993L309.30112499999996,160.71730649471283L311.49474999999995,145.1654195388158L313.68837499999995,168.86201000213623L315.88199999999995,136.15406615204282L318.075625,176.86500843365985L320.26925,150.23296736346347L322.462875,158.20264448059928L324.6565,165.82113268640308L326.850125,152.93695856465231L329.04375,169.35737857553693" style="fill: none;" fill="none"></path></g></g></g></g></g></g><g transform="translate(53, 376)" clip-path="url(#clip_1)"><clipPath id="clip_1"><rect width="1096" height="24"></rect></clipPath><g><g><line x1="0" y1="0" x2="0" y2="5" style="visibility: inherit;" fill="rgb(0, 0, 0)" stroke="rgb(204, 204, 204)" stroke-width="1px"></line><line x1="109.68125" y1="0" x2="109.68125" y2="5" style="visibility: inherit;" fill="rgb(0, 0, 0)" stroke="rgb(204, 204, 204)" stroke-width="1px"></line><line x1="219.3625" y1="0" x2="219.3625" y2="5" style="visibility: inherit;" fill="rgb(0, 0, 0)" stroke="rgb(204, 204, 204)" stroke-width="1px"></line><line x1="329.04375" y1="0" x2="329.04375" y2="5" style="visibility: inherit;" fill="rgb(0, 0, 0)" stroke="rgb(204, 204, 204)" stroke-width="1px"></line><line x1="438.725" y1="0" x2="438.725" y2="5" style="visibility: inherit;" fill="rgb(0, 0, 0)" stroke="rgb(204, 204, 204)" stroke-width="1px"></line><line x1="548.40625" y1="0" x2="548.40625" y2="5" style="visibility: inherit;" fill="rgb(0, 0, 0)" stroke="rgb(204, 204, 204)" stroke-width="1px"></line><line x1="658.0875" y1="0" x2="658.0875" y2="5" style="visibility: inherit;" fill="rgb(0, 0, 0)" stroke="rgb(204, 204, 204)" stroke-width="1px"></line><line x1="767.76875" y1="0" x2="767.76875" y2="5" style="visibility: inherit;" fill="rgb(0, 0, 0)" stroke="rgb(204, 204, 204)" stroke-width="1px"></line><line x1="877.45" y1="0" x2="877.45" y2="5" style="visibility: inherit;" fill="rgb(0, 0, 0)" stroke="rgb(204, 204, 204)" stroke-width="1px"></line><line x1="987.13125" y1="0" x2="987.13125" y2="5" style="visibility: inherit;" fill="rgb(0, 0, 0)" stroke="rgb(204, 204, 204)" stroke-width="1px"></line><line x1="1096.8125" y1="0" x2="1096.8125" y2="5" style="visibility: inherit;" fill="rgb(0, 0, 0)" stroke="rgb(204, 204, 204)" stroke-width="1px"></line></g><g transform="translate(0, 8)"><text x="0" y="0" dx="0em" dy="0.95em" style="text-anchor: middle; visibility: hidden; font-family: Roboto, sans-serif; font-size: 12px; font-weight: 200;" fill="rgb(33, 33, 33)" stroke="none" stroke-width="1px">-50</text><text x="109.68125" y="0" dx="0em" dy="0.95em" style="text-anchor: middle; visibility: inherit; font-family: Roboto, sans-serif; font-size: 12px; font-weight: 200;" fill="rgb(33, 33, 33)" stroke="none" stroke-width="1px">0</text><text x="219.3625" y="0" dx="0em" dy="0.95em" style="text-anchor: middle; visibility: inherit; font-family: Roboto, sans-serif; font-size: 12px; font-weight: 200;" fill="rgb(33, 33, 33)" stroke="none" stroke-width="1px">50</text><text x="329.04375" y="0" dx="0em" dy="0.95em" style="text-anchor: middle; visibility: inherit; font-family: Roboto, sans-serif; font-size: 12px; font-weight: 200;" fill="rgb(33, 33, 33)" stroke="none" stroke-width="1px">100</text><text x="438.725" y="0" dx="0em" dy="0.95em" style="text-anchor: middle; visibility: inherit; font-family: Roboto, sans-serif; font-size: 12px; font-weight: 200;" fill="rgb(33, 33, 33)" stroke="none" stroke-width="1px">150</text><text x="548.40625" y="0" dx="0em" dy="0.95em" style="text-anchor: middle; visibility: inherit; font-family: Roboto, sans-serif; font-size: 12px; font-weight: 200;" fill="rgb(33, 33, 33)" stroke="none" stroke-width="1px">200</text><text x="658.0875" y="0" dx="0em" dy="0.95em" style="text-anchor: middle; visibility: inherit; font-family: Roboto, sans-serif; font-size: 12px; font-weight: 200;" fill="rgb(33, 33, 33)" stroke="none" stroke-width="1px">250</text><text x="767.76875" y="0" dx="0em" dy="0.95em" style="text-anchor: middle; visibility: inherit; font-family: Roboto, sans-serif; font-size: 12px; font-weight: 200;" fill="rgb(33, 33, 33)" stroke="none" stroke-width="1px">300</text><text x="877.45" y="0" dx="0em" dy="0.95em" style="text-anchor: middle; visibility: inherit; font-family: Roboto, sans-serif; font-size: 12px; font-weight: 200;" fill="rgb(33, 33, 33)" stroke="none" stroke-width="1px">350</text><text x="987.13125" y="0" dx="0em" dy="0.95em" style="text-anchor: middle; visibility: inherit; font-family: Roboto, sans-serif; font-size: 12px; font-weight: 200;" fill="rgb(33, 33, 33)" stroke="none" stroke-width="1px">400</text><text x="1096.8125" y="0" dx="0em" dy="0.95em" style="text-anchor: middle; visibility: hidden; font-family: Roboto, sans-serif; font-size: 12px; font-weight: 200;" fill="rgb(33, 33, 33)" stroke="none" stroke-width="1px">450</text></g><line x1="0" y1="0" x2="1096.8125" y2="0" fill="rgb(0, 0, 0)" stroke="rgb(204, 204, 204)" stroke-width="1px"></line></g></g></g></g></svg>