<svg viewBox="0 0 1150 400" xmlns="http://www.w3.org/2000/svg"><g><g><g><g><g><line x1="42.390625" y1="376" x2="37.390625" y2="376" style="visibility: inherit;" fill="rgb(0, 0, 0)" stroke="rgb(204, 204, 204)" stroke-width="1px"></line><line x1="42.390625" y1="338.40000000000003" x2="37.390625" y2="338.40000000000003" style="visibility: inherit;" fill="rgb(0, 0, 0)" stroke="rgb(204, 204, 204)" stroke-width="1px"></line><line x1="42.390625" y1="300.8" x2="37.390625" y2="300.8" style="visibility: inherit;" fill="rgb(0, 0, 0)" stroke="rgb(204, 204, 204)" stroke-width="1px"></line><line x1="42.390625" y1="263.2" x2="37.390625" y2="263.2" style="visibility: inherit;" fill="rgb(0, 0, 0)" stroke="rgb(204, 204, 204)" stroke-width="1px"></line><line x1="42.390625" y1="225.6" x2="37.390625" y2="225.6" style="visibility: inherit;" fill="rgb(0, 0, 0)" stroke="rgb(204, 204, 204)" stroke-width="1px"></line><line x1="42.390625" y1="188" x2="37.390625" y2="188" style="visibility: inherit;" fill="rgb(0, 0, 0)" stroke="rgb(204, 204, 204)" stroke-width="1px"></line><line x1="42.390625" y1="150.4" x2="37.390625" y2="150.4" style="visibility: inherit;" fill="rgb(0, 0, 0)" stroke="rgb(204, 204, 204)" stroke-width="1px"></line><line x1="42.390625" y1="112.79999999999997" x2="37.390625" y2="112.79999999999997" style="visibility: inherit;" fill="rgb(0, 0, 0)" stroke="rgb(204, 204, 204)" stroke-width="1px"></line><line x1="42.390625" y1="75.19999999999999" x2="37.390625" y2="75.19999999999999" style="visibility: inherit;" fill="rgb(0, 0, 0)" stroke="rgb(204, 204, 204)" stroke-width="1px"></line><line x1="42.390625" y1="37.599999999999994" x2="37.390625" y2="37.599999999999994" style="visibility: inherit;" fill="rgb(0, 0, 0)" stroke="rgb(204, 204, 204)" stroke-width="1px"></line><line x1="42.390625" y1="0" x2="37.390625" y2="0" style="visibility: inherit;" fill="rgb(0, 0, 0)" stroke="rgb(204, 204, 204)" stroke-width="1px"></line></g><g transform="translate(32.390625, 0)"><text x="0" y="376" dx="0em" dy="0.3em" style="text-anchor: end; visibility: hidden; font-family: Roboto, sans-serif; font-size: 12px; font-weight: 200;" fill="rgb(33, 33, 33)" stroke="none" stroke-width="1px">0.1</text><text x="0" y="338.40000000000003" dx="0em" dy="0.3em" style="text-anchor: end; visibility: inherit; font-family: Roboto, sans-serif; font-size: 12px; font-weight: 200;" fill="rgb(33, 33, 33)" stroke="none" stroke-width="1px">0.2</text><text x="0" y="300.8" dx="0em" dy="0.3em" style="text-anchor: end; visibility: inherit; font-family: Roboto, sans-serif; font-size: 12px; font-weight: 200;" fill="rgb(33, 33, 33)" stroke="none" stroke-width="1px">0.3</text><text x="0" y="263.2" dx="0em" dy="0.3em" style="text-anchor: end; visibility: inherit; font-family: Roboto, sans-serif; font-size: 12px; font-weight: 200;" fill="rgb(33, 33, 33)" stroke="none" stroke-width="1px">0.4</text><text x="0" y="225.6" dx="0em" dy="0.3em" style="text-anchor: end; visibility: inherit; font-family: Roboto, sans-serif; font-size: 12px; font-weight: 200;" fill="rgb(33, 33, 33)" stroke="none" stroke-width="1px">0.5</text><text x="0" y="188" dx="0em" dy="0.3em" style="text-anchor: end; visibility: inherit; font-family: Roboto, sans-serif; font-size: 12px; font-weight: 200;" fill="rgb(33, 33, 33)" stroke="none" stroke-width="1px">0.6</text><text x="0" y="150.4" dx="0em" dy="0.3em" style="text-anchor: end; visibility: inherit; font-family: Roboto, sans-serif; font-size: 12px; font-weight: 200;" fill="rgb(33, 33, 33)" stroke="none" stroke-width="1px">0.7</text><text x="0" y="112.79999999999997" dx="0em" dy="0.3em" style="text-anchor: end; visibility: inherit; font-family: Roboto, sans-serif; font-size: 12px; font-weight: 200;" fill="rgb(33, 33, 33)" stroke="none" stroke-width="1px">0.8</text><text x="0" y="75.19999999999999" dx="0em" dy="0.3em" style="text-anchor: end; visibility: inherit; font-family: Roboto, sans-serif; font-size: 12px; font-weight: 200;" fill="rgb(33, 33, 33)" stroke="none" stroke-width="1px">0.9</text><text x="0" y="37.599999999999994" dx="0em" dy="0.3em" style="text-anchor: end; visibility: inherit; font-family: Roboto, sans-serif; font-size: 12px; font-weight: 200;" fill="rgb(33, 33, 33)" stroke="none" stroke-width="1px">1</text><text x="0" y="0" dx="0em" dy="0.3em" style="text-anchor: end; visibility: hidden; font-family: Roboto, sans-serif; font-size: 12px; font-weight: 200;" fill="rgb(33, 33, 33)" stroke="none" stroke-width="1px">1.1</text></g><line x1="42.390625" y1="0" x2="42.390625" y2="376" fill="rgb(0, 0, 0)" stroke="rgb(204, 204, 204)" stroke-width="1px"></line></g></g><g transform="translate(42, 0)" clip-path="url(#clip_0)"><clipPath id="clip_0"><rect width="1107" height="376"></rect></clipPath><g><g><g><line x1="0" y1="0" x2="0" y2="376" fill="rgb(0, 0, 0)" stroke="rgb(66, 66, 66)" stroke-width="1px" opacity="0.25"></line><line x1="110.76093750000001" y1="0" x2="110.76093750000001" y2="376" fill="rgb(0, 0, 0)" stroke="rgb(66, 66, 66)" stroke-width="1px" opacity="0.25"></line><line x1="221.52187500000002" y1="0" x2="221.52187500000002" y2="376" fill="rgb(0, 0, 0)" stroke="rgb(66, 66, 66)" stroke-width="1px" opacity="0.25"></line><line x1="332.2828125" y1="0" x2="332.2828125" y2="376" fill="rgb(0, 0, 0)" stroke="rgb(66, 66, 66)" stroke-width="1px" opacity="0.25"></line><line x1="443.04375000000005" y1="0" x2="443.04375000000005" y2="376" fill="rgb(0, 0, 0)" stroke="rgb(66, 66, 66)" stroke-width="1px" opacity="0.25"></line><line x1="553.8046875" y1="0" x2="553.8046875" y2="376" fill="rgb(0, 0, 0)" stroke="rgb(66, 66, 66)" stroke-width="1px" opacity="0.25"></line><line x1="664.565625" y1="0" x2="664.565625" y2="376" fill="rgb(0, 0, 0)" stroke="rgb(66, 66, 66)" stroke-width="1px" opacity="0.25"></line><line x1="775.3265624999999" y1="0" x2="775.3265624999999" y2="376" fill="rgb(0, 0, 0)" stroke="rgb(66, 66, 66)" stroke-width="1px" opacity="0.25"></line><line x1="886.0875000000001" y1="0" x2="886.0875000000001" y2="376" fill="rgb(0, 0, 0)" stroke="rgb(66, 66, 66)" stroke-width="1px" opacity="0.25"></line><line x1="996.8484375" y1="0" x2="996.8484375" y2="376" fill="rgb(0, 0, 0)" stroke="rgb(66, 66, 66)" stroke-width="1px" opacity="0.25"></line><line x1="1107.609375" y1="0" x2="1107.609375" y2="376" fill="rgb(0, 0, 0)" stroke="rgb(66, 66, 66)" stroke-width="1px" opacity="0.25"></line></g><g><line x1="0" y1="376" x2="1107.609375" y2="376" fill="rgb(0, 0, 0)" stroke="rgb(66, 66, 66)" stroke-width="1px" opacity="0.25"></line><line x1="0" y1="338.40000000000003" x2="1107.609375" y2="338.40000000000003" fill="rgb(0, 0, 0)" stroke="rgb(66, 66, 66)" stroke-width="1px" opacity="0.25"></line><line x1="0" y1="300.8" x2="1107.609375" y2="300.8" fill="rgb(0, 0, 0)" stroke="rgb(66, 66, 66)" stroke-width="1px" opacity="0.25"></line><line x1="0" y1="263.2" x2="1107.609375" y2="263.2" fill="rgb(0, 0, 0)" stroke="rgb(66, 66, 66)" stroke-width="1px" opacity="0.25"></line><line x1="0" y1="225.6" x2="1107.609375" y2="225.6" fill="rgb(0, 0, 0)" stroke="rgb(66, 66, 66)" stroke-width="1px" opacity="0.25"></line><line x1="0" y1="188" x2="1107.609375" y2="188" fill="rgb(0, 0, 0)" stroke="rgb(66, 66, 66)" stroke-width="1px" opacity="0.25"></line><line x1="0" y1="150.4" x2="1107.609375" y2="150.4" fill="rgb(0, 0, 0)" stroke="rgb(66, 66, 66)" stroke-width="1px" opacity="0.25"></line><line x1="0" y1="112.79999999999997" x2="1107.609375" y2="112.79999999999997" fill="rgb(0, 0, 0)" stroke="rgb(66, 66, 66)" stroke-width="1px" opacity="0.25"></line><line x1="0" y1="75.19999999999999" x2="1107.609375" y2="75.19999999999999" fill="rgb(0, 0, 0)" stroke="rgb(66, 66, 66)" stroke-width="1px" opacity="0.25"></line><line x1="0" y1="37.599999999999994" x2="1107.609375" y2="37.599999999999994" fill="rgb(0, 0, 0)" stroke="rgb(66, 66, 66)" stroke-width="1px" opacity="0.25"></line><line x1="0" y1="0" x2="1107.609375" y2="0" fill="rgb(0, 0, 0)" stroke="rgb(66, 66, 66)" stroke-width="1px" opacity="0.25"></line></g></g></g><g><g><line x1="0" y1="413.6" x2="1107.609375" y2="413.6" fill="rgb(0, 0, 0)" stroke="rgb(153, 153, 153)" stroke-width="1.5px"></line></g></g><g><g><line x1="110.76093750000001" y1="0" x2="110.76093750000001" y2="376" fill="rgb(0, 0, 0)" stroke="rgb(153, 153, 153)" stroke-width="1.5px"></line></g></g><g><g><g><g><g><path stroke="rgb(255, 112, 67)" stroke-width="2px" d="M110.76093750000001,412.58490432649853L112.97615624999999,335.9974941810593L115.191375,318.660866956352L117.40659375,301.2289422321133L119.6218125,263.38165737423714L121.83703125,210.35611608420123L124.05225,175.88173427435547L126.26746875,144.3860807863431L128.4826875,119.63838835342652L130.69790625,108.97393073725394L132.913125,92.58736654636535L135.12834375,86.81160566195967L137.3435625,79.17870924001623L139.55878125,73.37489694032544L141.774,68.52807349856619L143.98921875,64.47611057991165L146.2044375,61.96458449219797L148.41965625,61.91886087401779L150.63487500000002,59.764230197543164L152.85009375,56.781398536266806L155.0653125,55.911506348792564L157.28053125,54.14111138777271L159.49575,53.42454673281803L161.71096874999998,52.86025938535239L163.9261875,51.9432322629685L166.14140625,50.67943020581098L168.356625,50.39916693087807L170.57184375,51.42602769799059L172.7870625,50.82630086895146L175.00228125,49.75271715841918L177.2175,48.72519854102018L179.43271875,47.99078583709776L181.6479375,47.17923045093203L183.86315625,47.49845132749582L186.07837500000002,47.396565530463796L188.29359375,47.499924373360514L190.50881249999998,47.05125680629825L192.72403125,46.73953746122253L194.93925,46.71960485431364L197.15446874999998,46.055815760516744L199.3696875,45.78399608603588L201.58490625,45.001131942321436L203.800125,45.08780650764199L206.01534375,45.37811557577809L208.2305625,45.6901845844519L210.44578125,45.12293456502785L212.661,43.94878385603823L214.87621875,43.8941507610094L217.0914375,43.799264580749885L219.30665625,43.807191309179956L221.52187500000002,44.03828401616096L223.73709375,45.07056966812245L225.95231249999998,44.508558307830484L228.16753125,43.812097608293776L230.38275,43.460612561252915L232.59796874999998,43.57875595685679L234.8131875,43.17233410237326L237.02840625,42.82838295196345L239.243625,43.42459843572886L241.45884375,43.08459079514093L243.6740625,43.513679853976654L245.88928125,43.32945943826489L248.1045,43.26562347027093L250.31971875000002,43.277944638803206L252.5349375,42.94259613661439L254.75015625,42.45534653847497L256.965375,42.33675643077543L259.18059375,42.427672259038964L261.3958125,42.0310992813267L263.61103125,41.69713632203084L265.82625,41.84769333801829L268.04146875,41.67733876587249L270.2566875,41.6424138491231L272.47190625,42.13933132796753L274.687125,41.96838544076248L276.90234375,41.636773947868114L279.1175625,41.268063514228714L281.33278125,41.45354940461877L283.548,41.3146137736306L285.76321875,41.13327895296007L287.9784375,41.21298437769642L290.19365625,41.514082740875644L292.408875,41.4167155594424L294.62409375000004,41.45574874942272L296.8393125,40.92424579658966L299.05453125,41.000473991625654L301.26975000000004,40.909152078386036L303.48496875,40.920714444968645L305.7001875,40.88715904417847L307.91540625000005,40.87361473955641L310.130625,40.873708638655735L312.34584375,40.75120180672861L314.5610625,40.76469855443509L316.77628124999995,40.620005007600014L318.9915,40.612390577802174L321.20671875,40.60254180670327L323.42193749999996,40.42418171549166L325.63715625,40.32670392980766L327.852375,40.29375722879525L330.06759374999996,40.285356243099876L332.2828125,40.276846375254465L334.49803125,40.40329505812383L336.71325,40.53125720150025L338.92846875,40.537510462562736L341.1436875,40.73511160132915L343.35890625,40.56409079502604L345.574125,40.90195091408834L347.78934375,40.91477116490805L350.0045625,41.14608373013377L352.21978125,40.9780957947209L354.435,40.84466314852445L356.65021875,40.758731788040464L358.8654375,40.64099674799519L361.08065625,40.657759975066654L363.295875,40.68983481804781L365.51109375000004,40.89528215456163L367.7263125,40.70928294019792L369.94153125,40.80307891939218L372.15675000000005,40.67449875696976L374.37196875,40.61962753787327L376.5871875,40.66369226369072L378.80240625000005,40.57781439538482L381.01762499999995,40.37900030562692L383.23284375,40.460876097377614L385.4480625,40.59038658982304L387.66328124999995,40.65798985031717L389.8785,40.402076586887084L392.09371875,40.2545438342123L394.30893749999996,40.208695386220754L396.52415625,40.07361185453518L398.739375,40.04772950590961L400.95459375,40.03100781310384L403.1698125,40.02698103826517L405.38503125,40.07523254538342L407.60025,40.33538786402205L409.81546875,40.14724277395523L412.0306875,39.96424406372618L414.24590625,39.841509008426144L416.461125,39.78734791756788L418.67634375,39.816634862906405L420.8915625,39.8427412708322L423.10678125,39.82598934410334L425.322,39.910567857255465L427.53721875,40.06229152764671L429.7524375,39.982793312584114L431.96765625,39.96445324737714L434.182875,39.9437854356699L436.39809375000004,39.88771848125058L438.6133125,39.91364766742467L440.82853125,39.82899060240792L443.04375000000005,39.90260622973088L445.25896875,40.01763131901529L447.4741875,39.96704149892874L449.68940625000005,39.85760244757502L451.90462499999995,39.7958654846583L454.11984375,39.81356974398101L456.3350625,39.789840187758216L458.55028124999995,39.73765556223987L460.7655,39.671347228335144L462.98071875,39.62979621389315L465.19593749999996,39.64807468115572L467.41115625,39.70295007144979L469.626375,39.83171518752317L471.84159375,39.85483740871752L474.0568125,39.850521692667016L476.27203125,39.85196630539512L478.48725,39.88836850394018L480.70246875,39.98032147925619L482.9176875,40.04172361875487L485.13290625,40.008489104419404L487.348125,39.91087963361109L489.56334375,39.86746402131656L491.7785625,39.83882390229188L493.99378125,39.79780312280822L496.209,39.87608562887293L498.42421875,40.080158671024925L500.63943750000004,40.051917567422095L502.85465625,39.894337224108064L505.069875,39.77448212572458L507.28509375000004,39.77382818382096L509.5003125,39.75938838673301L511.71553125,39.858173467830845L513.93075,39.80559396869901L516.1459687500001,39.76047395781854L518.3611875,39.87496994445427L520.57640625,39.9439723307473L522.791625,39.93994148102895L525.00684375,40.035595023199896L527.2220625,39.945224659183616L529.43728125,39.882907462441345L531.6525,39.79852503318989L533.86771875,39.75639395820738L536.0829375,39.84048268382335L538.29815625,40.18763525238388L540.513375,40.25880521148892L542.72859375,40.45093708044557L544.9438125,40.62062198642655L547.15903125,41.00943263246874L549.37425,41.4609248535291L551.58946875,41.71807754853102L553.8046875,41.62798687946039L556.01990625,40.95733358580613L558.235125,40.44862218212334L560.45034375,40.2249547118619L562.6655625,40.13212557522505L564.88078125,40.153496231365516L567.096,40.21973831041355L569.31121875,40.603865271709566L571.5264375,40.70974332684408L573.74165625,40.366253215039556L575.956875,40.1071428668289L578.17209375,40.066171744572436L580.3873125,40.16600790209015L582.60253125,40.01014211765789L584.81775,39.95498190755761L587.03296875,39.929353242129785L589.2481875000001,39.86260923684283L591.46340625,39.8472601374426L593.678625,39.826656749274626L595.8938437500001,39.84227304126401L598.1090625,39.84759084502205L600.32428125,39.800042238946794L602.5395000000001,39.74660062260389L604.75471875,39.72393945376252L606.9699375,39.707025873185245L609.1851562500001,39.6955778667456L611.400375,39.79859637672457L613.61559375,39.75437492045613L615.8308125000001,39.95562200732741L618.04603125,40.0333763324482L620.26125,39.93803063650503L622.4764687500001,39.911239898321455L624.6916875,39.80544835336051L626.9069062499999,39.80745938066867L629.122125,39.87170463230745L631.33734375,39.98515946761689L633.5525624999999,39.90910051760623L635.76778125,39.75498526631326L637.983,39.670467661252765L640.1982187499999,39.65023652936884L642.4134375,39.6792002596013L644.62865625,39.70222615704252L646.8438749999999,39.909792267711836L649.05909375,39.899926607270196L651.2743125,40.01246462372489L653.4895312499999,40.23868665997712L655.70475,40.62669096174557L657.91996875,40.4960621844692L660.1351874999999,40.369079189954L662.35040625,40.300867832575925L664.565625,40.19345103554411L666.78084375,40.107028873279575L668.9960625,40.051509079644006L671.21128125,40.01820616800126L673.4265,39.860251207819815L675.64171875,39.816979505819816L677.8569375,39.816807462097856L680.07215625,39.90357957918743L682.287375,39.92376495027122L684.50259375,39.883541196725226L686.7178125,39.80111951478803L688.93303125,39.74342809467602L691.14825,39.97028193920307L693.36346875,39.922585346993536L695.5786875,39.96879439514679L697.79390625,40.19338109112858L700.009125,40.27630911122008L702.22434375,40.16441736370473L704.4395625,40.21304140180438L706.65478125,40.154058552325296L708.87,40.26125879319938L711.08521875,40.34077383060714L713.3004375,40.41677493679205L715.51565625,40.647744329140664L717.730875,40.600939306834974L719.94609375,40.46382061077331L722.1613125,40.444390808541606L724.3765312500001,40.51541286647262L726.59175,40.65911023819411L728.80696875,40.48420958163718L731.0221875000001,40.3533347776078L733.23740625,40.370076046618415L735.452625,40.24572444572008L737.6678437500001,40.149598592602956L739.8830625,40.214683471968016L742.09828125,40.37597484758509L744.3135000000001,40.36590133768923L746.52871875,40.20154348053102L748.7439375,40.200758775696514L750.9591562500001,40.117419758215775L753.174375,40.08044182227564L755.38959375,40.1942471108825L757.6048125000001,40.28355212700315L759.82003125,40.25424004847971L762.0352499999999,40.338310668797305L764.25046875,40.34395724173248L766.4656875,40.236471772407675L768.6809062499999,40.16787473214581L770.896125,40.15310810955118L773.11134375,40.16112836212962L775.3265624999999,40.27944950110346L777.54178125,40.298403038064436L779.757,40.2958621963738L781.9722187499999,40.27832702546585L784.1874375,40.24488359778679L786.40265625,40.14879825407004L788.6178749999999,40.26724644359194L790.83309375,40.51377827081825L793.0483125,40.305267313443075L795.2635312499999,40.28379080493595L797.47875,40.370787788625634L799.69396875,40.74953722548253L801.9091875,40.83090695137838L804.12440625,40.74183625456726L806.339625,40.69622884319442L808.55484375,40.64090400055776L810.7700625,40.60686642834979L812.98528125,40.51942499464415L815.2005,40.4667270564178L817.41571875,40.42601825136775L819.6309375,40.39997935139439L821.84615625,40.457434929867375L824.061375,40.213971722996114L826.27659375,40.07952976994267L828.4918125,39.964682812527116L830.70703125,40.03839148225504L832.92225,40.370010826242655L835.13746875,40.307639239581064L837.3526875,40.27803336522082L839.56790625,40.28746825063885L841.783125,40.32656691077146L843.99834375,40.35537793637987L846.2135625,40.39972849370046L848.42878125,40.42103182125689L850.644,40.37229018955589L852.85921875,40.26138722866273L855.0744375,40.31490751725133L857.28965625,40.42182876480638L859.504875,40.45038333066118L861.72009375,40.44658387260325L863.9353125,40.48701125953606L866.1505312500001,40.53466513737446L868.36575,40.60929036965612L870.58096875,40.68579997557786L872.7961875000001,40.80476672851077L875.01140625,40.92437599779982L877.226625,40.959996539841995L879.4418437500001,40.7724233999794L881.6570625,40.625195716318196L883.87228125,40.50940072446867L886.0875000000001,40.466951813160215L888.30271875,40.479832762395645L890.5179375,40.62350855941493L892.7331562500001,40.788852984159675L894.948375,40.938763069182315L897.16359375,41.0554234451471L899.3788125000001,41.122586876536495L901.59403125,41.091616853705105L903.8092499999999,40.980995922464736L906.02446875,41.019660862194655L908.2396875,40.95940893644523L910.4549062499999,40.858336592641024L912.670125,40.72491906221305L914.88534375,40.593949964854666L917.1005624999999,40.51259846402024L919.31578125,40.494347675519066L921.531,40.51479998104386L923.7462187499999,40.58434580130945L925.9614375,40.92712042786819L928.17665625,41.184537484992426L930.3918749999999,41.202421938627324L932.60709375,41.04909259036143L934.8223125,40.88291342470027L937.0375312499999,40.73629449494465L939.25275,40.6990176027285L941.46796875,40.57840908916394L943.6831875,40.50970151276346L945.89840625,40.464120201176144L948.113625,40.46800386661634L950.32884375,40.44548436495271L952.5440625,40.47467972572211L954.75928125,40.486271382186175L956.9745,40.475046291836094L959.18971875,40.52033245497225L961.4049375,40.48391868074702L963.62015625,40.479631947278754L965.835375,40.61003090786922L968.05059375,40.77123708872788L970.2658125,40.738943158082904L972.48103125,40.68900668769642L974.69625,40.66374222367742L976.91146875,40.68181508976065L979.1266875,40.71342964528707L981.34190625,40.71308876251403L983.557125,40.72011861547961L985.77234375,40.708281038672524L987.9875625,40.68916601089884L990.20278125,40.70070896475459L992.418,40.69066486554709L994.63321875,40.67859630702357" style="fill: none;" fill="none"></path></g><g><path stroke="rgb(187, 187, 187)" stroke-width="2px" d="M110.76093750000001,39.47999820709228L112.97615624999999,39.47999820709232L115.191375,39.52442069734851L117.40659375,40.761286604755085L119.6218125,44.68097417912164L121.83703125,61.655236383744395L124.05225,59.613292206414066L126.26746875,53.979160812232955L128.4826875,48.5565174447673L130.69790625,68.79938945223894L132.913125,58.34312117662937L135.12834375,61.354433827456084L137.3435625,55.277756532963L139.55878125,61.147342706134594L141.774,60.34689523209441L143.98921875,56.86845042555703L146.2044375,58.63512055242021L148.41965625,51.96090448523503L150.63487500000002,51.80083984510007L152.85009375,47.4189019316356L155.0653125,46.52624818210476L157.28053125,44.10653970011281L159.49575,42.28570684945799L161.71096874999998,45.7891150036767L163.9261875,43.26546111022218L166.14140625,41.80639640776535L168.356625,41.49999281212497L170.57184375,42.04339949387824L172.7870625,41.018038601362946L175.00228125,40.44790498210272L177.2175,40.14985871053071L179.43271875,39.88191448783056L181.6479375,39.72114796785832L183.86315625,39.62967234437828L186.07837500000002,39.579699539190756L188.29359375,39.539819005940025L190.50881249999998,39.515890686252824L192.72403125,39.50153369453531L194.93925,39.492919499538914L197.15446874999998,39.48775098255333L199.3696875,39.48464987236641L201.58490625,39.48278920625586L203.800125,39.481672806590105L206.01534375,39.48100296679086L208.2305625,39.480601062911404L210.44578125,39.56017120751502L212.661,39.528102007344685L214.87621875,39.50886048724331L217.0914375,39.55752141624802L219.30665625,39.52651213258545L221.52187500000002,39.50790656238814L223.73709375,39.496743220269764L225.95231249999998,39.49004521499873L228.16753125,39.48602641183618L230.38275,39.48361512993861L232.59796874999998,39.48713471517018L234.8131875,39.484280111939015L237.02840625,39.49249109420199L239.243625,39.49745354171404L241.45884375,39.49047140786534L243.6740625,39.48628212755613L245.88928125,39.48376855937064L248.1045,39.482260418459276L250.31971875000002,39.48135553391248L252.5349375,39.48081260318443L254.75015625,39.48048684474756L256.965375,39.48029138968548L259.18059375,39.48017411664821L261.3958125,39.48010375282583L263.61103125,39.48006153453238L265.82625,39.480036203556345L268.04146875,39.48002100497072L270.2566875,39.48001188581933L272.47190625,39.48000641432855L274.687125,39.480003131434046L276.90234375,39.480001161697366L279.1175625,39.47999997985532L281.33278125,39.47999927075012L283.548,39.479998845287L285.76321875,39.4799985900091L287.9784375,39.47999843684239L290.19365625,39.47999834494234L292.408875,39.47999828980231L294.62409375000004,39.4799982567183L296.8393125,39.47999823686788L299.05453125,39.47999822495766L301.26975000000004,39.47999821781153L303.48496875,39.479998213523835L305.7001875,39.47999821095121L307.91540625000005,39.479998209407626L310.130625,39.47999820848149L312.34584375,39.47999820792583L314.5610625,39.479998207592416L316.77628124999995,39.47999820739238L318.9915,39.47999820727236L321.20671875,39.47999820720035L323.42193749999996,39.479998207157145L325.63715625,39.479998207131224L327.852375,39.479998207115656L330.06759374999996,39.479998207106306" style="fill: none;" fill="none"></path></g><g><path stroke="rgb(0, 153, 136)" stroke-width="2px" d="M119.6218125,382.0611763641799L121.83703125,362.7228764778409L124.05225,310.7226350976334L126.26746875,320.00041795748365L128.4826875,321.5885268288383L130.69790625,289.58882194221013L132.913125,307.1462581377773L135.12834375,277.93650943579865L137.3435625,282.53558342231406L139.55878125,283.9266272785117L141.774,238.58441093725446L143.98921875,214.62038964963918L146.2044375,187.1475596774094L148.41965625,156.91747919058602L150.63487500000002,144.60181590483566L152.85009375,109.36865092616492L155.0653125,122.97439795984695L157.28053125,114.56545655515612L159.49575,97.10991591997572L161.71096874999998,95.67169552950715L163.9261875,80.08208661294043L166.14140625,73.00955068669654L168.356625,67.5558408351422L170.57184375,79.32997821558486L172.7870625,69.31324759714157L175.00228125,99.72997669071155L177.2175,79.87839403338722L179.43271875,65.99669077177758L181.6479375,61.216085066082044L183.86315625,55.573797644653624L186.07837500000002,58.485933071057936L188.29359375,52.0202356563769L190.50881249999998,47.9546865346815L192.72403125,47.544704505040954L194.93925,45.42216842430893L197.15446874999998,46.215699050641234L199.3696875,44.41657271110731L201.58490625,49.42707551078947L203.800125,45.69735118613407L206.01534375,44.38781249062836L208.2305625,42.598043023976125L210.44578125,41.57804925639971L212.661,40.88849180814755L214.87621875,40.52064681217519L217.0914375,40.281203928976666L219.30665625,40.112598852745954L221.52187500000002,39.9937487724014L223.73709375,39.961129672681494L225.95231249999998,39.82891878566427L228.16753125,39.912020727880616L230.38275,40.02500120931147L232.59796874999998,40.09861644824315L234.8131875,39.99112352800347L237.02840625,39.846457907390416L239.243625,39.7693940239142L241.45884375,39.7393725441093L243.6740625,39.67038728989326L245.88928125,39.609157613499L248.1045,39.567453453292266L250.31971875000002,39.54243095716823L252.5349375,39.59320820809002L254.75015625,39.63383138084764L256.965375,39.68317152443146L259.18059375,39.702780150071476L261.3958125,39.71383712690814L263.61103125,39.7481538081273L265.82625,39.75871249819423L268.04146875,39.73248850813281L270.2566875,39.70121856874686L272.47190625,39.647772805371666L274.687125,39.59557099370883L276.90234375,39.5543261625095L279.1175625,39.524594980342634L281.33278125,39.506756271042505L283.548,39.49605304546244L285.76321875,39.489631110114374L287.9784375,39.48577794890553L290.19365625,39.483466052180255L292.408875,39.48207891414507L294.62409375000004,39.48124663132397L296.8393125,39.480747261631315L299.05453125,39.48044763981571L301.26975000000004,39.48026786672634L303.48496875,39.48016000287273L305.7001875,39.48009528456054L307.91540625000005,39.480056453573226L310.130625,39.480033154980845L312.34584375,39.48001917582542L314.5610625,39.48001078833217L316.77628124999995,39.4800057558362L318.9915,39.48000273633863L321.20671875,39.4800009246401L323.42193749999996,39.47999983762097L325.63715625,39.47999918540948L327.852375,39.479998794082626L330.06759374999996,39.479998559286486" style="fill: none;" fill="none"></path></g><g><path stroke="rgb(51, 187, 238)" stroke-width="2px" d="M110.76093750000001,122.85446510314941L112.97615624999999,126.52397290468215L115.191375,127.41770109643744L117.40659375,127.25711643415339L119.6218125,127.1272380695171L121.83703125,129.60316996349042L124.05225,131.00167549592143L126.26746875,130.32471864005262L128.4826875,134.81062136670977L130.69790625,131.19674406259915L132.913125,135.95176617624722L135.12834375,133.85070153842435L137.3435625,140.09929418454524L139.55878125,135.62123707273207L141.774,142.30572569732743L143.98921875,137.56433262154442L146.2044375,145.49372406449808L148.41965625,139.47962446334913L150.63487500000002,143.94782405934265L152.85009375,147.927229058596L155.0653125,153.20946505294606L157.28053125,151.0708579448241L159.49575,160.08891742902236L161.71096874999998,156.09837209891984L163.9261875,168.06005332235918L166.14140625,161.1759851552382L168.356625,168.8520225182188L170.57184375,163.11001010991671L172.7870625,164.12825928689475L175.00228125,179.66640568537738L177.2175,175.61386631117998L179.43271875,168.7333856148463L181.6479375,184.42975421774437L183.86315625,171.71043513588867L186.07837500000002,172.8194753645144L188.29359375,161.8053068549818L190.50881249999998,156.74961630978953L192.72403125,142.31183870961942L194.93925,151.7266842022525L197.15446874999998,146.8107393279515L199.3696875,167.67203573081227L201.58490625,148.1321883709177L203.800125,169.9797149453627L206.01534375,147.8510860282033L208.2305625,185.03352134124594L210.44578125,159.90933193465037L212.661,170.49253790477755L214.87621875,149.61665582192666L217.0914375,165.12484334688054L219.30665625,145.15021923275933L221.52187500000002,187.14812107995937L223.73709375,157.94671627582036L225.95231249999998,183.48681928580046L228.16753125,154.25439915811958L230.38275,181.46942877864132L232.59796874999998,156.85840291079117L234.8131875,186.8615446609102L237.02840625,156.51852481137354L239.243625,182.71681560856695L241.45884375,155.45548918355925L243.6740625,183.34904523437956L245.88928125,154.9899550565818L248.1045,187.66174689106612L250.31971875000002,156.40557917101646L252.5349375,196.26084841813736L254.75015625,172.9968975777989L256.965375,197.26607614967617L259.18059375,160.75966842540137L261.3958125,175.70057038049717L263.61103125,147.75156213033688L265.82625,178.00169090979395L268.04146875,157.38385912748035L270.2566875,187.39158184153945L272.47190625,177.69744971527524L274.687125,197.3186509700648L276.90234375,202.45253476691434L279.1175625,204.46771650071258L281.33278125,174.46436406943386L283.548,181.2405075560402L285.76321875,181.33315497460313L287.9784375,200.62321427000964L290.19365625,188.58675742705705L292.408875,205.44165276861216L294.62409375000004,181.6156985627176L296.8393125,165.24917419591912L299.05453125,184.2179966821633L301.26975000000004,163.26904038753284L303.48496875,187.1580415878664L305.7001875,176.4999313446266L307.91540625000005,192.44122604920761L310.130625,164.03031698938784L312.34584375,193.74425701187L314.5610625,158.06337992123332L316.77628124999995,200.3253723512385L318.9915,177.57562658609712L321.20671875,190.59107701672175L323.42193749999996,180.6573470538441L325.63715625,179.67863144550225L327.852375,163.82603895946446L330.06759374999996,152.67118493726312L332.2828125,159.02205266005075" style="fill: none;" fill="none"></path></g></g></g></g><g opacity="0.2"><g><g><g><path stroke="rgb(255, 112, 67)" stroke-width="2px" d="M110.76093750000001,412.58490432649853L112.97615624999999,290.04504809379574L115.191375,302.0177048206329L117.40659375,280.72899875640866L119.6218125,213.96824226379394L121.83703125,137.00270328521728L124.05225,126.58281669616699L126.26746875,98.4651156425476L128.4826875,83.14034900665283L130.69790625,93.13845405578613L132.913125,68.15614519119262L135.12834375,78.1793957710266L137.3435625,67.75428733825683L139.55878125,64.68054876327514L141.774,61.26353559494018L143.98921875,58.40102396011352L146.2044375,58.19835815429687L148.41965625,61.85028705596923L150.63487500000002,56.53261241912841L152.85009375,52.307423686981195L155.0653125,54.60671577453613L157.28053125,51.485577201843256L159.49575,52.34971389770507L161.71096874999998,52.01383504867553L163.9261875,50.567698097229L166.14140625,48.78373250961303L168.356625,49.9787727355957L170.57184375,52.966317272186274L172.7870625,49.92671117782592L175.00228125,48.142342185974115L177.2175,47.18392095565795L179.43271875,46.88916692733764L181.6479375,45.96189746856689L183.86315625,47.97728261947631L186.07837500000002,47.24373683929443L188.29359375,47.65496263504028L190.50881249999998,46.37825546264648L192.72403125,46.27195844650268L194.93925,46.689705944061274L197.15446874999998,45.06013212203979L199.3696875,45.37626657485961L201.58490625,43.826835727691645L203.800125,45.2178183555603L206.01534375,45.81357917785644L208.2305625,46.158288097381586L210.44578125,44.27205953598022L212.661,42.18755779266357L214.87621875,43.81220111846923L217.0914375,43.656935310363764L219.30665625,43.819081401824945L221.52187500000002,44.38492307662963L223.73709375,46.61899814605712L225.95231249999998,43.665541267395014L228.16753125,42.76740655899047L230.38275,42.93338499069213L232.59796874999998,43.755971050262445L234.8131875,42.56270132064819L237.02840625,42.31245622634887L239.243625,44.31892166137695L241.45884375,42.57457933425903L243.6740625,44.15731344223022L245.88928125,43.05312881469726L248.1045,43.169869518280024L250.31971875000002,43.29642639160156L252.5349375,42.43957338333129L254.75015625,41.72447214126586L256.965375,42.15887126922607L259.18059375,42.56404600143432L261.3958125,41.436239814758295L263.61103125,41.19619188308715L265.82625,42.073528861999506L268.04146875,41.4218069076538L270.2566875,41.59002647399902L272.47190625,42.884707546234125L274.687125,41.71196660995483L276.90234375,41.139356708526606L279.1175625,40.714997863769526L281.33278125,41.73177824020385L283.548,41.10621032714843L285.76321875,40.86127672195434L287.9784375,41.33254251480102L290.19365625,41.965730285644526L292.408875,41.270664787292475L294.62409375000004,41.514298534393305L296.8393125,40.12699136734008L299.05453125,41.11481628417968L301.26975000000004,40.772169208526606L303.48496875,40.938057994842524L305.7001875,40.83682594299316L307.91540625000005,40.853298282623285L310.130625,40.87384948730468L312.34584375,40.567441558837885L314.5610625,40.78494367599487L316.77628124999995,40.402964687347406L318.9915,40.60096893310546L321.20671875,40.587768650054926L323.42193749999996,40.15664157867431L325.63715625,40.18048725128173L327.852375,40.244337177276606L330.06759374999996,40.27275476455688L332.2828125,40.26408157348632L334.49803125,40.59296808242797L336.71325,40.723200416564936L338.92846875,40.54689035415649L341.1436875,41.031513309478754L343.35890625,40.30755958557128L345.574125,41.40874109268188L347.78934375,40.93400154113769L350.0045625,41.493052577972406L352.21978125,40.72611389160156L354.435,40.64451417922973L356.65021875,40.62983474731445L358.8654375,40.46439418792724L361.08065625,40.68290481567382L363.295875,40.737947082519526L365.51109375000004,41.20345315933227L367.7263125,40.43028411865234L369.94153125,40.94377288818359L372.15675000000005,40.481628513336176L374.37196875,40.53732070922851L376.5871875,40.72978935241699L378.80240625000005,40.44899759292602L381.01762499999995,40.080779170989985L383.23284375,40.583689785003656L385.4480625,40.784652328491205L387.66328124999995,40.759394741058344L389.8785,40.01820669174194L392.09371875,40.03324470520019L394.30893749999996,40.13992271423339L396.52415625,39.87098655700683L398.739375,40.008905982971186L400.95459375,40.00592527389526L403.1698125,40.020940876007074L405.38503125,40.147609806060785L407.60025,40.725620841979975L409.81546875,39.865025138854975L412.0306875,39.68974599838256L414.24590625,39.65740642547607L416.461125,39.70610628128051L418.67634375,39.8605652809143L420.8915625,39.88190088272094L423.10678125,39.800861454010004L425.322,40.03743562698364L427.53721875,40.28987703323364L429.7524375,39.86354598999023L431.96765625,39.936943149566645L434.182875,39.912783718109125L436.39809375000004,39.803618049621576L438.6133125,39.952541446685785L440.82853125,39.70200500488281L443.04375000000005,40.013029670715326L445.25896875,40.19016895294189L447.4741875,39.89115676879882L449.68940625000005,39.69344387054443L451.90462499999995,39.7032600402832L454.11984375,39.84012613296508L456.3350625,39.75424585342407L458.55028124999995,39.6593786239624L460.7655,39.57188472747802L462.98071875,39.56746969223022L465.19593749999996,39.675492382049555L467.41115625,39.78526315689086L469.626375,40.024862861633295L471.84159375,39.88952074050903L474.0568125,39.8440481185913L476.27203125,39.8541332244873L478.48725,39.94297180175781L480.70246875,40.11825094223022L482.9176875,40.133826828002924L485.13290625,39.958637332916254L487.348125,39.764465427398676L489.56334375,39.80234060287475L491.7785625,39.79586372375488L493.99378125,39.73627195358276L496.209,39.993509387969965L498.42421875,40.386268234252924L500.63943750000004,40.00955591201782L502.85465625,39.65796670913696L505.069875,39.59469947814941L507.28509375000004,39.77284727096557L509.5003125,39.73772869110107L511.71553125,40.00635108947753L513.93075,39.726724720001215L516.1459687500001,39.6927939414978L518.3611875,40.04671392440795L520.57640625,40.04747591018676L522.791625,39.93389520645141L525.00684375,40.17907533645629L527.2220625,39.809669113159174L529.43728125,39.789431667327875L531.6525,39.67195138931274L533.86771875,39.69319734573364L536.0829375,39.96661577224731L538.29815625,40.708364105224604L540.513375,40.36556015014648L542.72859375,40.73913488388061L544.9438125,40.87514934539794L547.15903125,41.59264860153198L549.37425,42.13816318511962L551.58946875,42.10380659103393L553.8046875,41.49285087585449L556.01990625,39.9513536453247L558.235125,39.685555076599115L560.45034375,39.88945350646972L562.6655625,39.99288187026977L564.88078125,40.185552215576166L567.096,40.31910142898559L569.31121875,41.18005571365356L571.5264375,40.86856040954589L573.74165625,39.85101804733276L575.956875,39.718477344512934L578.17209375,40.00471506118774L580.3873125,40.31576213836669L582.60253125,39.776343441009516L584.81775,39.87224159240722L587.03296875,39.89091024398803L589.2481875000001,39.76249322891235L591.46340625,39.82423648834228L593.678625,39.7957516670227L595.8938437500001,39.86569747924804L598.1090625,39.855567550659174L600.32428125,39.72871932983398L602.5395000000001,39.666438198089594L604.75471875,39.68994770050048L606.9699375,39.68165550231933L609.1851562500001,39.678405857086176L611.400375,39.95312414169311L613.61559375,39.68804273605346L615.8308125000001,40.25749263763427L618.04603125,40.15000782012939L620.26125,39.795012092590326L622.4764687500001,39.87105379104614L624.6916875,39.646761035919184L626.9069062499999,39.810475921630854L629.122125,39.96807250976562L631.33734375,40.15534172058105L633.5525624999999,39.795012092590326L635.76778125,39.523812389373774L637.983,39.543691253662104L640.1982187499999,39.61988983154296L642.4134375,39.722645854949945L644.62865625,39.73676500320434L646.8438749999999,40.221141433715815L649.05909375,39.88512811660766L651.2743125,40.18127164840698L653.4895312499999,40.57801971435546L655.70475,41.20869741439819L657.91996875,40.30011901855468L660.1351874999999,40.17860469818115L662.35040625,40.19855079650878L664.565625,40.03232583999633L666.78084375,39.97739562988281L668.9960625,39.96822938919067L671.21128125,39.968251800537104L673.4265,39.6233187675476L675.64171875,39.75207195281982L677.8569375,39.81654939651489L680.07215625,40.03373775482177L682.287375,39.95404300689697L684.50259375,39.823205566406244L686.7178125,39.67748699188232L688.93303125,39.65689096450805L691.14825,40.31056270599365L693.36346875,39.85104045867919L695.5786875,40.0381079673767L697.79390625,40.53026113510131L700.009125,40.400701141357416L702.22434375,39.996579742431635L704.4395625,40.28597745895385L706.65478125,40.065584278106684L708.87,40.42205915451049L711.08521875,40.460046386718744L713.3004375,40.53077659606933L715.51565625,40.99419841766357L717.730875,40.53073177337646L719.94609375,40.2581425666809L722.1613125,40.415246105194086L724.3765312500001,40.621945953369135L726.59175,40.87465629577636L728.80696875,40.22185859680175L731.0221875000001,40.157022571563715L733.23740625,40.39518795013427L735.452625,40.05919704437255L737.6678437500001,40.00540981292724L739.8830625,40.31231079101562L742.09828125,40.61791191101074L744.3135000000001,40.35079107284545L746.52871875,39.955006694793695L748.7439375,40.19958171844482L750.9591562500001,39.99241123199462L753.174375,40.02497491836547L755.38959375,40.36495504379272L757.6048125000001,40.417509651184076L759.82003125,40.210271930694574L762.0352499999999,40.464416599273676L764.25046875,40.35242710113525L766.4656875,40.075243568420404L768.6809062499999,40.064979171752924L770.896125,40.130958175659174L773.11134375,40.17315874099731L775.3265624999999,40.4569312095642L777.54178125,40.326833343505854L779.757,40.292050933837885L781.9722187499999,40.252024269104L784.1874375,40.194718456268305L786.40265625,40.00467023849487L788.6178749999999,40.44491872787475L790.83309375,40.88357601165771L793.0483125,39.992500877380365L795.2635312499999,40.25157604217529L797.47875,40.50128326416015L799.69396875,41.31766138076782L801.9091875,40.95296154022216L804.12440625,40.60823020935058L806.339625,40.62781772613525L808.55484375,40.55791673660278L810.7700625,40.555810070037836L812.98528125,40.38826284408569L815.2005,40.38768014907836L817.41571875,40.36495504379272L819.6309375,40.36092100143432L821.84615625,40.5436182975769L824.061375,39.8487769126892L826.27659375,39.87786684036254L828.4918125,39.7924123764038L830.70703125,40.14895448684692L832.92225,40.867439842224115L835.13746875,40.21408185958862L837.3526875,40.233624553680414L839.56790625,40.30162057876586L841.783125,40.38521490097045L843.99834375,40.398594474792475L846.2135625,40.46625432968139L848.42878125,40.45298681259155L850.644,40.29917774200439L852.85921875,40.09503278732299L855.0744375,40.39518795013427L857.28965625,40.58221063613891L859.504875,40.493215179443354L861.72009375,40.44088468551635L863.9353125,40.5476523399353L866.1505312500001,40.606145954132074L868.36575,40.72122821807861L870.58096875,40.80056438446044L872.7961875000001,40.98321685791015L875.01140625,41.10378990173339L877.226625,41.01342735290527L879.4418437500001,40.49106369018554L881.6570625,40.40435419082641L883.87228125,40.33570823669433L886.0875000000001,40.403278446197504L888.30271875,40.499154186248774L890.5179375,40.83902225494384L892.7331562500001,41.03686962127685L894.948375,41.1636281967163L897.16359375,41.23041400909423L899.3788125000001,41.2233320236206L901.59403125,41.045161819458L903.8092499999999,40.81506452560424L906.02446875,41.077658271789545L908.2396875,40.86903104782104L910.4549062499999,40.70672807693481L912.670125,40.52479276657104L914.88534375,40.39749631881713L917.1005624999999,40.39057121276855L919.31578125,40.46697149276733L921.531,40.54547843933105L923.7462187499999,40.68866453170776L925.9614375,41.44128236770629L928.17665625,41.570663070678705L930.3918749999999,41.229248619079584L932.60709375,40.81909856796264L934.8223125,40.63364467620849L937.0375312499999,40.516366100311274L939.25275,40.64310226440429L941.46796875,40.39749631881713L943.6831875,40.406640148162836L945.89840625,40.39574823379516L948.113625,40.473829364776606L950.32884375,40.41170511245727L952.5440625,40.518472766876215L954.75928125,40.50365886688232L956.9745,40.45820865631103L959.18971875,40.58826169967651L961.4049375,40.429298019409174L963.62015625,40.47320184707641L965.835375,40.80562934875488L968.05059375,41.01304636001586L970.2658125,40.69050226211547L972.48103125,40.61410198211669L974.69625,40.62584552764892L976.91146875,40.70892438888549L979.1266875,40.760851478576654L981.34190625,40.71257743835449L983.557125,40.73066339492797L985.77234375,40.69052467346191L987.9875625,40.660493469238276L990.20278125,40.718023395538324L992.418,40.675598716735834L994.63321875,40.660493469238276" style="fill: none;" fill="none"></path></g><g><path stroke="rgb(187, 187, 187)" stroke-width="2px" d="M110.76093750000001,39.47999820709228L112.97615624999999,39.47999820709228L115.191375,39.56706628799438L117.40659375,42.21584091186523L119.6218125,49.798518276214594L121.83703125,85.13675174713134L124.05225,56.69327936172485L126.26746875,45.76454315185546L128.4826875,40.55917177200317L130.69790625,98.85769519805908L132.913125,42.753556346893305L135.12834375,65.85501537322997L137.3435625,46.18258199691772L139.55878125,69.94022283554077L141.774,59.14716491699218L143.98921875,51.65323648452758L146.2044375,61.28437814712524L148.41965625,41.9512749671936L150.63487500000002,51.560767269134516L152.85009375,40.84639558792114L155.0653125,45.18731651306152L157.28053125,40.477056598663324L159.49575,39.55449352264404L161.71096874999998,51.04418573379516L163.9261875,39.47999820709228L166.14140625,39.61780557632446L168.356625,41.04038820266723L170.57184375,42.85850868225097L172.7870625,39.47999820709228L175.00228125,39.592704868316645L177.2175,39.70278940200805L179.43271875,39.47999820709228L181.6479375,39.47999820709228L183.86315625,39.49245891571044L186.07837500000002,39.50474033355712L188.29359375,39.47999820709228L190.50881249999998,39.47999820709228L192.72403125,39.47999820709228L194.93925,39.47999820709228L197.15446874999998,39.47999820709228L199.3696875,39.47999820709228L201.58490625,39.47999820709228L203.800125,39.47999820709228L206.01534375,39.47999820709228L208.2305625,39.47999820709228L210.44578125,39.67952642440795L212.661,39.47999820709228L214.87621875,39.47999820709228L217.0914375,39.63051280975341L219.30665625,39.47999820709228L221.52187500000002,39.47999820709228L223.73709375,39.47999820709228L225.95231249999998,39.47999820709228L228.16753125,39.47999820709228L230.38275,39.47999820709228L232.59796874999998,39.49241409301757L234.8131875,39.47999820709228L237.02840625,39.50480756759643L239.243625,39.50489721298217L241.45884375,39.47999820709228L243.6740625,39.47999820709228L245.88928125,39.47999820709228L248.1045,39.47999820709228L250.31971875000002,39.47999820709228L252.5349375,39.47999820709228L254.75015625,39.47999820709228L256.965375,39.47999820709228L259.18059375,39.47999820709228L261.3958125,39.47999820709228L263.61103125,39.47999820709228L265.82625,39.47999820709228L268.04146875,39.47999820709228L270.2566875,39.47999820709228L272.47190625,39.47999820709228L274.687125,39.47999820709228L276.90234375,39.47999820709228L279.1175625,39.47999820709228L281.33278125,39.47999820709228L283.548,39.47999820709228L285.76321875,39.47999820709228L287.9784375,39.47999820709228L290.19365625,39.47999820709228L292.408875,39.47999820709228L294.62409375000004,39.47999820709228L296.8393125,39.47999820709228L299.05453125,39.47999820709228L301.26975000000004,39.47999820709228L303.48496875,39.47999820709228L305.7001875,39.47999820709228L307.91540625000005,39.47999820709228L310.130625,39.47999820709228L312.34584375,39.47999820709228L314.5610625,39.47999820709228L316.77628124999995,39.47999820709228L318.9915,39.47999820709228L321.20671875,39.47999820709228L323.42193749999996,39.47999820709228L325.63715625,39.47999820709228L327.852375,39.47999820709228L330.06759374999996,39.47999820709228" style="fill: none;" fill="none"></path></g><g><path stroke="rgb(0, 153, 136)" stroke-width="2px" d="M117.40659375,407.12087344229224L119.6218125,345.4765832185745L121.83703125,335.97104594707486L124.05225,236.36145792007446L126.26746875,333.52751443386074L128.4826875,323.9306789398193L130.69790625,242.07298955917358L132.913125,333.3231677770614L135.12834375,234.28084454536437L137.3435625,289.41917762756344L139.55878125,286.01046786308285L141.774,170.62438449859619L143.98921875,178.69125900268554L146.2044375,145.9499402999878L148.41965625,111.58003387451171L150.63487500000002,126.13019714355468L152.85009375,56.522123908996576L155.0653125,143.38227233886718L157.28053125,101.9523211479187L159.49575,70.92694959640502L161.71096874999998,93.51438198089599L163.9261875,56.69778404235839L166.14140625,62.40077695846557L168.356625,59.37529001235961L170.57184375,96.99116621017455L172.7870625,54.288160896301264L175.00228125,145.35505352020263L177.2175,50.101026630401606L179.43271875,45.174138641357416L181.6479375,54.045177078247065L183.86315625,47.11036691665649L186.07837500000002,62.85413608551025L188.29359375,42.32168970108032L190.50881249999998,41.85636291503906L192.72403125,46.92973146438598L194.93925,42.23836431503295L197.15446874999998,47.40599498748779L199.3696875,41.71788320541381L201.58490625,56.94282970428466L203.800125,40.102764701843256L206.01534375,42.423504447937006L208.2305625,39.913388824462885L210.44578125,40.048058605194086L212.661,39.854155635833735L214.87621875,39.9688793182373L217.0914375,39.922039604187006L219.30665625,39.859691238403315L221.52187500000002,39.81547365188598L223.73709375,39.9122010231018L225.95231249999998,39.630602455139154L228.16753125,40.03667364120483L230.38275,40.194471931457514L232.59796874999998,40.20903930664062L234.8131875,39.82988414764404L237.02840625,39.62945947647094L239.243625,39.653798198699945L241.45884375,39.69434032440185L243.6740625,39.56690940856933L245.88928125,39.517313098907465L248.1045,39.50489721298217L250.31971875000002,39.50489721298217L252.5349375,39.66937408447265L254.75015625,39.694766139984125L256.965375,39.75718173980712L259.18059375,39.73219308853149L261.3958125,39.73042259216308L263.61103125,39.79962882995605L265.82625,39.77455053329467L268.04146875,39.693152523040766L270.2566875,39.65431365966796L272.47190625,39.56760416030883L274.687125,39.517268276214594L276.90234375,39.49245891571044L279.1175625,39.47999820709228L281.33278125,39.47999820709228L283.548,39.47999820709228L285.76321875,39.47999820709228L287.9784375,39.47999820709228L290.19365625,39.47999820709228L292.408875,39.47999820709228L294.62409375000004,39.47999820709228L296.8393125,39.47999820709228L299.05453125,39.47999820709228L301.26975000000004,39.47999820709228L303.48496875,39.47999820709228L305.7001875,39.47999820709228L307.91540625000005,39.47999820709228L310.130625,39.47999820709228L312.34584375,39.47999820709228L314.5610625,39.47999820709228L316.77628124999995,39.47999820709228L318.9915,39.47999820709228L321.20671875,39.47999820709228L323.42193749999996,39.47999820709228L325.63715625,39.47999820709228L327.852375,39.47999820709228L330.06759374999996,39.47999820709228" style="fill: none;" fill="none"></path></g><g><path stroke="rgb(51, 187, 238)" stroke-width="2px" d="M110.76093750000001,122.85446510314941L112.97615624999999,128.7256775856018L115.191375,128.27568016052246L117.40659375,127.06826887130737L119.6218125,126.95766887664794L121.83703125,133.0282751083374L124.05225,133.00156078338622L126.26746875,129.33770904541015L128.4826875,141.42645654678344L130.69790625,125.83055744171142L132.913125,143.04117164611816L135.12834375,130.710538482666L137.3435625,149.4517804145813L139.55878125,128.9129243850708L141.774,152.3246012687683L143.98921875,130.45558700561523L146.2044375,157.3844557762146L148.41965625,130.46000204086303L150.63487500000002,150.64944276809692L152.85009375,153.89597282409667L155.0653125,161.13252935409545L157.28053125,147.86301765441894L159.49575,173.61582860946655L161.71096874999998,150.11260137557983L163.9261875,186.00249013900756L166.14140625,150.84991226196288L168.356625,180.36605892181396L170.57184375,154.49700031280517L172.7870625,165.6556321144104L175.00228125,202.97361669540405L177.2175,169.53505859375L179.43271875,158.41266593933105L181.6479375,207.9743052482605L183.86315625,152.6314574241638L186.07837500000002,174.48303565979003L188.29359375,145.28405437469482L190.50881249999998,149.16608057022094L192.72403125,120.65517244338989L194.93925,165.84895238876342L197.15446874999998,139.43682203292846L199.3696875,198.96398029327392L201.58490625,118.82241735458373L203.800125,202.75100479125976L206.01534375,114.65814266204833L208.2305625,240.80717430114746L210.44578125,122.22304782867431L212.661,186.36734685897827L214.87621875,118.30283269882202L217.0914375,188.38712463378906L219.30665625,115.1882830619812L221.52187500000002,250.14497385025024L223.73709375,114.14460906982421L225.95231249999998,221.79697380065917L228.16753125,110.4057689666748L230.38275,222.2919732093811L232.59796874999998,119.9418641090393L234.8131875,231.86625728607177L237.02840625,111.00399503707885L239.243625,222.0142518043518L241.45884375,114.56349954605102L243.6740625,225.1893793106079L245.88928125,112.45131978988647L248.1045,236.66943464279174L250.31971875000002,109.52132759094238L252.5349375,256.0437522888183L254.75015625,138.10097131729125L256.965375,233.66984400749206L259.18059375,106.00005683898925L261.3958125,198.11192331314086L263.61103125,105.82804975509643L265.82625,223.3768840789795L268.04146875,126.45711145401L270.2566875,232.40316591262817L272.47190625,163.1562515258789L274.687125,226.75045285224914L276.90234375,210.15336046218872L279.1175625,207.4904891014099L281.33278125,129.45933542251586L283.548,191.4047227859497L285.76321875,181.4721261024475L287.9784375,229.5583032131195L290.19365625,170.53207216262817L292.408875,230.72399578094482L294.62409375000004,145.87676725387573L296.8393125,140.69938764572143L299.05453125,212.67123041152954L301.26975000000004,131.84560594558715L303.48496875,222.9915433883667L305.7001875,160.51276597976684L307.91540625000005,216.3531681060791L310.130625,121.4139533996582L312.34584375,238.31516704559326L314.5610625,104.54206428527831L316.77628124999995,263.7183609962463L318.9915,143.451007938385L321.20671875,210.11425266265869L323.42193749999996,165.75675210952758L325.63715625,178.2105580329895L327.852375,140.0471502304077L330.06759374999996,135.93890390396118L332.2828125,168.54835424423217" style="fill: none;" fill="none"></path></g></g></g></g></g></g><g transform="translate(42, 376)" clip-path="url(#clip_1)"><clipPath id="clip_1"><rect width="1107" height="24"></rect></clipPath><g><g><line x1="0" y1="0" x2="0" y2="5" style="visibility: inherit;" fill="rgb(0, 0, 0)" stroke="rgb(204, 204, 204)" stroke-width="1px"></line><line x1="110.76093750000001" y1="0" x2="110.76093750000001" y2="5" style="visibility: inherit;" fill="rgb(0, 0, 0)" stroke="rgb(204, 204, 204)" stroke-width="1px"></line><line x1="221.52187500000002" y1="0" x2="221.52187500000002" y2="5" style="visibility: inherit;" fill="rgb(0, 0, 0)" stroke="rgb(204, 204, 204)" stroke-width="1px"></line><line x1="332.2828125" y1="0" x2="332.2828125" y2="5" style="visibility: inherit;" fill="rgb(0, 0, 0)" stroke="rgb(204, 204, 204)" stroke-width="1px"></line><line x1="443.04375000000005" y1="0" x2="443.04375000000005" y2="5" style="visibility: inherit;" fill="rgb(0, 0, 0)" stroke="rgb(204, 204, 204)" stroke-width="1px"></line><line x1="553.8046875" y1="0" x2="553.8046875" y2="5" style="visibility: inherit;" fill="rgb(0, 0, 0)" stroke="rgb(204, 204, 204)" stroke-width="1px"></line><line x1="664.565625" y1="0" x2="664.565625" y2="5" style="visibility: inherit;" fill="rgb(0, 0, 0)" stroke="rgb(204, 204, 204)" stroke-width="1px"></line><line x1="775.3265624999999" y1="0" x2="775.3265624999999" y2="5" style="visibility: inherit;" fill="rgb(0, 0, 0)" stroke="rgb(204, 204, 204)" stroke-width="1px"></line><line x1="886.0875000000001" y1="0" x2="886.0875000000001" y2="5" style="visibility: inherit;" fill="rgb(0, 0, 0)" stroke="rgb(204, 204, 204)" stroke-width="1px"></line><line x1="996.8484375" y1="0" x2="996.8484375" y2="5" style="visibility: inherit;" fill="rgb(0, 0, 0)" stroke="rgb(204, 204, 204)" stroke-width="1px"></line><line x1="1107.609375" y1="0" x2="1107.609375" y2="5" style="visibility: inherit;" fill="rgb(0, 0, 0)" stroke="rgb(204, 204, 204)" stroke-width="1px"></line></g><g transform="translate(0, 8)"><text x="0" y="0" dx="0em" dy="0.95em" style="text-anchor: middle; visibility: hidden; font-family: Roboto, sans-serif; font-size: 12px; font-weight: 200;" fill="rgb(33, 33, 33)" stroke="none" stroke-width="1px">-50</text><text x="110.76093750000001" y="0" dx="0em" dy="0.95em" style="text-anchor: middle; visibility: inherit; font-family: Roboto, sans-serif; font-size: 12px; font-weight: 200;" fill="rgb(33, 33, 33)" stroke="none" stroke-width="1px">0</text><text x="221.52187500000002" y="0" dx="0em" dy="0.95em" style="text-anchor: middle; visibility: inherit; font-family: Roboto, sans-serif; font-size: 12px; font-weight: 200;" fill="rgb(33, 33, 33)" stroke="none" stroke-width="1px">50</text><text x="332.2828125" y="0" dx="0em" dy="0.95em" style="text-anchor: middle; visibility: inherit; font-family: Roboto, sans-serif; font-size: 12px; font-weight: 200;" fill="rgb(33, 33, 33)" stroke="none" stroke-width="1px">100</text><text x="443.04375000000005" y="0" dx="0em" dy="0.95em" style="text-anchor: middle; visibility: inherit; font-family: Roboto, sans-serif; font-size: 12px; font-weight: 200;" fill="rgb(33, 33, 33)" stroke="none" stroke-width="1px">150</text><text x="553.8046875" y="0" dx="0em" dy="0.95em" style="text-anchor: middle; visibility: inherit; font-family: Roboto, sans-serif; font-size: 12px; font-weight: 200;" fill="rgb(33, 33, 33)" stroke="none" stroke-width="1px">200</text><text x="664.565625" y="0" dx="0em" dy="0.95em" style="text-anchor: middle; visibility: inherit; font-family: Roboto, sans-serif; font-size: 12px; font-weight: 200;" fill="rgb(33, 33, 33)" stroke="none" stroke-width="1px">250</text><text x="775.3265624999999" y="0" dx="0em" dy="0.95em" style="text-anchor: middle; visibility: inherit; font-family: Roboto, sans-serif; font-size: 12px; font-weight: 200;" fill="rgb(33, 33, 33)" stroke="none" stroke-width="1px">300</text><text x="886.0875000000001" y="0" dx="0em" dy="0.95em" style="text-anchor: middle; visibility: inherit; font-family: Roboto, sans-serif; font-size: 12px; font-weight: 200;" fill="rgb(33, 33, 33)" stroke="none" stroke-width="1px">350</text><text x="996.8484375" y="0" dx="0em" dy="0.95em" style="text-anchor: middle; visibility: inherit; font-family: Roboto, sans-serif; font-size: 12px; font-weight: 200;" fill="rgb(33, 33, 33)" stroke="none" stroke-width="1px">400</text><text x="1107.609375" y="0" dx="0em" dy="0.95em" style="text-anchor: middle; visibility: hidden; font-family: Roboto, sans-serif; font-size: 12px; font-weight: 200;" fill="rgb(33, 33, 33)" stroke="none" stroke-width="1px">450</text></g><line x1="0" y1="0" x2="1107.609375" y2="0" fill="rgb(0, 0, 0)" stroke="rgb(204, 204, 204)" stroke-width="1px"></line></g></g></g></g></svg>