<svg viewBox="0 0 1150 400" xmlns="http://www.w3.org/2000/svg"><g><g><g><g><g><line x1="53.1875" y1="376" x2="48.1875" y2="376" style="visibility: inherit;" fill="rgb(0, 0, 0)" stroke="rgb(204, 204, 204)" stroke-width="1px"></line><line x1="53.1875" y1="344.66666666666663" x2="48.1875" y2="344.66666666666663" style="visibility: inherit;" fill="rgb(0, 0, 0)" stroke="rgb(204, 204, 204)" stroke-width="1px"></line><line x1="53.1875" y1="313.33333333333337" x2="48.1875" y2="313.33333333333337" style="visibility: inherit;" fill="rgb(0, 0, 0)" stroke="rgb(204, 204, 204)" stroke-width="1px"></line><line x1="53.1875" y1="282" x2="48.1875" y2="282" style="visibility: inherit;" fill="rgb(0, 0, 0)" stroke="rgb(204, 204, 204)" stroke-width="1px"></line><line x1="53.1875" y1="250.66666666666669" x2="48.1875" y2="250.66666666666669" style="visibility: inherit;" fill="rgb(0, 0, 0)" stroke="rgb(204, 204, 204)" stroke-width="1px"></line><line x1="53.1875" y1="219.33333333333334" x2="48.1875" y2="219.33333333333334" style="visibility: inherit;" fill="rgb(0, 0, 0)" stroke="rgb(204, 204, 204)" stroke-width="1px"></line><line x1="53.1875" y1="188.00000000000003" x2="48.1875" y2="188.00000000000003" style="visibility: inherit;" fill="rgb(0, 0, 0)" stroke="rgb(204, 204, 204)" stroke-width="1px"></line><line x1="53.1875" y1="156.66666666666669" x2="48.1875" y2="156.66666666666669" style="visibility: inherit;" fill="rgb(0, 0, 0)" stroke="rgb(204, 204, 204)" stroke-width="1px"></line><line x1="53.1875" y1="125.33333333333339" x2="48.1875" y2="125.33333333333339" style="visibility: inherit;" fill="rgb(0, 0, 0)" stroke="rgb(204, 204, 204)" stroke-width="1px"></line><line x1="53.1875" y1="94.00000000000004" x2="48.1875" y2="94.00000000000004" style="visibility: inherit;" fill="rgb(0, 0, 0)" stroke="rgb(204, 204, 204)" stroke-width="1px"></line><line x1="53.1875" y1="62.66666666666669" x2="48.1875" y2="62.66666666666669" style="visibility: inherit;" fill="rgb(0, 0, 0)" stroke="rgb(204, 204, 204)" stroke-width="1px"></line><line x1="53.1875" y1="31.333333333333346" x2="48.1875" y2="31.333333333333346" style="visibility: inherit;" fill="rgb(0, 0, 0)" stroke="rgb(204, 204, 204)" stroke-width="1px"></line><line x1="53.1875" y1="0" x2="48.1875" y2="0" style="visibility: inherit;" fill="rgb(0, 0, 0)" stroke="rgb(204, 204, 204)" stroke-width="1px"></line></g><g transform="translate(43.1875, 0)"><text x="0" y="376" dx="0em" dy="0.3em" style="text-anchor: end; visibility: hidden; font-family: Roboto, sans-serif; font-size: 12px; font-weight: 200;" fill="rgb(33, 33, 33)" stroke="none" stroke-width="1px">-0.1</text><text x="0" y="344.66666666666663" dx="0em" dy="0.3em" style="text-anchor: end; visibility: inherit; font-family: Roboto, sans-serif; font-size: 12px; font-weight: 200;" fill="rgb(33, 33, 33)" stroke="none" stroke-width="1px">0</text><text x="0" y="313.33333333333337" dx="0em" dy="0.3em" style="text-anchor: end; visibility: inherit; font-family: Roboto, sans-serif; font-size: 12px; font-weight: 200;" fill="rgb(33, 33, 33)" stroke="none" stroke-width="1px">0.1</text><text x="0" y="282" dx="0em" dy="0.3em" style="text-anchor: end; visibility: inherit; font-family: Roboto, sans-serif; font-size: 12px; font-weight: 200;" fill="rgb(33, 33, 33)" stroke="none" stroke-width="1px">0.2</text><text x="0" y="250.66666666666669" dx="0em" dy="0.3em" style="text-anchor: end; visibility: inherit; font-family: Roboto, sans-serif; font-size: 12px; font-weight: 200;" fill="rgb(33, 33, 33)" stroke="none" stroke-width="1px">0.3</text><text x="0" y="219.33333333333334" dx="0em" dy="0.3em" style="text-anchor: end; visibility: inherit; font-family: Roboto, sans-serif; font-size: 12px; font-weight: 200;" fill="rgb(33, 33, 33)" stroke="none" stroke-width="1px">0.4</text><text x="0" y="188.00000000000003" dx="0em" dy="0.3em" style="text-anchor: end; visibility: inherit; font-family: Roboto, sans-serif; font-size: 12px; font-weight: 200;" fill="rgb(33, 33, 33)" stroke="none" stroke-width="1px">0.5</text><text x="0" y="156.66666666666669" dx="0em" dy="0.3em" style="text-anchor: end; visibility: inherit; font-family: Roboto, sans-serif; font-size: 12px; font-weight: 200;" fill="rgb(33, 33, 33)" stroke="none" stroke-width="1px">0.6</text><text x="0" y="125.33333333333339" dx="0em" dy="0.3em" style="text-anchor: end; visibility: inherit; font-family: Roboto, sans-serif; font-size: 12px; font-weight: 200;" fill="rgb(33, 33, 33)" stroke="none" stroke-width="1px">0.7</text><text x="0" y="94.00000000000004" dx="0em" dy="0.3em" style="text-anchor: end; visibility: inherit; font-family: Roboto, sans-serif; font-size: 12px; font-weight: 200;" fill="rgb(33, 33, 33)" stroke="none" stroke-width="1px">0.8</text><text x="0" y="62.66666666666669" dx="0em" dy="0.3em" style="text-anchor: end; visibility: inherit; font-family: Roboto, sans-serif; font-size: 12px; font-weight: 200;" fill="rgb(33, 33, 33)" stroke="none" stroke-width="1px">0.9</text><text x="0" y="31.333333333333346" dx="0em" dy="0.3em" style="text-anchor: end; visibility: inherit; font-family: Roboto, sans-serif; font-size: 12px; font-weight: 200;" fill="rgb(33, 33, 33)" stroke="none" stroke-width="1px">1</text><text x="0" y="0" dx="0em" dy="0.3em" style="text-anchor: end; visibility: hidden; font-family: Roboto, sans-serif; font-size: 12px; font-weight: 200;" fill="rgb(33, 33, 33)" stroke="none" stroke-width="1px">1.1</text></g><line x1="53.1875" y1="0" x2="53.1875" y2="376" fill="rgb(0, 0, 0)" stroke="rgb(204, 204, 204)" stroke-width="1px"></line></g></g><g transform="translate(53, 0)" clip-path="url(#clip_0)"><clipPath id="clip_0"><rect width="1096" height="376"></rect></clipPath><g><g><g><line x1="0" y1="0" x2="0" y2="376" fill="rgb(0, 0, 0)" stroke="rgb(66, 66, 66)" stroke-width="1px" opacity="0.25"></line><line x1="109.68125" y1="0" x2="109.68125" y2="376" fill="rgb(0, 0, 0)" stroke="rgb(66, 66, 66)" stroke-width="1px" opacity="0.25"></line><line x1="219.3625" y1="0" x2="219.3625" y2="376" fill="rgb(0, 0, 0)" stroke="rgb(66, 66, 66)" stroke-width="1px" opacity="0.25"></line><line x1="329.04375" y1="0" x2="329.04375" y2="376" fill="rgb(0, 0, 0)" stroke="rgb(66, 66, 66)" stroke-width="1px" opacity="0.25"></line><line x1="438.725" y1="0" x2="438.725" y2="376" fill="rgb(0, 0, 0)" stroke="rgb(66, 66, 66)" stroke-width="1px" opacity="0.25"></line><line x1="548.40625" y1="0" x2="548.40625" y2="376" fill="rgb(0, 0, 0)" stroke="rgb(66, 66, 66)" stroke-width="1px" opacity="0.25"></line><line x1="658.0875" y1="0" x2="658.0875" y2="376" fill="rgb(0, 0, 0)" stroke="rgb(66, 66, 66)" stroke-width="1px" opacity="0.25"></line><line x1="767.76875" y1="0" x2="767.76875" y2="376" fill="rgb(0, 0, 0)" stroke="rgb(66, 66, 66)" stroke-width="1px" opacity="0.25"></line><line x1="877.45" y1="0" x2="877.45" y2="376" fill="rgb(0, 0, 0)" stroke="rgb(66, 66, 66)" stroke-width="1px" opacity="0.25"></line><line x1="987.13125" y1="0" x2="987.13125" y2="376" fill="rgb(0, 0, 0)" stroke="rgb(66, 66, 66)" stroke-width="1px" opacity="0.25"></line><line x1="1096.8125" y1="0" x2="1096.8125" y2="376" fill="rgb(0, 0, 0)" stroke="rgb(66, 66, 66)" stroke-width="1px" opacity="0.25"></line></g><g><line x1="0" y1="376" x2="1096.8125" y2="376" fill="rgb(0, 0, 0)" stroke="rgb(66, 66, 66)" stroke-width="1px" opacity="0.25"></line><line x1="0" y1="344.66666666666663" x2="1096.8125" y2="344.66666666666663" fill="rgb(0, 0, 0)" stroke="rgb(66, 66, 66)" stroke-width="1px" opacity="0.25"></line><line x1="0" y1="313.33333333333337" x2="1096.8125" y2="313.33333333333337" fill="rgb(0, 0, 0)" stroke="rgb(66, 66, 66)" stroke-width="1px" opacity="0.25"></line><line x1="0" y1="282" x2="1096.8125" y2="282" fill="rgb(0, 0, 0)" stroke="rgb(66, 66, 66)" stroke-width="1px" opacity="0.25"></line><line x1="0" y1="250.66666666666669" x2="1096.8125" y2="250.66666666666669" fill="rgb(0, 0, 0)" stroke="rgb(66, 66, 66)" stroke-width="1px" opacity="0.25"></line><line x1="0" y1="219.33333333333334" x2="1096.8125" y2="219.33333333333334" fill="rgb(0, 0, 0)" stroke="rgb(66, 66, 66)" stroke-width="1px" opacity="0.25"></line><line x1="0" y1="188.00000000000003" x2="1096.8125" y2="188.00000000000003" fill="rgb(0, 0, 0)" stroke="rgb(66, 66, 66)" stroke-width="1px" opacity="0.25"></line><line x1="0" y1="156.66666666666669" x2="1096.8125" y2="156.66666666666669" fill="rgb(0, 0, 0)" stroke="rgb(66, 66, 66)" stroke-width="1px" opacity="0.25"></line><line x1="0" y1="125.33333333333339" x2="1096.8125" y2="125.33333333333339" fill="rgb(0, 0, 0)" stroke="rgb(66, 66, 66)" stroke-width="1px" opacity="0.25"></line><line x1="0" y1="94.00000000000004" x2="1096.8125" y2="94.00000000000004" fill="rgb(0, 0, 0)" stroke="rgb(66, 66, 66)" stroke-width="1px" opacity="0.25"></line><line x1="0" y1="62.66666666666669" x2="1096.8125" y2="62.66666666666669" fill="rgb(0, 0, 0)" stroke="rgb(66, 66, 66)" stroke-width="1px" opacity="0.25"></line><line x1="0" y1="31.333333333333346" x2="1096.8125" y2="31.333333333333346" fill="rgb(0, 0, 0)" stroke="rgb(66, 66, 66)" stroke-width="1px" opacity="0.25"></line><line x1="0" y1="0" x2="1096.8125" y2="0" fill="rgb(0, 0, 0)" stroke="rgb(66, 66, 66)" stroke-width="1px" opacity="0.25"></line></g></g></g><g><g><line x1="0" y1="344.66666666666663" x2="1096.8125" y2="344.66666666666663" fill="rgb(0, 0, 0)" stroke="rgb(153, 153, 153)" stroke-width="1.5px"></line></g></g><g><g><line x1="109.68125" y1="0" x2="109.68125" y2="376" fill="rgb(0, 0, 0)" stroke="rgb(153, 153, 153)" stroke-width="1.5px"></line></g></g><g><g><g><g><g><path stroke="rgb(255, 112, 67)" stroke-width="2px" d="M109.68125,344.45736243692227L111.87487499999999,324.04744611817296L114.0685,317.376588909258L116.262125,311.83773934358743L118.45575,295.57135136854464L120.649375,280.13592160806206L122.843,258.12157606877605L125.036625,239.20660459549677L127.23025000000001,217.39016979635605L129.42387499999998,209.2199959079779L131.6175,201.62575015014647L133.811125,192.2768309681781L136.00475,185.3546745639066L138.198375,183.21064237591838L140.392,168.02436305362852L142.585625,154.2159792742829L144.77925000000002,156.67627972230744L146.97287500000002,156.09005796078011L149.1665,147.78166341456694L151.360125,147.86998181394372L153.55375,142.618297889851L155.74737499999998,140.29884810598955L157.94099999999997,133.96824335833566L160.134625,132.9157562121913L162.32825,137.95808911968706L164.521875,134.7343937758471L166.7155,134.20800254931254L168.909125,136.59775720676768L171.10275,133.71227614245774L173.296375,123.59508630979992L175.49,126.99356149621035L177.683625,121.16599415843757L179.87725,123.86810407292583L182.070875,122.35911732911013L184.2645,119.13899923589864L186.45812500000002,116.77017609155887L188.65175,112.12427044145034L190.845375,114.29339975664857L193.039,112.86149987785794L195.23262499999998,114.14832855163438L197.42624999999998,114.01269898939235L199.619875,113.38405858324379L201.8135,106.17384157079732L204.007125,106.91295953702782L206.20075,107.75737677490665L208.394375,106.73789660015872L210.588,106.32361510521118L212.78162500000002,104.11289547553227L214.97525000000002,107.8189913035171L217.168875,109.29848751232652L219.3625,104.98671551228836L221.556125,102.40215491263083L223.74974999999998,103.08131017093784L225.94337499999997,98.56558332723854L228.137,97.99799212941977L230.330625,95.98846444167293L232.52425,97.9167281032265L234.717875,101.97576890234174L236.9115,104.86191544042462L239.105125,103.44982186023252L241.29875,99.9888424340716L243.492375,96.0506413458087L245.686,94.74415421157863L247.879625,94.88433403771994L250.07325,94.56337925792863L252.266875,91.62964472572685L254.46050000000002,90.36100436091836L256.654125,91.0675616314436L258.84774999999996,92.76460240982524L261.041375,93.33535446347334L263.235,94.5905526019426L265.428625,96.79526933455222L267.62225,94.14988661064957L269.815875,92.08210541558816L272.0095,91.0178812290384L274.203125,91.99589954685095L276.39675,90.16235982698757L278.590375,89.59118112319251L280.784,90.97409528331086L282.977625,88.99380457700967L285.17125,89.3188816168011L287.364875,88.07251968332734L289.55850000000004,86.81608448633713L291.75212500000004,85.82594054267305L293.94575000000003,81.87839958663089L296.13937500000003,82.46892725782777L298.333,81.49221158439235L300.526625,79.77337826339993L302.72025,81.45324608315188L304.913875,81.10672211227313L307.1075,83.11617140518132L309.30112499999996,86.9693904511919L311.49474999999995,85.98358189619324L313.68837499999995,85.19178414875311L315.88199999999995,83.09798624039124L318.075625,81.72858995946507L320.26925,79.50704984715938L322.462875,77.96255519897556L324.6565,76.84445057060807L326.850125,76.42971213110185L329.04375,76.28290792771914L331.237375,74.6457307287181L333.431,74.05498798379054L335.624625,74.51397709660975L337.81825,73.43305828936846L340.011875,73.81955262880295L342.2055,73.88878020958568L344.399125,76.48773526340605L346.59275,75.03122087631552L348.786375,75.55722952870883L350.98,74.70453123045976L353.173625,74.48157039360021L355.36725,75.62149794345588L357.560875,73.44120969441823L359.7545,71.92370729883888L361.948125,71.97155238731929L364.14175,70.03382067011334L366.335375,70.89630078550104L368.529,69.62821712062313L370.72262500000005,69.32266836543218L372.91625000000005,70.46371521857981L375.10987500000005,70.50634790047573L377.3035,71.52011100799584L379.497125,70.12133568337006L381.69075,70.13661512818206L383.884375,70.11097050360607L386.078,69.97643754076023L388.271625,68.88380064879496L390.46524999999997,67.55346516558313L392.65887499999997,65.86075980537406L394.85249999999996,66.08205615127052L397.04612499999996,66.66159667955222L399.23975,66.1422185324811L401.433375,67.24197606781226L403.627,67.378047541017L405.820625,67.45015066180707L408.01425,65.30566171793593L410.207875,64.71670827063993L412.4015,64.03322453971552L414.595125,64.36399365072955L416.78875,65.45582367940054L418.982375,65.53724352099482L421.176,64.93628590650152L423.369625,64.03335675406534L425.56325000000004,63.34687425777165L427.75687500000004,62.75247422507316L429.95050000000003,62.094102777943476L432.14412500000003,61.9065716254148L434.33775,61.972865596657925L436.531375,62.43688129698L438.725,62.798690807708695L440.918625,62.63297577612915L443.11225,61.35813887067629L445.305875,60.97845042038755L447.49949999999995,60.78293210042794L449.69312499999995,61.37922826075525L451.88674999999995,62.13892357347788L454.080375,61.90400812307032L456.274,62.71921653715199L458.467625,62.67767825425126L460.66125,62.09430935402984L462.854875,59.85800715935394L465.0485,58.78936786245605L467.242125,58.7976576335706L469.43575,57.84621234620481L471.629375,58.28889831633292L473.823,58.605458359306574L476.016625,58.240967556070636L478.21025,57.47758023991069L480.403875,58.066187610550045L482.5975,57.52999510188303L484.791125,57.1187014449799L486.98475,57.39007558042788L489.178375,56.81640345423412L491.372,56.642802818034056L493.565625,56.80305897200943L495.75925,56.45235282781628L497.952875,55.84724291922393L500.1465,54.92123383340285L502.340125,54.788470725558504L504.53375,55.294137466157856L506.72737500000005,55.71700492791658L508.92100000000005,54.708354023847924L511.11462500000005,54.84584562048551L513.30825,55.47437062302376L515.5018749999999,56.13122405075514L517.6954999999999,55.965582848370985L519.8891249999999,55.511658096778966L522.08275,54.87736000088964L524.276375,54.73020278693105L526.47,53.7192407962533L528.663625,52.45988831421844L530.85725,52.12545325856079L533.050875,53.02893950045512L535.2445,52.83406399985397L537.438125,53.05020865976956L539.63175,52.34732887653599L541.825375,53.112461091129546L544.019,53.88902702394041L546.212625,54.553038063424346L548.40625,54.032848419414464L550.599875,53.306199428439044L552.7935,52.37367171267664L554.987125,50.97571673127017L557.18075,51.163331116032595L559.374375,51.47429992643516L561.568,51.30971035492931L563.761625,51.525963027075036L565.95525,51.10709234006909L568.148875,50.807294185525464L570.3425,50.38842069441057L572.536125,50.10785726309209L574.72975,49.80673944711916L576.9233750000001,49.0938366319353L579.1170000000001,49.18009170287537L581.3106250000001,49.3940655413887L583.5042500000001,49.01253194949752L585.6978750000001,49.33945053820841L587.8915000000001,49.469988739520495L590.0851250000001,49.14801513117367L592.2787500000001,48.23467970070331L594.472375,48.33328313933068L596.666,47.894039269127006L598.859625,47.71732944399368L601.05325,47.83124850283218L603.246875,47.69208581103976L605.4405,47.92346014293493L607.634125,47.25120317367193L609.82775,47.57381973720081L612.021375,47.08276786440505L614.215,47.11270533025601L616.408625,47.29018430324594L618.6022499999999,47.18312890775327L620.7958749999999,46.70867838530144L622.9894999999999,46.84465410352786L625.1831249999999,46.52966328883794L627.3767499999999,46.82986367001909L629.5703749999999,46.352868280339905L631.7639999999999,46.09242168358684L633.957625,46.221704160919174L636.15125,46.34174314881383L638.344875,46.02965100454307L640.5385,46.19854936508548L642.732125,45.62300595546689L644.92575,46.03854512118256L647.119375,45.52115404770547L649.313,45.303308146193324L651.506625,45.472083427704206L653.70025,45.18961405249247L655.893875,45.381037279914736L658.0875,45.17314541634973L660.281125,44.934500894727634L662.47475,44.786301510601646L664.668375,44.55087890847693L666.862,44.72005984757846L669.055625,44.51195566003226L671.24925,44.64637001441738L673.442875,44.497108094415005L675.6365,44.68381560992458L677.830125,44.221175844378834L680.02375,43.60597252144871L682.217375,43.338852035767594L684.411,43.46399571166443L686.604625,43.229738102352655L688.79825,43.16837029417124L690.991875,43.18735386188685L693.1855,42.97358467532712L695.379125,42.58258747867852L697.57275,42.53357005007331L699.766375,42.16122116975349L701.96,42.3371073305549L704.153625,42.37733236352257L706.34725,42.295125544466465L708.540875,42.621064508198415L710.7345,42.93496726606611L712.928125,43.12913587085999L715.12175,43.09003505543432L717.315375,43.00114837548473L719.509,42.77055755810742L721.702625,42.49845962260255L723.89625,42.10579831918529L726.089875,42.11704757722491L728.2835,42.10730985152092L730.477125,42.72401706783396L732.67075,42.60990402147233L734.864375,42.77872752971492L737.058,42.39027395145315L739.2516250000001,42.55344935037427L741.4452500000001,42.54692518578612L743.6388750000001,42.1930948646862L745.8325000000001,42.018006977558095L748.0261250000001,41.80343746569953L750.2197500000001,41.55391354219435L752.4133750000001,41.669049009817805L754.607,41.63756310848667L756.800625,41.57246684178676L758.99425,41.38639064914963L761.187875,41.205359405002945L763.3815,41.131030018561255L765.575125,41.085528462390016L767.76875,41.163299391225976L769.962375,41.085130748881504L772.156,40.96715571347896L774.349625,40.87100104807231L776.54325,40.8674540618166L778.7368749999999,40.62630886032807L780.9304999999999,40.798450943994325L783.1241249999999,40.90963992903696L785.3177499999999,40.59534548976068L787.5113749999999,40.41666717087056L789.7049999999999,40.413889583477356L791.8986249999999,40.59231314054865L794.0922499999999,40.53598108882751L796.285875,40.40030734734762L798.4795,40.111456209403464L800.673125,40.120656061559245L802.86675,40.10490013463651L805.060375,40.064989558677055L807.254,39.83966232448032L809.447625,39.75245614712958L811.64125,39.627639205448965L813.834875,39.71094326448035L816.0285,39.510157674183006L818.222125,39.476799223599585L820.41575,39.43803332673175L822.609375,39.49639591232931L824.803,39.68801648213068L826.996625,39.54208339925772L829.19025,39.269547766503685L831.383875,39.15625021421333L833.5775,39.46328821319394L835.771125,39.381174571542275L837.96475,39.48198770318135L840.158375,39.470721921326984L842.352,39.29795413871742L844.545625,39.012500097315346L846.73925,39.02406690714412L848.932875,38.96800869821109L851.1265000000001,38.9746544328447L853.3201250000001,38.72202448648907L855.5137500000001,38.670483298715155L857.7073750000001,38.70508189257951L859.9010000000001,38.8679065739531L862.0946250000001,38.86814190757781L864.2882500000001,38.75157228596513L866.4818750000001,38.67666266453766L868.6755,38.471841816658845L870.869125,38.3733104415069L873.06275,38.25577270670715L875.256375,38.27806292186571L877.45,38.288202346625276L879.643625,38.44125961140537L881.83725,38.6665610087459L884.030875,38.782438207420384L886.2245,38.64961247965852L888.418125,38.60159921641248L890.61175,38.55294227597179L892.8053749999999,38.303071053805354L894.9989999999999,38.20794406254042L897.1926249999999,38.09745415877667L899.3862499999999,37.95916003086984L901.5798749999999,37.89693646092513L903.7734999999999,37.88452373619451L905.9671249999999,37.786198091560045L908.16075,37.82836752258943L910.354375,37.82286852075583L912.548,37.93412098173658L914.741625,37.99546385338524L916.93525,38.0817463588553L919.128875,38.15358895809475L921.3225,38.13770038337129L923.516125,37.99874918332071L925.70975,37.93013259969377L927.903375,37.917253239168055L930.097,37.87684240930077L932.290625,37.77616574958649L934.48425,37.60379266696579L936.677875,37.58500153198288L938.8715,37.49691569630971L941.065125,37.40429152543152L943.25875,37.47883730030939L945.452375,37.438834934812114L947.646,37.493945568431236L949.839625,37.47828221100302L952.03325,37.40840344296535L954.226875,37.50172865788129L956.4205,37.40056795517596L958.614125,37.47416032139458L960.80775,37.334863929653174L963.001375,37.27578169626239L965.195,37.22758777055487L967.388625,37.21102006701642L969.58225,37.23913391114083L971.775875,37.31697602081782L973.9695,37.34504251683842L976.163125,37.265976792604306L978.35675,37.23565215629175L980.550375,37.302837133974876L982.744,37.312437105519194L984.937625,37.32695992490212" style="fill: none;" fill="none"></path></g><g><path stroke="rgb(187, 187, 187)" stroke-width="2px" d="M109.68125,55.258136669794744L111.87487499999999,67.25772016247119L114.0685,75.10835788525698L116.262125,125.72901399024572L118.45575,152.56801528928466L120.649375,167.59555252498194L122.843,158.9421704454787L125.036625,165.91858904387445L127.23025000000001,161.35016299466463L129.42387499999998,173.7489654128068L131.6175,160.11588904629755L133.811125,155.80512845889896L136.00475,147.1579140866009L138.198375,154.65306314659512L140.392,154.75386899786898L142.585625,148.76093832522585L144.77925000000002,147.26653091921273L146.97287500000002,134.38053088060246L149.1665,138.7484119917483L151.360125,125.25469029238222L153.55375,116.48023221507108L155.74737499999998,118.16600120985504L157.94099999999997,110.97964930962733L160.134625,116.37769610707896L162.32825,108.68212274143308L164.521875,103.02742202153631L166.7155,118.78642275193803L168.909125,125.42369637936712L171.10275,113.73869075609032L173.296375,111.6567082942245L175.49,113.10180406709341L177.683625,99.39109367053926L179.87725,105.31484930542568L182.070875,103.16106687272294L184.2645,106.59257149009858L186.45812500000002,102.75731246077306L188.65175,107.34626410703613L190.845375,108.76189433246441L193.039,105.0046575465115L195.23262499999998,93.443040172598L197.42624999999998,84.96783711250838L199.619875,83.00490718828287L201.8135,88.61704016140213L204.007125,87.66058105061435L206.20075,85.1407358434958L208.394375,85.82213754979028L210.588,87.96343541666288L212.78162500000002,81.49036968847139L214.97525000000002,89.19330094526671L217.168875,84.56069012243061L219.3625,84.18691443458127L221.556125,81.53319930466199L223.74974999999998,78.31699924129985L225.94337499999997,82.5514901585946L228.137,75.12314717615591L230.330625,88.03660825478495L232.52425,80.42498644741677L234.717875,75.16093831391443L236.9115,77.56657441336718L239.105125,76.49402844038885L241.29875,72.10383172309753L243.492375,71.50175794448273L245.686,69.8837750145941L247.879625,70.81259339188433L250.07325,69.6633575030261L252.266875,66.39383670894863L254.46050000000002,73.66735451941832L256.654125,68.71562130565532L258.84774999999996,68.2770784655119L261.041375,68.36147056970427L263.235,62.99988519521615L265.428625,59.753619929385515L267.62225,58.740548384328086L269.815875,56.59693059055372L272.0095,55.2350618564787L274.203125,57.61224476438975L276.39675,55.33417558635602L278.590375,57.276115385484644L280.784,53.475515060300786L282.977625,51.13522692482183L285.17125,51.71470472789114L287.364875,50.33343073671842L289.55850000000004,51.79815389084295L291.75212500000004,49.65723814189917L293.94575000000003,49.55785298518624L296.13937500000003,48.58873957100881L298.333,47.961223676026165L300.526625,47.234238033028575L302.72025,46.579214790184665L304.913875,47.03571787201526L307.1075,46.20468804869951L309.30112499999996,45.22663169086316L311.49474999999995,44.78744382647872L313.68837499999995,44.05759581121725L315.88199999999995,43.48608549550924L318.075625,43.09424039591799L320.26925,42.582271032747364L322.462875,42.059566966623116L324.6565,42.13168115134835L326.850125,42.166769520734576" style="fill: none;" fill="none"></path></g><g><path stroke="rgb(0, 153, 136)" stroke-width="2px" d="M109.68125,344.6478173619058L111.87487499999999,344.6029391787015L114.0685,344.4544030960307L116.262125,344.0375724823212L118.45575,338.62678386962136L120.649375,333.2384332788611L122.843,318.6050373625787L125.036625,322.372085374709L127.23025000000001,323.4987039200895L129.42387499999998,307.3116514203315L131.6175,314.84064077312007L133.811125,299.53216866517033L136.00475,300.7450254255472L138.198375,304.2797820740142L140.392,279.50081248316536L142.585625,258.6599929781516L144.77925000000002,243.76099040110324L146.97287500000002,236.0511819228749L149.1665,235.35389101741472L151.360125,210.61907584162162L153.55375,215.41506181886442L155.74737499999998,214.58179348311452L157.94099999999997,196.9074931626465L160.134625,199.2250163348952L162.32825,182.25081065624582L164.521875,173.794826058484L166.7155,163.28666674934308L168.909125,178.88284277926263L171.10275,179.96850004467677L173.296375,199.13301507723003L175.49,170.41188045102777L177.683625,159.55650065827083L179.87725,160.6915938988216L182.070875,157.74473829577602L184.2645,155.4298329482502L186.45812500000002,150.3874069724946L188.65175,141.1429521549522L190.845375,139.62945510235386L193.039,127.23604979110476L195.23262499999998,134.26307941815452L197.42624999999998,124.13905351944103L199.619875,133.01767509562276L201.8135,132.12705155217265L204.007125,132.40773327357633L206.20075,117.31698115037219L208.394375,112.52515302886289L210.588,114.06986502090747L212.78162500000002,115.08151916235771L214.97525000000002,127.58244478463138L217.168875,113.10741247180725L219.3625,115.24464551674546L221.556125,112.40974459687376L223.74974999999998,113.41722273214539L225.94337499999997,111.21172270407376L228.137,108.73460439779265L230.330625,114.75189872545965L232.52425,106.6980584857623L234.717875,107.02392742620471L236.9115,101.3172563567946L239.105125,111.79353276025448L241.29875,104.98275767444265L243.492375,102.37857160575405L245.686,97.37495459878771L247.879625,94.39157257336969L250.07325,87.56820894395467L252.266875,82.06831206350616L254.46050000000002,86.29924373707631L256.654125,81.30912925132988L258.84774999999996,83.23422410485476L261.041375,82.61020110287663L263.235,77.17442376358345L265.428625,78.09305446312649L267.62225,73.42455559352535L269.815875,68.57696417200269L272.0095,64.26666924493136L274.203125,64.16631401262656L276.39675,62.241200443200114L278.590375,67.62241643036914L280.784,66.6587077381145L282.977625,62.042226831233364L285.17125,59.83880000916077L287.364875,61.86024039749475L289.55850000000004,61.17928609310095L291.75212500000004,59.39972180361649L293.94575000000003,58.256845455776265L296.13937500000003,57.79237192953268L298.333,55.75264156312531L300.526625,56.04448270271691L302.72025,53.99861548426041L304.913875,54.2405249640283L307.1075,52.53228965391346L309.30112499999996,52.358755518930884L311.49474999999995,51.164748849434304L313.68837499999995,50.48472593345008L315.88199999999995,50.988383345511146L318.075625,50.20872233671342L320.26925,49.01694959618088L322.462875,48.825855761075665L324.6565,48.64818622428459L326.850125,48.380454391787154" style="fill: none;" fill="none"></path></g><g><path stroke="rgb(51, 187, 238)" stroke-width="2px" d="M109.68125,198.59243341286975L111.87487499999999,203.53606127699214L114.0685,205.2498182050225L116.262125,205.5913092851931L118.45575,205.56479727568353L120.649375,208.82797123408002L122.843,210.3159159541364L125.036625,210.15088790274746L127.23025000000001,215.40010188010788L129.42387499999998,211.9981302935614L131.6175,216.971668415411L133.811125,214.64191746815465L136.00475,219.74439523420267L138.198375,216.450400481244L140.392,219.7163880604371L142.585625,217.45283475257423L144.77925000000002,222.91455192841232L146.97287500000002,219.88920621164598L149.1665,220.78669019176422L151.360125,223.6193221114676L153.55375,225.3681111412402L155.74737499999998,226.08066244677678L157.94099999999997,232.79685323053116L160.134625,230.52000327859074L162.32825,238.7793095240191L164.521875,234.58504945998789L166.7155,239.4879275054985L168.909125,239.13943186009578L171.10275,239.26047254057923L173.296375,246.1840453381212L175.49,245.29613494032102L177.683625,240.37567634654124L179.87725,250.47869864431186L182.070875,248.94072680434192L184.2645,253.5463486157484L186.45812500000002,248.23436436991307L188.65175,250.14414158616444L190.845375,242.06501210205315L193.039,243.43554757228398L195.23262499999998,242.63414438969596L197.42624999999998,254.25053455414272L199.619875,247.02740301330124L201.8135,257.65210053615124L204.007125,249.02377017165162L206.20075,267.2296539950913L208.394375,251.0882823780173L210.588,260.0375172090895L212.78162500000002,247.79529761002993L214.97525000000002,259.68650600961894L217.168875,251.3975855527767L219.3625,267.652359606014L221.556125,251.45072030292383L223.74974999999998,261.65872211815565L225.94337499999997,252.3055918269953L228.137,261.43681620282115L230.330625,253.2301555080513L232.52425,261.1765284460781L234.717875,248.14837978215826L236.9115,260.6106570041099L239.105125,249.77703256662153L241.29875,262.29249689135264L243.492375,249.8556323358612L245.686,263.9102457787116L247.879625,252.46654570254796L250.07325,267.25095815749836L252.266875,256.8918318308902L254.46050000000002,265.1780809138723L256.654125,258.5729505444273L258.84774999999996,256.8147379373335L261.041375,248.2001569319659L263.235,254.8318263877766L265.428625,255.4643844876291L267.62225,263.76273889424016L269.815875,260.8231448992984L272.0095,264.1125831046639L274.203125,271.0039995256427L276.39675,269.6553868061322L278.590375,257.5381653232983L280.784,259.20195134025477L282.977625,264.7737306964894L285.17125,274.116278398782L287.364875,258.8916949999829L289.55850000000004,271.8852995895843L291.75212500000004,258.2593639451365L293.94575000000003,251.07883645841088L296.13937500000003,264.8473364457405L298.333,255.0714411861648L300.526625,265.17437496147255L302.72025,258.7620526375077L304.913875,270.9202022764108L307.1075,261.41957894641286L309.30112499999996,267.8670418322769L311.49474999999995,254.59057994250583L313.68837499999995,275.04094447432436L315.88199999999995,262.5680665040323L318.075625,267.9600130953973L320.26925,264.11034560036177L322.462875,261.94745147922544L324.6565,263.0261245371833L326.850125,253.22595053128012L329.04375,260.9295294198092" style="fill: none;" fill="none"></path></g></g></g></g><g opacity="0.2"><g><g><g><path stroke="rgb(255, 112, 67)" stroke-width="2px" d="M109.68125,344.45736243692227L111.87487499999999,311.80149632692337L114.0685,310.9725659886996L116.262125,305.32405225435895L118.45575,274.3339552283287L120.649375,258.78316549460095L122.843,226.6407097180685L125.036625,211.62839460372925L127.23025000000001,185.21516609191897L129.42387499999998,197.08823986848202L131.6175,190.3032607634863L133.811125,178.3043286005656L136.00475,174.99404199918118L138.198375,179.99879447619122L140.392,145.2627949714661L142.585625,133.51314234733584L144.77925000000002,160.36568927764895L146.97287500000002,155.21087416013089L149.1665,135.32033729553225L151.360125,148.00245134035748L153.55375,134.74106001853946L155.74737499999998,136.81974975268048L157.94099999999997,124.47246122360234L160.134625,131.3370379606883L162.32825,145.52155264218655L164.521875,129.8988645076752L166.7155,133.41841705640164L168.909125,140.18238552411404L171.10275,129.38405720392865L173.296375,108.41930715243025L175.49,132.09127314885464L177.683625,112.42464431126918L179.87725,127.92126862208052L182.070875,120.09563732147221L184.2645,114.30882223447169L186.45812500000002,113.21694143613185L188.65175,105.15541203816737L190.845375,117.54709370930995L193.039,110.71365006764735L195.23262499999998,116.0785715579987L197.42624999999998,113.80925464630131L199.619875,112.44109797477726L201.8135,95.35851605733241L204.007125,108.02163648605351L206.20075,109.02400263150538L208.394375,105.20867633819584L210.588,105.70219286282862L212.78162500000002,100.79681603113814L214.97525000000002,113.37813504536952L217.168875,111.5177318255107L219.3625,98.51905751228337L221.556125,98.52531401316328L223.74974999999998,104.10004305839543L225.94337499999997,91.79199306170153L228.137,97.14660533269252L230.330625,92.97417291005458L232.52425,100.80912359555568L234.717875,108.06433010101323L236.9115,109.19113524754847L239.105125,101.3316814899445L241.29875,94.79737329483036L243.492375,90.14333971341456L245.686,92.78442351023364L247.879625,95.0946037769318L250.07325,94.08194708824162L252.266875,87.22904292742419L254.46050000000002,88.45804381370549L256.654125,92.12739753723149L258.84774999999996,95.31016357739772L261.041375,94.19148254394536L263.235,96.47334980964665L265.428625,100.10234443346663L267.62225,90.18181252479557L269.815875,88.98043362299609L272.0095,89.42154494921374L274.203125,93.46292702356982L276.39675,87.41205024719243L278.590375,88.73441306749987L280.784,93.04846652348841L282.977625,86.02336851755786L285.17125,89.80649717648829L287.364875,86.20297678311671L289.55850000000004,84.93143169085192L291.75212500000004,84.340724627177L293.94575000000003,75.95708815256762L296.13937500000003,83.35471876462306L298.333,80.02713807423915L300.526625,77.19512828191127L302.72025,83.9730478127798L304.913875,80.58693615595507L307.1075,86.1303453445435L309.30112499999996,92.74921902020778L311.49474999999995,84.50486906369532L313.68837499999995,84.00408752759303L315.88199999999995,79.95728937784838L318.075625,79.67449553807582L320.26925,76.17473967870082L322.462875,75.64581322669987L324.6565,75.1672936280569L326.850125,75.80760447184252L329.04375,76.06270162264514L331.237375,72.18996493021655L333.431,73.16887386639918L335.624625,75.20246076583867L337.81825,71.81168007850651L340.011875,74.39929413795475L342.2055,73.99262158075976L344.399125,80.38616784413661L346.59275,72.8464492956798L348.786375,76.34624250729884L350.98,73.4254837830862L353.173625,74.1471291383108L355.36725,77.33138926823939L357.560875,70.17077732086186L359.7545,69.64745370546984L361.948125,72.04332002003993L364.14175,67.12722309430445L366.335375,72.19002095858264L368.529,67.72609162330632L370.72262500000005,68.86434523264575L372.91625000000005,72.17528549830126L375.10987500000005,70.57029692331957L377.3035,73.040755669276L379.497125,68.02317269643153L381.69075,70.15953429540004L383.884375,70.07250356674199L386.078,69.77463809649157L388.271625,67.24484531084704L390.46524999999997,65.55796194076542L392.65887499999997,63.32170176506047L394.85249999999996,66.41400067011523L397.04612499999996,67.53090747197474L399.23975,65.36315131187443L401.433375,68.89161237080897L403.627,67.58215475082402L405.820625,67.5583053429922L408.01425,62.088928302129126L410.207875,63.83327809969591L412.4015,63.0079989433289L414.595125,64.86014731725062L416.78875,67.0935687224071L418.982375,65.65937328338627L421.176,64.03484948476161L423.369625,62.67896302541102L425.56325000000004,62.31715051333112L427.75687500000004,61.86087417602539L429.95050000000003,61.10654560724897L432.14412500000003,61.625274896621704L434.33775,62.07230655352277L436.531375,63.132904847463024L438.725,63.341405073801745L440.918625,62.384403228759766L443.11225,59.44588351249695L445.305875,60.408917744954444L447.49949999999995,60.4896546204885L449.69312499999995,62.27367250124616L451.88674999999995,63.2784665425619L454.080375,61.55163494745893L456.274,63.9420291582744L458.467625,62.61537082990012L460.66125,61.21925600369773L462.854875,56.50355386734009L465.0485,57.1864089171092L467.242125,58.81009229024253L469.43575,56.41904441515607L471.629375,58.95292727152509L473.823,59.08029842376709L476.016625,57.69423135121665L478.21025,56.332499265670776L480.403875,58.94909866650901L482.5975,56.725706338882446L484.791125,56.501760959625244L486.98475,57.79713678359985L489.178375,55.95589526494346L491.372,56.38240186373395L493.565625,57.04344320297241L495.75925,55.92629361152649L497.952875,54.93957805633545L500.1465,53.53222020467124L502.340125,54.58932606379194L504.53375,56.052637577056885L506.72737500000005,56.35130612055463L508.92100000000005,53.19537766774497L511.11462500000005,55.052083015441895L513.30825,56.417158126831055L515.5018749999999,57.116504192352295L517.6954999999999,55.717121044794744L519.8891249999999,54.83077096939087L522.08275,53.925912857055664L524.276375,54.50946696599326L526.47,52.20279781023664L528.663625,50.570859591166204L530.85725,51.623800675074285L533.050875,54.38416886329651L535.2445,52.541750748952246L537.438125,53.374425649642944L539.63175,51.293009201685614L541.825375,54.26015941301984L544.019,55.05387592315674L546.212625,55.54905462265015L548.40625,53.25256395339966L550.599875,52.21622594197593L552.7935,50.974880139033026L554.987125,48.878784259160376L557.18075,51.44475269317627L559.374375,51.94075314203901L561.568,51.06282599767051L563.761625,51.85034203529358L565.95525,50.47878630956016L568.148875,50.35759695370994L570.3425,49.76011045773826L572.536125,49.687012116114325L574.72975,49.35506272315979L576.9233750000001,48.02448240915937L579.1170000000001,49.3094743092855L581.3106250000001,49.71502629915876L583.5042500000001,48.44023156166077L585.6978750000001,49.82982842127485L587.8915000000001,49.66579604148865L590.0851250000001,48.66505471865339L592.2787500000001,46.86467655499778L594.472375,48.48118829727173L596.666,47.23517346382141L598.859625,47.45226470629377L601.05325,48.00212709108991L603.246875,47.48334177335105L605.4405,48.27052164077759L607.634125,46.24281771977744L609.82775,48.05774458249412L612.021375,46.3461900552114L614.215,47.157611529032415L616.408625,47.55640276273093L618.6022499999999,47.02254581451416L620.7958749999999,45.99700260162358L622.9894999999999,47.04861768086753L625.1831249999999,46.05717706680302L627.3767499999999,47.28016424179077L629.5703749999999,45.63737519582114L631.7639999999999,45.70175178845725L633.957625,46.41562787691755L636.15125,46.52180163065595L638.344875,45.56151278813682L640.5385,46.45189690589909L642.732125,44.75969084103904L644.92575,46.66185386975608L647.119375,44.745067437489844L649.313,44.97653929392499L651.506625,45.725246349970526L653.70025,44.7659099896749L655.893875,45.668172121048016L658.0875,44.86130762100224L660.281125,44.57653411229453L662.47475,44.564002434412664L664.668375,44.19774500528974L666.862,44.97383125623069L669.055625,44.19979937871299L671.24925,44.84799154599509L673.442875,44.273215214411444L675.6365,44.96387688318891L677.830125,43.52721619606022L680.02375,42.68316753705344L682.217375,42.938171307245916L684.411,43.651711225509686L686.604625,42.87835168838505L688.79825,43.076318581899024L690.991875,43.2158292134603L693.1855,42.65293089548749L695.379125,41.996091683705664L697.57275,42.46004390716557L699.766375,41.602697849273724L701.96,42.600936571757025L704.153625,42.437669912974066L706.34725,42.17181531588239L708.540875,43.10997295379643L710.7345,43.40582140286765L712.928125,43.42038877805076L715.12175,43.03138383229575L717.315375,42.867818355560345L719.509,42.42467133204145L721.702625,42.090312719345135L723.89625,41.51680636405949L726.089875,42.13392146428428L728.2835,42.09270326296491L730.477125,43.64907789230351L732.67075,42.438734451929754L734.864375,43.03196279207868L737.058,41.80759358406071L739.2516250000001,42.798212448755926L741.4452500000001,42.53713893890385L743.6388750000001,41.66234938303632L745.8325000000001,41.75537514686589L748.0261250000001,41.4815831979116L750.2197500000001,41.17962765693669L752.4133750000001,41.841752211252874L754.607,41.59033425649009L756.800625,41.47482244173688L758.99425,41.107276360193914L761.187875,40.93381253878278L763.3815,41.01953593889875L765.575125,41.017276128133155L767.76875,41.2799557844798L769.962375,40.96787778536481L772.156,40.790193160374976L774.349625,40.72676904996238L776.54325,40.86213358243308L778.7368749999999,40.26459105809531L780.9304999999999,41.05666406949363L783.1241249999999,41.076423406600995L785.3177499999999,40.12390383084617L787.5113749999999,40.14864969253544L789.7049999999999,40.40972320238752L791.8986249999999,40.859948476155616L794.0922499999999,40.45148301124577L796.285875,40.19679673512778L798.4795,39.678179502487225L800.673125,40.13445583979291L802.86675,40.08126624425254L805.060375,40.00512369473777L807.254,39.50167147318525L809.447625,39.62164688110356L811.64125,39.44041379292808L813.834875,39.835899353027386L816.0285,39.208979288737005L818.222125,39.42676154772443L820.41575,39.379884481430096L822.609375,39.58393979072575L824.803,39.97544733683271L826.996625,39.32318377494816L829.19025,38.86074431737266L831.383875,38.98630388577781L833.5775,39.92384521166486L835.771125,39.258004109064764L837.96475,39.63320740063987L840.158375,39.453823248545355L842.352,39.03880246480308L844.545625,38.584319035212225L846.73925,39.04141712188725L848.932875,38.883921384811444L851.1265000000001,38.98462303479514L853.3201250000001,38.34307956695561L855.5137500000001,38.593171517054266L857.7073750000001,38.756979783376075L859.9010000000001,39.112143596013404L862.0946250000001,38.86849490801496L864.2882500000001,38.576717853546185L866.4818750000001,38.56429823239646L868.6755,38.16461054484052L870.869125,38.22551337877912L873.06275,38.07946610450749L875.256375,38.31149824460349L877.45,38.30341148376469L879.643625,38.67084550857548L881.83725,39.00451310475669L884.030875,38.95625400543217L886.2245,38.45037388801579L888.418125,38.5295793215434L890.61175,38.47995686531071L892.8053749999999,37.92826422055564L894.9989999999999,38.06525357564292L897.1926249999999,37.931719303131146L899.3862499999999,37.75171883900962L901.5798749999999,37.80360110600791L903.7734999999999,37.86590464909873L905.9671249999999,37.638709624608374L908.16075,37.89162166913352L910.354375,37.814620018005414L912.548,38.10099967320762L914.741625,38.0874781608582L916.93525,38.21117011706037L919.128875,38.261352856953955L921.3225,38.11386752128605L923.516125,37.79032238324485L925.70975,37.82720772425336L927.903375,37.89793419837956L930.097,37.816226164499945L932.290625,37.62515076001487L934.48425,37.34523304303489L936.677875,37.55681482950849L938.8715,37.3647869427999L941.065125,37.2653552691142L943.25875,37.590655962626165L945.452375,37.378831386566205L947.646,37.576611518859906L949.839625,37.45478717486066L952.03325,37.303585290908856L954.226875,37.64171648025517L956.4205,37.24882690111799L958.614125,37.58454887072248L960.80775,37.12591934204106L963.001375,37.18715834617619L965.195,37.15529688199363L967.388625,37.186168511708594L969.58225,37.28130467732749L971.775875,37.433739185333295L973.9695,37.38714226086936L976.163125,37.147378206253094L978.35675,37.19016520182294L980.550375,37.40361460049949L982.744,37.326837062835736L984.937625,37.34874415397648" style="fill: none;" fill="none"></path></g><g><path stroke="rgb(187, 187, 187)" stroke-width="2px" d="M109.68125,55.258136669794744L111.87487499999999,74.45747025807704L114.0685,82.64497009913134L116.262125,185.25890556971234L118.45575,187.60901538530987L120.649375,188.38404643535617L122.843,146.5676956176758L125.036625,176.0902743339539L127.23025000000001,154.61262194315594L129.42387499999998,192.15974199771884L131.6175,139.7899254957835L133.811125,149.3624465465546L136.00475,134.21532718340558L138.198375,165.881102959315L140.392,154.90495928128567L142.585625,139.77576899528506L144.77925000000002,145.0255521933238L146.97287500000002,115.05480257670088L149.1665,145.29956825574246L151.360125,105.0153411229452L153.55375,103.31902631123866L155.74737499999998,120.69459923108424L157.94099999999997,100.20026334126796L160.134625,124.47470235824589L162.32825,97.13881738980616L164.521875,94.54539505640669L166.7155,142.42488352457684L168.909125,135.37959663073224L171.10275,96.21119308471684L173.296375,108.53373575210576L175.49,115.26944724718733L177.683625,78.82503080368046L179.87725,114.20048205057783L182.070875,99.9303933779399L184.2645,111.73982826868696L186.45812500000002,97.00442401568098L188.65175,114.22969150543217L190.845375,110.88533965746565L193.039,99.36880238850917L195.23262499999998,76.10061415036525L197.42624999999998,72.25503253936772L199.619875,80.06051230430607L201.8135,97.03523961702986L204.007125,86.22589238484706L206.20075,81.36096803347277L208.394375,86.84424010912585L210.588,91.1753822167715L212.78162500000002,71.7807710965475L214.97525000000002,100.74769783020024L217.168875,77.61177388827014L219.3625,83.62625090281176L221.556125,77.55262660980229L223.74974999999998,73.4926991462708L225.94337499999997,88.90322653452563L228.137,63.98063270250963L230.330625,107.40679987271632L232.52425,69.00755373636889L234.717875,67.26486611366276L236.9115,81.17502856254582L239.105125,74.8852094809215L241.29875,65.5185366471609L243.492375,70.59864727656054L245.686,67.45680061976122L247.879625,72.2058209578197L250.07325,67.93950366973881L252.266875,61.489555517832464L254.46050000000002,84.57763123512272L256.654125,61.28802148501081L258.84774999999996,67.61926420529689L261.041375,68.48805872599291L263.235,54.95750713348389L265.428625,54.88422203063965L267.62225,57.22094106674194L269.815875,53.38150389989219L272.0095,53.19225875536603L274.203125,61.17801912625632L276.39675,51.91707181930542L278.590375,60.18902508417768L280.784,47.774614572525024L282.977625,47.624794721603394L285.17125,52.58392143249512L287.364875,48.26151974995933L289.55850000000004,53.99523862202964L291.75212500000004,46.445864518483496L293.94575000000003,49.40877525011701L296.13937500000003,47.13506944974265L298.333,47.01994983355207L300.526625,46.143759568532325L302.72025,45.59667992591862L304.913875,47.720472494761175L307.1075,44.958143313725806L309.30112499999996,43.75954715410871L311.49474999999995,44.128662029902166L313.68837499999995,42.96282378832502L315.88199999999995,42.62882002194724L318.075625,42.506472746531195L320.26925,41.814316987991376L322.462875,41.27551086743674L324.6565,42.23985242843632L326.850125,42.219402074813885" style="fill: none;" fill="none"></path></g><g><path stroke="rgb(0, 153, 136)" stroke-width="2px" d="M109.68125,344.6478173619058L111.87487499999999,344.57601226877887L114.0685,344.31180845666677L116.262125,343.54737968059874L118.45575,331.56245825688046L120.649375,325.78440460562706L122.843,297.67904706796014L125.036625,327.86447754005593L127.23025000000001,325.16024744013947L129.42387499999998,283.27576496203744L131.6175,326.0658374230067L133.811125,276.6527685324351L136.00475,302.5603503783544L138.198375,309.57499209046364L140.392,242.3614848454794L142.585625,227.4134622812271L144.77925000000002,221.4187912940979L146.97287500000002,224.4884267250697L149.1665,234.3080608844757L151.360125,173.51911393801373L153.55375,222.60877776145935L155.74737499999998,213.33191839853924L157.94099999999997,170.39639163017276L160.134625,202.7012736399969L162.32825,156.78962278366092L164.521875,161.11088522275296L166.7155,147.52445467313137L168.909125,202.2770828803381L171.10275,181.59698494275418L173.296375,227.8797770341238L175.49,127.33018803596501L177.683625,143.27343312899274L179.87725,162.39423362414044L182.070875,153.32445510228482L184.2645,151.95747502644863L186.45812500000002,142.82376813888553L188.65175,127.27627007166548L190.845375,137.35920953750613L193.039,108.64594189325972L195.23262499999998,144.8036238352458L197.42624999999998,108.95301469167079L199.619875,146.33560744921368L201.8135,130.7911162376404L204.007125,132.82875585556033L206.20075,94.68085296948756L208.394375,105.33741084734602L210.588,116.38693300882979L212.78162500000002,116.59900037447615L214.97525000000002,146.33383321762088L217.168875,91.39486400286364L219.3625,118.45049508412684L221.556125,108.15739321708683L223.74974999999998,114.92843993504847L225.94337499999997,107.90347266197209L228.137,105.01892693837489L230.330625,123.7778402169546L232.52425,94.61729812622075L234.717875,107.51273083686833L236.9115,92.75724975268054L239.105125,127.50794736544294L241.29875,94.76659504572554L243.492375,98.4722925027212L245.686,89.86952908833827L247.879625,89.91649953524279L250.07325,77.3331634998322L252.266875,73.81846674283351L254.46050000000002,92.64564124743151L256.654125,73.82395752271022L258.84774999999996,86.12186638514208L261.041375,81.67416659990954L263.235,69.02075775464381L265.428625,79.47100051244105L267.62225,66.42180728912358L269.815875,61.30557703971863L272.0095,57.80122685432434L274.203125,64.01578116416935L276.39675,59.35353008906049L278.590375,75.69424041112269L280.784,65.21314469973254L282.977625,55.11750547091169L285.17125,56.533659776051856L287.364875,64.89240097999577L289.55850000000004,60.15785463651023L291.75212500000004,56.73037536938987L293.94575000000003,56.542530934015936L296.13937500000003,57.095661640167236L298.333,52.69304601351423L300.526625,56.482244412104315L302.72025,50.92981465657554L304.913875,54.60338918368024L307.1075,49.969936688741065L309.30112499999996,52.09845431645713L311.49474999999995,49.37373884518943L313.68837499999995,49.4646915594737L315.88199999999995,51.74386946360273L318.075625,49.039230823516846L320.26925,47.22929048538208L322.462875,48.53921500841779L324.6565,48.3816819190979L326.850125,47.97885664304099" style="fill: none;" fill="none"></path></g><g><path stroke="rgb(51, 187, 238)" stroke-width="2px" d="M109.68125,198.59243341286984L111.87487499999999,206.50223799546566L114.0685,206.89502485593167L116.262125,205.99290279547375L118.45575,205.53018319606784L120.649375,213.34211556116742L122.843,212.44370071093243L125.036625,209.9102754195532L127.23025000000001,223.1416728893916L129.42387499999998,206.94659896691647L131.6175,224.3868659734726L133.811125,211.1599694490433L136.00475,227.38145140806836L138.198375,211.51586163043976L140.392,224.611530383428L142.585625,214.05910122394562L144.77925000000002,231.10481647650403L146.97287500000002,215.35195577144623L149.1665,222.13277943929043L151.360125,227.86801107724514L153.55375,227.99119877815247L155.74737499999998,227.1494659582774L157.94099999999997,242.87100680669155L160.134625,227.1047553221385L162.32825,251.1682101885478L164.521875,228.29367725054425L166.7155,246.8422320286433L168.909125,238.61668892701474L171.10275,239.44203344980878L173.296375,256.5694007078807L175.49,243.96426963806152L177.683625,232.99498943487805L179.87725,265.63323088486993L182.070875,246.63376915454865L184.2645,260.45478113492334L186.45812500000002,240.26638813813534L188.65175,253.00880738099423L190.845375,229.94631795088452L193.039,245.49135076999664L195.23262499999998,241.43203961849213L197.42624999999998,271.67511977752054L199.619875,236.19270571072903L201.8135,273.5891468127569L204.007125,236.08127462863922L206.20075,294.53847972551984L208.394375,226.87622495492306L210.588,273.4613694548607L212.78162500000002,229.43196821212769L214.97525000000002,277.5233186086019L217.168875,238.96420486768093L219.3625,292.03452068567276L221.556125,227.1482613484065L223.74974999999998,276.97072484095895L225.94337499999997,238.2758963902792L228.137,275.13365276654565L230.330625,240.92016446590424L232.52425,273.09608785311383L234.717875,228.60615678628292L236.9115,279.3040728370349L239.105125,233.52659591039028L241.29875,281.0656933784485L243.492375,231.2003355026245L245.686,284.99216594298684L247.879625,235.3009955883026L250.07325,289.42757683992386L252.266875,241.35314234097805L254.46050000000002,277.60745453834534L256.654125,248.66525499025983L258.84774999999996,254.17741902669277L261.041375,235.2782854239146L263.235,264.77933057149255L265.428625,256.41322163740796L267.62225,276.21027050415677L269.815875,256.4137539068858L272.0095,269.0467404127121L274.203125,281.34112415711087L276.39675,267.6324677268664L278.590375,239.36233309904736L280.784,261.69763036568963L282.977625,273.13139973084134L285.17125,288.1300999522209L287.364875,236.05481990178433L289.55850000000004,291.3757064739863L291.75212500000004,237.82046047846478L293.94575000000003,240.3080452283224L296.13937500000003,285.5000864267349L298.333,240.40759829680127L300.526625,280.3287756244342L302.72025,249.14356915156048L304.913875,289.1574267347654L307.1075,247.16864395141602L309.30112499999996,277.5382361610731L311.49474999999995,234.67588710784912L313.68837499999995,305.71649127205217L315.88199999999995,243.85874954859418L318.075625,276.04793298244476L320.26925,258.33584435780847L322.462875,258.703110297521L324.6565,264.6441341241201L326.850125,238.52568952242535L329.04375,272.48489775260293" style="fill: none;" fill="none"></path></g></g></g></g></g></g><g transform="translate(53, 376)" clip-path="url(#clip_1)"><clipPath id="clip_1"><rect width="1096" height="24"></rect></clipPath><g><g><line x1="0" y1="0" x2="0" y2="5" style="visibility: inherit;" fill="rgb(0, 0, 0)" stroke="rgb(204, 204, 204)" stroke-width="1px"></line><line x1="109.68125" y1="0" x2="109.68125" y2="5" style="visibility: inherit;" fill="rgb(0, 0, 0)" stroke="rgb(204, 204, 204)" stroke-width="1px"></line><line x1="219.3625" y1="0" x2="219.3625" y2="5" style="visibility: inherit;" fill="rgb(0, 0, 0)" stroke="rgb(204, 204, 204)" stroke-width="1px"></line><line x1="329.04375" y1="0" x2="329.04375" y2="5" style="visibility: inherit;" fill="rgb(0, 0, 0)" stroke="rgb(204, 204, 204)" stroke-width="1px"></line><line x1="438.725" y1="0" x2="438.725" y2="5" style="visibility: inherit;" fill="rgb(0, 0, 0)" stroke="rgb(204, 204, 204)" stroke-width="1px"></line><line x1="548.40625" y1="0" x2="548.40625" y2="5" style="visibility: inherit;" fill="rgb(0, 0, 0)" stroke="rgb(204, 204, 204)" stroke-width="1px"></line><line x1="658.0875" y1="0" x2="658.0875" y2="5" style="visibility: inherit;" fill="rgb(0, 0, 0)" stroke="rgb(204, 204, 204)" stroke-width="1px"></line><line x1="767.76875" y1="0" x2="767.76875" y2="5" style="visibility: inherit;" fill="rgb(0, 0, 0)" stroke="rgb(204, 204, 204)" stroke-width="1px"></line><line x1="877.45" y1="0" x2="877.45" y2="5" style="visibility: inherit;" fill="rgb(0, 0, 0)" stroke="rgb(204, 204, 204)" stroke-width="1px"></line><line x1="987.13125" y1="0" x2="987.13125" y2="5" style="visibility: inherit;" fill="rgb(0, 0, 0)" stroke="rgb(204, 204, 204)" stroke-width="1px"></line><line x1="1096.8125" y1="0" x2="1096.8125" y2="5" style="visibility: inherit;" fill="rgb(0, 0, 0)" stroke="rgb(204, 204, 204)" stroke-width="1px"></line></g><g transform="translate(0, 8)"><text x="0" y="0" dx="0em" dy="0.95em" style="text-anchor: middle; visibility: hidden; font-family: Roboto, sans-serif; font-size: 12px; font-weight: 200;" fill="rgb(33, 33, 33)" stroke="none" stroke-width="1px">-50</text><text x="109.68125" y="0" dx="0em" dy="0.95em" style="text-anchor: middle; visibility: inherit; font-family: Roboto, sans-serif; font-size: 12px; font-weight: 200;" fill="rgb(33, 33, 33)" stroke="none" stroke-width="1px">0</text><text x="219.3625" y="0" dx="0em" dy="0.95em" style="text-anchor: middle; visibility: inherit; font-family: Roboto, sans-serif; font-size: 12px; font-weight: 200;" fill="rgb(33, 33, 33)" stroke="none" stroke-width="1px">50</text><text x="329.04375" y="0" dx="0em" dy="0.95em" style="text-anchor: middle; visibility: inherit; font-family: Roboto, sans-serif; font-size: 12px; font-weight: 200;" fill="rgb(33, 33, 33)" stroke="none" stroke-width="1px">100</text><text x="438.725" y="0" dx="0em" dy="0.95em" style="text-anchor: middle; visibility: inherit; font-family: Roboto, sans-serif; font-size: 12px; font-weight: 200;" fill="rgb(33, 33, 33)" stroke="none" stroke-width="1px">150</text><text x="548.40625" y="0" dx="0em" dy="0.95em" style="text-anchor: middle; visibility: inherit; font-family: Roboto, sans-serif; font-size: 12px; font-weight: 200;" fill="rgb(33, 33, 33)" stroke="none" stroke-width="1px">200</text><text x="658.0875" y="0" dx="0em" dy="0.95em" style="text-anchor: middle; visibility: inherit; font-family: Roboto, sans-serif; font-size: 12px; font-weight: 200;" fill="rgb(33, 33, 33)" stroke="none" stroke-width="1px">250</text><text x="767.76875" y="0" dx="0em" dy="0.95em" style="text-anchor: middle; visibility: inherit; font-family: Roboto, sans-serif; font-size: 12px; font-weight: 200;" fill="rgb(33, 33, 33)" stroke="none" stroke-width="1px">300</text><text x="877.45" y="0" dx="0em" dy="0.95em" style="text-anchor: middle; visibility: inherit; font-family: Roboto, sans-serif; font-size: 12px; font-weight: 200;" fill="rgb(33, 33, 33)" stroke="none" stroke-width="1px">350</text><text x="987.13125" y="0" dx="0em" dy="0.95em" style="text-anchor: middle; visibility: inherit; font-family: Roboto, sans-serif; font-size: 12px; font-weight: 200;" fill="rgb(33, 33, 33)" stroke="none" stroke-width="1px">400</text><text x="1096.8125" y="0" dx="0em" dy="0.95em" style="text-anchor: middle; visibility: hidden; font-family: Roboto, sans-serif; font-size: 12px; font-weight: 200;" fill="rgb(33, 33, 33)" stroke="none" stroke-width="1px">450</text></g><line x1="0" y1="0" x2="1096.8125" y2="0" fill="rgb(0, 0, 0)" stroke="rgb(204, 204, 204)" stroke-width="1px"></line></g></g></g></g></svg>