<svg viewBox="0 0 1150 400" xmlns="http://www.w3.org/2000/svg"><g><g><g><g><g><line x1="63.984375" y1="376" x2="58.984375" y2="376" style="visibility: inherit;" fill="rgb(0, 0, 0)" stroke="rgb(204, 204, 204)" stroke-width="1px"></line><line x1="63.984375" y1="334.22222222222223" x2="58.984375" y2="334.22222222222223" style="visibility: inherit;" fill="rgb(0, 0, 0)" stroke="rgb(204, 204, 204)" stroke-width="1px"></line><line x1="63.984375" y1="292.44444444444446" x2="58.984375" y2="292.44444444444446" style="visibility: inherit;" fill="rgb(0, 0, 0)" stroke="rgb(204, 204, 204)" stroke-width="1px"></line><line x1="63.984375" y1="250.66666666666669" x2="58.984375" y2="250.66666666666669" style="visibility: inherit;" fill="rgb(0, 0, 0)" stroke="rgb(204, 204, 204)" stroke-width="1px"></line><line x1="63.984375" y1="208.88888888888889" x2="58.984375" y2="208.88888888888889" style="visibility: inherit;" fill="rgb(0, 0, 0)" stroke="rgb(204, 204, 204)" stroke-width="1px"></line><line x1="63.984375" y1="167.11111111111111" x2="58.984375" y2="167.11111111111111" style="visibility: inherit;" fill="rgb(0, 0, 0)" stroke="rgb(204, 204, 204)" stroke-width="1px"></line><line x1="63.984375" y1="125.33333333333334" x2="58.984375" y2="125.33333333333334" style="visibility: inherit;" fill="rgb(0, 0, 0)" stroke="rgb(204, 204, 204)" stroke-width="1px"></line><line x1="63.984375" y1="83.55555555555551" x2="58.984375" y2="83.55555555555551" style="visibility: inherit;" fill="rgb(0, 0, 0)" stroke="rgb(204, 204, 204)" stroke-width="1px"></line><line x1="63.984375" y1="41.77777777777776" x2="58.984375" y2="41.77777777777776" style="visibility: inherit;" fill="rgb(0, 0, 0)" stroke="rgb(204, 204, 204)" stroke-width="1px"></line><line x1="63.984375" y1="0" x2="58.984375" y2="0" style="visibility: inherit;" fill="rgb(0, 0, 0)" stroke="rgb(204, 204, 204)" stroke-width="1px"></line></g><g transform="translate(53.984375, 0)"><text x="0" y="376" dx="0em" dy="0.3em" style="text-anchor: end; visibility: hidden; font-family: Roboto, sans-serif; font-size: 12px; font-weight: 200;" fill="rgb(33, 33, 33)" stroke="none" stroke-width="1px">0</text><text x="0" y="334.22222222222223" dx="0em" dy="0.3em" style="text-anchor: end; visibility: inherit; font-family: Roboto, sans-serif; font-size: 12px; font-weight: 200;" fill="rgb(33, 33, 33)" stroke="none" stroke-width="1px">5e-3</text><text x="0" y="292.44444444444446" dx="0em" dy="0.3em" style="text-anchor: end; visibility: inherit; font-family: Roboto, sans-serif; font-size: 12px; font-weight: 200;" fill="rgb(33, 33, 33)" stroke="none" stroke-width="1px">0.01</text><text x="0" y="250.66666666666669" dx="0em" dy="0.3em" style="text-anchor: end; visibility: inherit; font-family: Roboto, sans-serif; font-size: 12px; font-weight: 200;" fill="rgb(33, 33, 33)" stroke="none" stroke-width="1px">0.015</text><text x="0" y="208.88888888888889" dx="0em" dy="0.3em" style="text-anchor: end; visibility: inherit; font-family: Roboto, sans-serif; font-size: 12px; font-weight: 200;" fill="rgb(33, 33, 33)" stroke="none" stroke-width="1px">0.02</text><text x="0" y="167.11111111111111" dx="0em" dy="0.3em" style="text-anchor: end; visibility: inherit; font-family: Roboto, sans-serif; font-size: 12px; font-weight: 200;" fill="rgb(33, 33, 33)" stroke="none" stroke-width="1px">0.025</text><text x="0" y="125.33333333333334" dx="0em" dy="0.3em" style="text-anchor: end; visibility: inherit; font-family: Roboto, sans-serif; font-size: 12px; font-weight: 200;" fill="rgb(33, 33, 33)" stroke="none" stroke-width="1px">0.03</text><text x="0" y="83.55555555555551" dx="0em" dy="0.3em" style="text-anchor: end; visibility: inherit; font-family: Roboto, sans-serif; font-size: 12px; font-weight: 200;" fill="rgb(33, 33, 33)" stroke="none" stroke-width="1px">0.035</text><text x="0" y="41.77777777777776" dx="0em" dy="0.3em" style="text-anchor: end; visibility: inherit; font-family: Roboto, sans-serif; font-size: 12px; font-weight: 200;" fill="rgb(33, 33, 33)" stroke="none" stroke-width="1px">0.04</text><text x="0" y="0" dx="0em" dy="0.3em" style="text-anchor: end; visibility: hidden; font-family: Roboto, sans-serif; font-size: 12px; font-weight: 200;" fill="rgb(33, 33, 33)" stroke="none" stroke-width="1px">0.045</text></g><line x1="63.984375" y1="0" x2="63.984375" y2="376" fill="rgb(0, 0, 0)" stroke="rgb(204, 204, 204)" stroke-width="1px"></line></g></g><g transform="translate(63, 0)" clip-path="url(#clip_0)"><clipPath id="clip_0"><rect width="1086" height="376"></rect></clipPath><g><g><g><line x1="0" y1="0" x2="0" y2="376" fill="rgb(0, 0, 0)" stroke="rgb(66, 66, 66)" stroke-width="1px" opacity="0.25"></line><line x1="108.6015625" y1="0" x2="108.6015625" y2="376" fill="rgb(0, 0, 0)" stroke="rgb(66, 66, 66)" stroke-width="1px" opacity="0.25"></line><line x1="217.203125" y1="0" x2="217.203125" y2="376" fill="rgb(0, 0, 0)" stroke="rgb(66, 66, 66)" stroke-width="1px" opacity="0.25"></line><line x1="325.8046875" y1="0" x2="325.8046875" y2="376" fill="rgb(0, 0, 0)" stroke="rgb(66, 66, 66)" stroke-width="1px" opacity="0.25"></line><line x1="434.40625" y1="0" x2="434.40625" y2="376" fill="rgb(0, 0, 0)" stroke="rgb(66, 66, 66)" stroke-width="1px" opacity="0.25"></line><line x1="543.0078125" y1="0" x2="543.0078125" y2="376" fill="rgb(0, 0, 0)" stroke="rgb(66, 66, 66)" stroke-width="1px" opacity="0.25"></line><line x1="651.609375" y1="0" x2="651.609375" y2="376" fill="rgb(0, 0, 0)" stroke="rgb(66, 66, 66)" stroke-width="1px" opacity="0.25"></line><line x1="760.2109375" y1="0" x2="760.2109375" y2="376" fill="rgb(0, 0, 0)" stroke="rgb(66, 66, 66)" stroke-width="1px" opacity="0.25"></line><line x1="868.8125" y1="0" x2="868.8125" y2="376" fill="rgb(0, 0, 0)" stroke="rgb(66, 66, 66)" stroke-width="1px" opacity="0.25"></line><line x1="977.4140625" y1="0" x2="977.4140625" y2="376" fill="rgb(0, 0, 0)" stroke="rgb(66, 66, 66)" stroke-width="1px" opacity="0.25"></line><line x1="1086.015625" y1="0" x2="1086.015625" y2="376" fill="rgb(0, 0, 0)" stroke="rgb(66, 66, 66)" stroke-width="1px" opacity="0.25"></line></g><g><line x1="0" y1="376" x2="1086.015625" y2="376" fill="rgb(0, 0, 0)" stroke="rgb(66, 66, 66)" stroke-width="1px" opacity="0.25"></line><line x1="0" y1="334.22222222222223" x2="1086.015625" y2="334.22222222222223" fill="rgb(0, 0, 0)" stroke="rgb(66, 66, 66)" stroke-width="1px" opacity="0.25"></line><line x1="0" y1="292.44444444444446" x2="1086.015625" y2="292.44444444444446" fill="rgb(0, 0, 0)" stroke="rgb(66, 66, 66)" stroke-width="1px" opacity="0.25"></line><line x1="0" y1="250.66666666666669" x2="1086.015625" y2="250.66666666666669" fill="rgb(0, 0, 0)" stroke="rgb(66, 66, 66)" stroke-width="1px" opacity="0.25"></line><line x1="0" y1="208.88888888888889" x2="1086.015625" y2="208.88888888888889" fill="rgb(0, 0, 0)" stroke="rgb(66, 66, 66)" stroke-width="1px" opacity="0.25"></line><line x1="0" y1="167.11111111111111" x2="1086.015625" y2="167.11111111111111" fill="rgb(0, 0, 0)" stroke="rgb(66, 66, 66)" stroke-width="1px" opacity="0.25"></line><line x1="0" y1="125.33333333333334" x2="1086.015625" y2="125.33333333333334" fill="rgb(0, 0, 0)" stroke="rgb(66, 66, 66)" stroke-width="1px" opacity="0.25"></line><line x1="0" y1="83.55555555555551" x2="1086.015625" y2="83.55555555555551" fill="rgb(0, 0, 0)" stroke="rgb(66, 66, 66)" stroke-width="1px" opacity="0.25"></line><line x1="0" y1="41.77777777777776" x2="1086.015625" y2="41.77777777777776" fill="rgb(0, 0, 0)" stroke="rgb(66, 66, 66)" stroke-width="1px" opacity="0.25"></line><line x1="0" y1="0" x2="1086.015625" y2="0" fill="rgb(0, 0, 0)" stroke="rgb(66, 66, 66)" stroke-width="1px" opacity="0.25"></line></g></g></g><g><g><line x1="0" y1="376" x2="1086.015625" y2="376" fill="rgb(0, 0, 0)" stroke="rgb(153, 153, 153)" stroke-width="1.5px"></line></g></g><g><g><line x1="108.6015625" y1="0" x2="108.6015625" y2="376" fill="rgb(0, 0, 0)" stroke="rgb(153, 153, 153)" stroke-width="1.5px"></line></g></g><g><g><g><g><g><path stroke="rgb(255, 112, 67)" stroke-width="2px" d="M110.77359374999999,-37.27957386771849L112.94562499999999,32.60043798066051L115.11765625,63.36498348560993L117.2896875,89.07166677201863L119.46171875,116.9801435031851L121.63375,145.7673980516242L123.80578125000001,158.97821424792022L125.97781250000001,173.0587395160547L128.14984375,181.1135352001262L130.321875,191.63300501703822L132.49390625,192.27665577599564L134.6659375,194.1492526732845L136.83796875,203.66615331639838L139.01,203.4994873330258L141.18203125,205.87258061682388L143.3540625,204.5666969493139L145.52609375,211.58819862660332L147.698125,211.12896239603447L149.87015625,213.34750173860533L152.0421875,216.79118799431262L154.21421875,220.19998925832016L156.38625,218.67025469131116L158.55828125,221.56363238677582L160.7303125,221.15418725966651L162.90234375,223.69477274922116L165.074375,226.27787793619584L167.24640625,233.41229547122174L169.4184375,235.951294561297L171.59046875,234.0111684682826L173.76250000000002,231.97536629949292L175.93453125,232.4720698583909L178.1065625,230.95122435711045L180.27859375,230.82516862402133L182.450625,234.9677428567258L184.62265625,229.88832483267663L186.79468749999998,229.22519774965858L188.96671874999998,232.1017873139646L191.13875,235.63925018213334L193.31078125,233.91623966246283L195.4828125,235.04944869446572L197.65484375,236.90995404088645L199.826875,236.4317273010604L201.99890625,239.28584106672335L204.1709375,238.58496216076395L206.34296875,239.88698335512657L208.51500000000001,245.81537888086677L210.68703125000002,243.21862776189613L212.85906250000002,243.3332603825386L215.03109375,246.24528966004883L217.203125,245.86410476823272L219.37515625,244.10851502586002L221.54718749999998,241.74006337159946L223.71921874999998,239.42700834016202L225.89124999999999,248.06309824153448L228.06328125,252.0782353750098L230.2353125,256.05875146416287L232.40734375,254.81296791251955L234.579375,253.48908106389842L236.75140625,250.26800789775356L238.9234375,252.78759896826563L241.09546875,249.8621217917378L243.2675,254.80343918137274L245.43953125000002,260.31404340081264L247.61156250000002,257.64333096498626L249.78359375000002,260.0679329780667L251.95562500000003,259.804048957635L254.12765625,259.1681389782085L256.2996875,258.83216584099193L258.47171875,261.96891075727393L260.64375,264.43556079150136L262.81578125,258.15321288898787L264.9878125,261.5846475743961L267.15984375,259.40288010341203L269.331875,260.47879153087433L271.50390625,262.59594209879793L273.6759375,257.74914569789263L275.84796875,260.8372484976761L278.02,263.7077627288793L280.19203125,264.55225306727783L282.3640625,266.29488633593235L284.53609375,268.6398948395801L286.708125,265.851281113631L288.88015625,265.7718771037034L291.0521875,264.98750837398336L293.22421875000003,263.47066634348687L295.39625,264.89894233615195L297.56828125000004,264.7438146394087L299.7403125,267.69452881213255L301.91234375000005,266.2242330435687L304.084375,265.71439831464795L306.25640625,269.61026074958096L308.4284375,267.73062270101593L310.60046874999995,270.95498016605785L312.7725,272.4926461220914L314.94453124999995,273.2922603194595L317.1165625,273.7273555539855L319.28859374999996,271.6559922793526L321.460625,272.1589621735358L323.63265624999997,272.48625258005126L325.8046875,270.80809200509935L327.97671875,268.6506811766763L330.14875,269.33228355977576L332.32078125,271.4935414771257L334.4928125,271.451398813858L336.66484375,268.6778253659414L338.836875,272.52066270976104L341.00890625,271.14334358388817L343.1809375,272.07073957293017L345.35296875,275.3311123391781L347.52500000000003,273.60267719339754L349.69703125,271.57626099215804L351.8690625,272.89116899003034L354.04109375,276.09352320728374L356.213125,277.74794812247427L358.38515625,279.51045772314563L360.5571875,279.6952065122952L362.72921875000003,278.0705553573732L364.90125,278.38014647789316L367.07328125000004,278.55203412959816L369.2453125,277.7907237363581L371.41734375000004,276.8380491082835L373.58937499999996,274.36577539248407L375.76140625,277.59243887095204L377.93343749999997,278.1962691736598L380.10546875,279.20827540113805L382.2775,278.67533612727357L384.44953125,276.1074032467691L386.6215625,278.2164651310364L388.79359374999996,278.05672427682924L390.965625,274.5635095185834L393.13765624999996,277.4600224635414L395.3096875,277.46211230803004L397.48171874999997,280.7752184976712L399.65375,280.68803120842364L401.82578125,279.5653965067314L403.9978125,282.4260694551668L406.16984375,282.60592641111094L408.341875,281.8289908244099L410.51390625,280.09921550661306L412.6859375,284.1658986510103L414.85796875,284.65604980595504L417.03000000000003,283.4893658255659L419.20203125,283.28067440493965L421.37406250000004,289.25800070784925L423.54609375,288.4201974912497L425.71812500000004,285.05240234266466L427.89015625,285.4230688338655L430.0621875,286.1517534953131L432.23421875,286.22667553899L434.40625,288.49109288182245L436.57828125000003,288.20785069540966L438.7503125,287.82638896351557L440.92234375000004,285.44474957758155L443.09437499999996,287.79128097253755L445.26640625,288.5330972412026L447.43843749999996,287.9930464668351L449.61046875,290.304036284748L451.78249999999997,288.35762718434927L453.95453125,290.8560227606311L456.1265625,292.0938060607018L458.29859375,290.28128684182644L460.470625,293.0241234312966L462.64265625,294.3945051067049L464.8146875,295.7174845211822L466.98671874999997,294.96732649974075L469.15875,291.65906598564544L471.33078125,293.56127989925875L473.5028125,296.5138434633556L475.67484375,295.5268374481763L477.846875,292.72054222021296L480.01890625,291.9609498693838L482.1909375,292.0939498678091L484.36296875,290.8515489062812L486.535,293.9040564911254L488.70703125,291.74231044683313L490.87906250000003,294.71453716099336L493.05109375,294.072744504386L495.22312500000004,296.9611106357286L497.39515625,296.8468875353322L499.56718750000005,299.75329805468897L501.73921875,299.8174575285769L503.91125000000005,297.66406127777304L506.08328125,294.9670188670022L508.2553125,295.26944581006614L510.42734375,296.06814469629643L512.599375,297.8524981257697L514.7714062499999,298.1340129008321L516.9434375,296.73234083304044L519.11546875,297.67872028777543L521.2875,296.6942509512543L523.4595312499999,298.4801619059771L525.6315625,295.77838167125896L527.80359375,298.1729754720623L529.975625,300.521836200227L532.14765625,302.2850153465951L534.3196875,297.0584139968221L536.49171875,298.06471122177027L538.66375,298.72739404562066L540.83578125,295.520023496354L543.0078125,297.2256758930047L545.17984375,299.3014325678073L547.351875,297.8201073899369L549.52390625,298.92692751388086L551.6959375,299.48768771774434L553.86796875,302.3128802841119L556.04,302.32871052282985L558.21203125,301.43145181465246L560.3840625,299.18590604964425L562.5560937500001,303.47237709716404L564.728125,302.66393455399344L566.90015625,303.95554719289106L569.0721875,302.99838227515727L571.2442187500001,300.9057083781347L573.41625,301.0776414414384L575.58828125,300.0864365568508L577.7603125,302.80571366307964L579.9323437500001,303.39248163211374L582.104375,303.5396373406862L584.27640625,303.4065066630465L586.4484375000001,303.00015096726287L588.62046875,303.6064901880161L590.7925,302.6473581657517L592.96453125,301.85055134290707L595.1365625000001,303.0253631898749L597.30859375,302.5734170599838L599.480625,301.9259286358392L601.6526562500001,303.1362952756214L603.8246875000001,301.7102882948581L605.99671875,302.0284628125268L608.16875,302.4024682235065L610.3407812500001,302.88221452317026L612.5128125,300.6828417374906L614.6848437499999,303.03246907093757L616.856875,304.7927900561277L619.02890625,305.8103355253886L621.2009374999999,304.99977800558906L623.3729687499999,304.5268809635097L625.545,302.049031457291L627.71703125,305.3390138790921L629.8890624999999,302.0816005508982L632.0610937499999,303.66233390416005L634.233125,306.4421886818989L636.40515625,307.01512362663254L638.5771874999999,308.47618359389486L640.74921875,309.02311442862833L642.92125,310.66415294881523L645.09328125,309.2481986945753L647.2653124999999,308.30690148136995L649.43734375,308.4218592908368L651.609375,310.26861091982965L653.78140625,311.68314328510553L655.9534375,309.79753525553207L658.12546875,311.47039327322284L660.2975,311.69887937816617L662.4695312499999,311.6037303510068L664.6415625,310.7573304330298L666.81359375,309.9425110644426L668.985625,310.5765990974965L671.15765625,312.3607803759453L673.3296875,309.23401747807725L675.50171875,309.6114891025648L677.67375,311.47402526854825L679.84578125,314.66689523277955L682.0178125,315.7741169942515L684.18984375,315.05515171367506L686.361875,310.35933998922985L688.53390625,311.7893898455993L690.7059375,312.44053968666833L692.87796875,310.4805875062344L695.0500000000001,311.1396447933685L697.22203125,310.9859840581996L699.3940625,310.8627556840026L701.56609375,314.33400418569636L703.738125,313.9346982253193L705.91015625,311.4658097725007L708.0821875,314.0115699854694L710.2542187500001,314.87615140136626L712.42625,313.46106251922515L714.59828125,313.91587175503395L716.7703125,314.1036439830563L718.9423437500001,314.99467205769827L721.114375,316.2976852601787L723.28640625,312.1198233068929L725.4584375000001,312.9443862538107L727.6304687500001,311.45499616268677L729.8025,313.34483577187234L731.97453125,313.7615671133852L734.1465625000001,312.31385615787707L736.3185937500001,313.48972022658995L738.490625,314.6693008986697L740.66265625,315.2678671361888L742.8346875000001,316.22767298444745L745.00671875,316.8862387983148L747.1787499999999,317.9251193115003L749.35078125,317.45761735293587L751.5228125,319.0511482977072L753.6948437499999,318.7637546314716L755.8668749999999,316.9119957783837L758.03890625,316.27581977772155L760.2109375,317.236802843774L762.3829687499999,318.1849230043148L764.555,319.82436800008674L766.72703125,320.4242904928333L768.8990625,318.75919207680926L771.0710937499999,318.9630169131612L773.243125,319.4541014149739L775.41515625,320.194537141817L777.5871874999999,317.62264689141347L779.75921875,317.70511352949967L781.93125,317.4269193949982L784.10328125,318.7262185645379L786.2753124999999,315.9789773933788L788.44734375,318.3871953395625L790.619375,320.16775002723654L792.79140625,319.2230132167945L794.9634374999999,318.7580913974754L797.13546875,320.696832859948L799.3075,319.22768145004335L801.47953125,321.83532753175814L803.6515625,320.4381343545363L805.82359375,321.29876659311594L807.995625,321.053073002219L810.16765625,320.9690124789793L812.3396875,320.9571983853927L814.51171875,318.98533364507597L816.68375,320.37106402672487L818.85578125,320.0620293005403L821.0278125,320.7906661236078L823.19984375,322.7307282079201L825.371875,321.8918883290587L827.54390625,317.57548523598433L829.7159375,316.7920010155318L831.88796875,318.0748092756861L834.0600000000001,317.98773802807426L836.23203125,320.93518707713446L838.4040625,322.01385549575L840.57609375,324.0651024996103L842.7481250000001,324.5311880122936L844.92015625,324.0530572248952L847.0921875,324.70135287987597L849.26421875,322.1983498963559L851.4362500000001,323.37707742913295L853.60828125,324.425237218389L855.7803125,324.0300061516392L857.9523437500001,322.8613959253619L860.124375,321.8123356574582L862.29640625,322.21064804834964L864.4684375,321.87354092835426L866.6404687500001,323.6402177157345L868.8125,323.4966597800856L870.98453125,324.02324811755716L873.1565625000001,324.6410150337563L875.3285937500001,324.3943997798702L877.500625,323.930194078585L879.67265625,323.6969353522396L881.8446875000001,325.89858918381947L884.01671875,326.1423770036558L886.1887499999999,326.11303189473904L888.36078125,326.3905511350751L890.5328125,325.6178794109946L892.7048437499999,327.5199340637335L894.8768749999999,325.79703102047097L897.04890625,326.2238195219395L899.2209375,327.77023834459527L901.3929687499999,327.40530356980224L903.5649999999999,327.27205987966835L905.73703125,325.8268580183526L907.9090625,324.86129506234505L910.0810937499999,324.8689991634671L912.253125,325.12532905879453L914.42515625,324.7354370695257L916.5971875,326.65873715398794L918.7692187499999,327.93421627287256L920.94125,327.5692715292756L923.11328125,327.13862640334673L925.2853125,328.74654887124007L927.45734375,328.9120950619624L929.629375,327.8981220224315L931.80140625,326.31911834802446L933.9734374999999,327.54984377658104L936.14546875,327.1185188065116L938.3175,325.9852175231198L940.48953125,327.7728536158057L942.6615625,328.12722943533305L944.83359375,328.2766533737577L947.005625,330.5698940370267L949.17765625,331.4828075668816L951.3496875,327.7546139684944L953.52171875,328.90337213376273L955.69375,329.30361715720227L957.86578125,331.14712014191366L960.0378125,330.92987239065246L962.20984375,329.65125039108744L964.381875,328.51088313923503L966.5539062500001,329.22746998998593L968.7259375,329.5495363688453L970.89796875,327.4209965013389L973.07,327.2201790497456L975.24203125,328.61577725656684" style="fill: none;" fill="none"></path></g><g><path stroke="rgb(187, 187, 187)" stroke-width="2px" d="M108.6015625,288.1841271718343L110.77359374999999,270.4977715197537L112.94562499999999,273.48995604834045L115.11765625,274.9299960665746L117.2896875,269.39115144830686L119.46171875,268.94077279311824L121.63375,265.8627137242172L123.80578125000001,263.90654397576355L125.97781250000001,266.51562140275433L128.14984375,270.1726435814576L130.321875,268.2005546473979L132.49390625,267.2037963590401L134.6659375,263.91297841398585L136.83796875,265.3984845305958L139.01,262.0011524210324L141.18203125,264.35372858392105L143.3540625,266.1472579742385L145.52609375,266.1623974502662L147.698125,265.5587010365064L149.87015625,258.21701276303725L152.0421875,257.43476195930265L154.21421875,261.84700791047675L156.38625,267.83345165356695L158.55828125,267.9945549244288L160.7303125,270.54832247734305L162.90234375,272.4867255683097L165.074375,267.62972598439035L167.24640625,269.1714338673755L169.4184375,269.9752219004184L171.59046875,269.0161551563614L173.76250000000002,271.806955955121L175.93453125,270.51595415034683L178.1065625,267.70622846923885L180.27859375,270.853832807246L182.450625,270.182515290093L184.62265625,269.355530910466L186.79468749999998,268.6584443549199L188.96671874999998,274.5423782348495L191.13875,276.57512833411545L193.31078125,275.9513922283096L195.4828125,277.0532521107119L197.65484375,275.5022747647245L199.826875,276.5124300296264L201.99890625,277.6808549974162L204.1709375,276.7138210118414L206.34296875,276.7156513017113L208.51500000000001,282.560069170053L210.68703125000002,282.9927235853833L212.85906250000002,284.6677110441053L215.03109375,282.2434967108883L217.203125,279.9374521158349L219.37515625,285.7385948700537L221.54718749999998,276.87011504321055L223.71921874999998,272.5606908886512L225.89124999999999,270.12759229871756L228.06328125,275.60918080012084L230.2353125,278.7257657453761L232.40734375,278.94856367937797L234.579375,277.2029638859222L236.75140625,282.48924349912903L238.9234375,284.934777811183L241.09546875,287.5955710752224L243.2675,284.382245256442L245.43953125000002,288.3629327737917L247.61156250000002,288.6460856537863L249.78359375000002,289.0816701191505L251.95562500000003,291.8927410062191L254.12765625,287.5449822144001L256.2996875,288.7970922375162L258.47171875,291.3942407863667L260.64375,291.7753303665319L262.81578125,289.40925445268937L264.9878125,292.2531216614733L267.15984375,292.40364942987503L269.331875,292.3127454534886L271.50390625,294.9929880813854L273.6759375,290.67459627684536L275.84796875,290.71330235949443L278.02,292.4283616641902L280.19203125,294.42421028148925L282.3640625,293.3933250362252L284.53609375,295.8009948855716L286.708125,290.3115075318992L288.88015625,292.77190964090045L291.0521875,293.17654615111144L293.22421875000003,294.96577944040496L295.39625,300.0032142580362L297.56828125000004,299.0730980345097L299.7403125,298.64150922415246L301.91234375000005,297.0296296439292L304.084375,296.99344432523185L306.25640625,297.69814090035555L308.4284375,295.87048925354736L310.60046874999995,295.6510223365836L312.7725,297.94659372404624L314.94453124999995,300.8046075252153L317.1165625,296.26670306607826L319.28859374999996,297.69506779456316L321.460625,301.68014408502154L323.63265624999997,299.49115729873614" style="fill: none;" fill="none"></path></g><g><path stroke="rgb(0, 153, 136)" stroke-width="2px" d="M117.2896875,-2.8983423378595248L119.46171875,48.11820349485827L121.63375,69.79973212999134L123.80578125000001,88.0275278566579L125.97781250000001,121.11455109684256L128.14984375,134.23394890643277L130.321875,145.88720660550317L132.49390625,152.87792366989981L134.6659375,157.4885693953845L136.83796875,172.22274291660344L139.01,174.24011041758837L141.18203125,181.12031781091758L143.3540625,186.26782342248615L145.52609375,188.2540461514595L147.698125,192.4010469390387L149.87015625,187.21965497065818L152.0421875,190.78847348450836L154.21421875,200.07500645608113L156.38625,212.55802022341177L158.55828125,214.9747027483168L160.7303125,218.6148537661903L162.90234375,223.541487374229L165.074375,220.12681875321448L167.24640625,223.04679890923617L169.4184375,227.0748705871217L171.59046875,228.22441920200282L173.76250000000002,229.5456128793628L175.93453125,231.45676108112357L178.1065625,231.62467165476792L180.27859375,236.68769488613876L182.450625,231.16585588561077L184.62265625,233.62734105805228L186.79468749999998,238.25342476288856L188.96671874999998,243.59339679957975L191.13875,247.3224342794409L193.31078125,245.24106267797023L195.4828125,248.332607834278L197.65484375,251.17393298806692L199.826875,249.75055856846234L201.99890625,248.82832560661166L204.1709375,251.0184490149871L206.34296875,252.96076912886028L208.51500000000001,254.221203982119L210.68703125000002,256.8630404137541L212.85906250000002,258.63421558916787L215.03109375,258.01923842709226L217.203125,254.75335526420324L219.37515625,263.17678428200867L221.54718749999998,254.06325380308616L223.71921874999998,245.58143195755966L225.89124999999999,247.75453022535063L228.06328125,251.11767131669038L230.2353125,258.5497170575771L232.40734375,255.06960674520826L234.579375,255.7984911703855L236.75140625,256.1578583540791L238.9234375,257.56031509240785L241.09546875,264.2519505156431L243.2675,263.79417174127485L245.43953125000002,268.82124153349207L247.61156250000002,268.7493710677893L249.78359375000002,269.3774935156083L251.95562500000003,272.39734329481774L254.12765625,273.00155239323686L256.2996875,273.7218563220099L258.47171875,275.6686068094489L260.64375,275.31208790839014L262.81578125,266.4937478658244L264.9878125,271.4887145413966L267.15984375,272.73850909131164L269.331875,276.2757192170067L271.50390625,279.0976434855924L273.6759375,274.92948079628013L275.84796875,273.69403674648896L278.02,274.3746301770344L280.19203125,276.4673825685263L282.3640625,278.214480591196L284.53609375,280.9102784111369L286.708125,275.7849673577707L288.88015625,279.72210737690034L291.0521875,280.04767312581157L293.22421875000003,281.5848639288037L295.39625,286.5355587913354L297.56828125000004,283.776592809782L299.7403125,282.61100697182485L301.91234375000005,283.6399904919769L304.084375,283.28767899604605L306.25640625,284.0107300754307L308.4284375,281.6552383203193L310.60046874999995,282.27130936311323L312.7725,283.63856817387193L314.94453124999995,287.87059339014945L317.1165625,283.3010508253537L319.28859374999996,283.62352907862436L321.460625,288.5380657632189L323.63265624999997,285.6778943980491" style="fill: none;" fill="none"></path></g><g><path stroke="rgb(51, 187, 238)" stroke-width="2px" d="M108.6015625,125.05823965867357L110.77359374999999,116.1312770528926L112.94562499999999,106.17700426027079L115.11765625,106.40238928926344L117.2896875,103.35354964036749L119.46171875,95.38174324362902L121.63375,97.83793109219715L123.80578125000001,83.89115992912818L125.97781250000001,87.97027138832267L128.14984375,98.06350675107228L130.321875,99.94536755448297L132.49390625,105.86069897411231L134.6659375,110.97585814227149L136.83796875,109.05807697570806L139.01,120.90525580815576L141.18203125,120.15709324614811L143.3540625,116.95020380404252L145.52609375,122.8920987003626L147.698125,116.59455253355324L149.87015625,122.97032630505677L152.0421875,119.04332432732379L154.21421875,108.31639285151195L156.38625,114.89736046281311L158.55828125,106.72217100052094L160.7303125,112.054452412174L162.90234375,120.5884743787337L165.074375,104.70524790878993L167.24640625,112.98078703646324L169.4184375,114.11987892761151L171.59046875,120.930285994976L173.76250000000002,118.78565120481873L175.93453125,120.67491962716817L178.1065625,123.83108602061652L180.27859375,118.9281525603554L182.450625,111.16874985551458L184.62265625,114.17279612798585L186.79468749999998,116.75847553291176L188.96671874999998,119.59947562193405L191.13875,122.02253985930223L193.31078125,118.98335165886364L195.4828125,134.0655515712102L197.65484375,135.81688423171082L199.826875,121.18637134138167L201.99890625,118.68630972231547L204.1709375,118.05283236266946L206.34296875,117.95541527923397L208.51500000000001,119.79096659263755L210.68703125000002,118.03607088334535L212.85906250000002,124.35013522982136L215.03109375,116.91527658596634L217.203125,116.16031409703992L219.37515625,123.19240881910625L221.54718749999998,123.09408240927328L223.71921874999998,128.29412066719655L225.89124999999999,121.3689361479739L228.06328125,115.94562959539509L230.2353125,113.65918084171597L232.40734375,116.17572999906882L234.579375,120.71901655740977L236.75140625,122.29531754714056L238.9234375,118.64456833929229L241.09546875,125.73264035236431L243.2675,129.3979701133995L245.43953125000002,132.70741984706368L247.61156250000002,133.14152104665916L249.78359375000002,136.57905158936364L251.95562500000003,123.62850775576594L254.12765625,125.20782789145092L256.2996875,128.86586066152495L258.47171875,132.14257562199734L260.64375,130.0547344236609L262.81578125,143.10322034585033L264.9878125,147.78253411587608L267.15984375,135.9209436536026L269.331875,136.7218993957952L271.50390625,137.46478520039076L273.6759375,138.9514614713392L275.84796875,142.0292334010191L278.02,140.11493645674577L280.19203125,134.47488167491179L282.3640625,150.9429751127691L284.53609375,141.2155465431185L286.708125,137.84815366350642L288.88015625,144.80785107185264L291.0521875,142.72381316034554L293.22421875000003,142.67459500476855L295.39625,142.04288368344717L297.56828125000004,147.91825359416254L299.7403125,154.3613892688819L301.91234375000005,155.09816113213842L304.084375,160.1310702853079L306.25640625,150.34979086342173L308.4284375,146.01616308888094L310.60046874999995,152.20606511712253L312.7725,149.41747244789974L314.94453124999995,158.23164415714007L317.1165625,159.87303672049558L319.28859374999996,159.7824824759212L321.460625,156.01223040805672L323.63265624999997,161.78438500475733L325.8046875,159.56969466421782" style="fill: none;" fill="none"></path></g></g></g></g><g opacity="0.2"><g><g><g><path stroke="rgb(255, 112, 67)" stroke-width="2px" d="M108.6015625,-120.76660564210684L110.77359374999999,12.812645196914673L112.94562499999999,99.68524935510423L115.11765625,99.54408899943033L117.2896875,122.63431247075395L119.46171875,155.58761387401157L121.63375,186.9336326519648L123.80578125000001,178.2397110859553L125.97781250000001,193.82477928532492L128.14984375,193.07396805286407L130.321875,207.31679892539978L132.49390625,193.23862919542523L134.6659375,196.95203366544507L136.83796875,217.92285968197714L139.01,203.24968426757388L141.18203125,209.4305468532774L143.3540625,202.6084240542518L145.52609375,222.1186683840222L147.698125,210.4401780101988L149.87015625,216.67510796917807L152.0421875,221.956528517935L154.21421875,225.3130789862739L156.38625,216.37568304273816L158.55828125,225.9036646551556L160.7303125,220.5400224791633L162.90234375,227.50564014911652L165.074375,230.1525291071998L167.24640625,244.11391082074908L169.4184375,239.75979085763294L171.59046875,231.10098040103912L173.76250000000002,228.92166372140247L175.93453125,233.21712509791055L178.1065625,228.66995628674823L180.27859375,230.63608503341675L182.450625,241.1816040277481L184.62265625,222.26919792758096L186.79468749999998,228.23050713539124L188.96671874999998,236.4166716337204L191.13875,240.94544446468353L193.31078125,231.3317238887151L195.4828125,236.74926224019794L197.65484375,239.70071205827924L199.826875,235.71438719166648L201.99890625,243.56701171398163L204.1709375,237.53364380200702L206.34296875,241.8400151464674L208.51500000000001,254.70797216892242L210.68703125000002,239.32350108358594L212.85906250000002,243.50520931349863L215.03109375,250.61333357625537L217.203125,245.29232743051318L219.37515625,241.47513041231366L221.54718749999998,238.18738589021893L223.71921874999998,235.95742579301196L225.89124999999999,261.0172330935796L228.06328125,258.10094107521905L230.2353125,262.0295255978902L232.40734375,252.94429258505502L234.579375,251.50325079096686L236.75140625,245.43639814853668L238.9234375,256.56698557403354L241.09546875,245.4739060269462L243.2675,262.2154152658251L245.43953125000002,268.57994972997244L247.61156250000002,253.63726231124667L249.78359375000002,263.70483599768744L251.95562500000003,259.40822292698755L254.12765625,258.2142740090688L256.2996875,258.328206135167L258.47171875,266.6740281316969L260.64375,268.1355358428425L262.81578125,248.7296910352177L264.9878125,266.73179960250854L267.15984375,256.13022889693576L269.331875,262.09265867206784L271.50390625,265.7716679506832L273.6759375,250.47895109653473L275.84796875,265.46940269735126L278.02,268.013534075684L280.19203125,265.81898857487573L282.3640625,268.9088362389141L284.53609375,272.15740759505167L286.708125,261.6683605247074L288.88015625,265.6527710888121L291.0521875,263.8109552794033L293.22421875000003,261.1954032977422L295.39625,267.04135632514954L297.56828125000004,264.5111230942938L299.7403125,272.1206000712183L301.91234375000005,264.0187893907229L304.084375,264.94964622126685L306.25640625,275.4540544019805L308.4284375,264.9111656281683L310.60046874999995,275.79151636362076L312.7725,274.79914505614175L314.94453124999995,274.49168161551154L317.1165625,274.3799984057744L319.28859374999996,268.54894736740323L321.460625,272.91341701481076L323.63265624999997,272.9771881898244L325.8046875,268.2908511426714L327.97671875,265.4145649340418L330.14875,270.3546871344248L332.32078125,274.73542835315067L334.4928125,271.3881848189566L336.66484375,264.51746519406635L338.836875,278.28491872549057L341.00890625,269.07736489507886L343.1809375,273.4618335564931L345.35296875,280.22167148855L347.52500000000003,271.0100244747268L349.69703125,268.5366366902987L351.8690625,274.8635309868389L354.04109375,280.89705453316367L356.213125,280.22958549526004L358.38515625,282.15422212415274L360.5571875,279.9723296960195L362.72921875000003,275.63357862499026L364.90125,278.8445331586732L367.07328125000004,278.8098656071557L369.2453125,276.6487581464979L371.41734375000004,275.40903716617163L373.58937499999996,270.6573648187849L375.76140625,282.43243408865396L377.93343749999997,279.1020146277216L380.10546875,280.72628474235535L382.2775,277.87592721647684L384.44953125,272.25550392601224L386.6215625,281.3800579574373L388.79359374999996,277.8171129955186L390.965625,269.32368738121454L393.13765624999996,281.8047918809785L395.3096875,277.46524707476294L397.48171874999997,285.7448777821329L399.65375,280.55725027455225L401.82578125,277.8814444541931L403.9978125,286.7170788778199L406.16984375,282.87571184502707L408.341875,280.6635874443584L410.51390625,277.5045525299178L412.6859375,290.26592336760626L414.85796875,285.39127653837204L417.03000000000003,281.7393398549822L419.20203125,282.96763727400037L421.37406250000004,298.2239901622136L423.54609375,287.16349266635046L425.71812500000004,280.000709619787L427.89015625,285.97906857066687L430.0621875,287.2447804874844L432.23421875,286.33905860450534L434.40625,291.8877188960711L436.57828125000003,287.78298741579056L438.7503125,287.2541963656743L440.92234375000004,281.8722904986805L443.09437499999996,291.3110780649715L445.26640625,289.6458216442002L447.43843749999996,287.18297030528385L449.61046875,293.77052101161746L451.78249999999997,285.43801353375113L453.95453125,294.6036161250538L456.1265625,293.9504810108079L458.29859375,287.56250801351337L460.470625,297.13837831550177L462.64265625,296.45007761981753L464.8146875,297.70195364289816L466.98671874999997,293.8420894675785L469.15875,286.69667521450253L471.33078125,296.4146007696787L473.5028125,300.9426888095008L475.67484375,294.0463284254074L477.846875,288.5110993782679L480.01890625,290.82156134314005L482.1909375,292.29344986544714L484.36296875,288.98794746398926L486.535,298.48281786839163L488.70703125,288.49969138039484L490.87906250000003,299.17287723223365L493.05109375,293.1100555194749L495.22312500000004,301.2936598327425L497.39515625,296.6755528847376L499.56718750000005,304.1129138337241L501.73921875,299.9136967394087L503.91125000000005,294.43396690156726L506.08328125,290.921455250846L508.2553125,295.7230862246619L510.42734375,297.266193025642L512.599375,300.5290282699797L514.7714062499999,298.55628506342566L516.9434375,294.6298327313529L519.11546875,299.09828946987784L521.2875,295.21754694647257L523.4595312499999,301.15902833806143L525.6315625,291.72571131918164L527.80359375,301.76486617326736L529.975625,304.0451272924741L532.14765625,304.92978406614725L534.3196875,289.21851197216245L536.49171875,299.57415705919266L538.66375,299.7214182813962L540.83578125,290.708967672454L543.0078125,299.78415448798074L545.17984375,302.41506758001117L547.351875,295.5981196231312L549.52390625,300.5871576997969L551.6959375,300.32882802353964L553.86796875,306.5506691336632L556.04,302.35245588090686L558.21203125,300.0855637523863L560.3840625,295.81758740213184L562.5560937500001,309.9020836684439L564.728125,301.45127073923743L566.90015625,305.8929661512375L569.0721875,301.5626348985566L571.2442187500001,297.7666975326008L573.41625,301.3355410363939L575.58828125,298.5996292299694L577.7603125,306.8846293224229L579.9323437500001,304.27263358566495L582.104375,303.760370903545L584.27640625,303.206810646587L586.4484375000001,302.3906174235874L588.62046875,304.51599901914597L590.7925,301.20866013235513L592.96453125,300.65534110864L595.1365625000001,304.78758096032675L597.30859375,301.89549786514704L599.480625,300.95469599962234L601.6526562500001,304.95184523529474L603.8246875000001,299.5712778237131L605.99671875,302.5057245890299L608.16875,302.96347633997595L610.3407812500001,303.601833972666L612.5128125,297.383782558971L614.6848437499999,306.55691007110806L616.856875,307.43327153391306L619.02890625,307.3366537292798L621.2009374999999,303.7839417258898L623.3729687499999,303.8175354003906L625.545,298.33225719796286L627.71703125,310.27398751179373L629.8890624999999,297.1954805586073L632.0610937499999,306.03343393405277L634.233125,310.6119708485073L636.40515625,307.87452604373294L638.5771874999999,310.66777354478836L640.74921875,309.8435106807285L642.92125,313.12571072909566L645.09328125,307.12426731321546L647.2653124999999,306.89495566156177L649.43734375,308.5942960050371L651.609375,313.038738363319L653.78140625,313.80494183301926L655.9534375,306.9691232111719L658.12546875,313.9796802997589L660.2975,312.0416085355812L662.4695312499999,311.46100681026775L664.6415625,309.4877305560642L666.81359375,308.72028201156195L668.985625,311.52773114707736L671.15765625,315.0370522936185L673.3296875,304.5438731312752L675.50171875,310.17769653929605L677.67375,314.2678295175234L679.84578125,319.45620017912654L682.0178125,317.43494963645935L684.18984375,313.97670379281044L686.361875,303.31562240256204L688.53390625,313.93446463015346L690.7059375,313.41726444827185L692.87796875,307.5406592355834L695.0500000000001,312.1282307240698L697.22203125,310.75549295544624L699.3940625,310.67791312270697L701.56609375,319.5408769382371L703.738125,313.3357392847538L705.91015625,307.76247709327276L708.0821875,317.8302103049225L710.2542187500001,316.17302352521153L712.42625,311.33842919601335L714.59828125,314.5980856087473L716.7703125,314.38530232508975L718.9423437500001,316.33121416966117L721.114375,318.25220506389934L723.28640625,305.85303037696417L725.4584375000001,314.1812306741873L727.6304687500001,309.220911026001L729.8025,316.1795951856507L731.97453125,314.3866641256544L734.1465625000001,310.1422897246149L736.3185937500001,315.25351632965936L738.490625,316.4386719067891L740.66265625,316.1657164924675L742.8346875000001,317.66738175683554L745.00671875,317.87408751911585L747.1787499999999,319.48344008127845L749.35078125,316.75636441508925L751.5228125,321.4414447148641L753.6948437499999,318.3326641321182L755.8668749999999,314.13435749875174L758.03890625,315.32155577672853L760.2109375,318.6782774428526L762.3829687499999,319.60710324512587L764.555,322.28353549374475L766.72703125,321.32417423195307L768.8990625,316.2615444527732L771.0710937499999,319.2687541676892L773.243125,320.1907281676928L775.41515625,321.3051907320817L777.5871874999999,313.7648115158081L779.75921875,317.8288134866291L781.93125,317.009628193246L784.10328125,320.67516731884746L786.2753124999999,311.85811563664015L788.44734375,321.999522258838L790.619375,322.8385820587476L792.79140625,317.80590800113146L794.9634374999999,318.0607086684969L797.13546875,323.6049450536569L799.3075,317.0239543351862L801.47953125,325.74679665433035L803.6515625,318.34234458870355L805.82359375,322.58971495098535L807.995625,320.68453261587354L810.16765625,320.84292169411975L812.3396875,320.9394772450129L814.51171875,316.0275365346008L816.68375,322.44965959919824L818.85578125,319.59847721126346L821.0278125,321.8836213582092L823.19984375,325.64082133438853L825.371875,320.6336285107666L827.54390625,311.1008805963728L829.7159375,315.616774684853L831.88796875,319.9990216659175L834.0600000000001,317.85713115665646L836.23203125,325.3563606507248L838.4040625,323.63185812367334L840.57609375,327.14197300540076L842.7481250000001,325.23031628131866L844.92015625,323.3358610437976L847.0921875,325.67379636234705L849.26421875,318.4438454210758L851.4362500000001,325.1451687282986L853.60828125,325.997476902273L855.7803125,323.4371595515145L857.9523437500001,321.108480585946L860.124375,320.23874525560274L862.29640625,322.80811663468677L864.4684375,321.3678802483612L866.6404687500001,326.2902328968048L868.8125,323.2813228766123L870.98453125,324.81313062376444L873.1565625000001,325.56766540805495L875.3285937500001,324.0244768990411L877.500625,323.2338855266571L879.67265625,323.3470472627216L881.8446875000001,329.2010699311892L884.01671875,326.5080587334103L886.1887499999999,326.0690142313639L888.36078125,326.80682999557916L890.5328125,324.4588718248738L892.7048437499999,330.3730160428418L894.8768749999999,323.2126764555772L897.04890625,326.86400227414236L899.2209375,330.08986657857895L901.3929687499999,326.8579014076127L903.5649999999999,327.07219434446756L905.73703125,323.659055226379L907.9090625,323.41295062833365L910.0810937499999,324.88055531515016L912.253125,325.50982390178575L914.42515625,324.1505990856224L916.5971875,329.5436872806814L918.7692187499999,329.84743495119943L920.94125,327.02185441388025L923.11328125,326.49265871445334L925.2853125,331.15843257308006L927.45734375,329.16041434804595L929.629375,326.37716246313516L931.80140625,323.95061283641394L933.9734374999999,329.39593191941583L936.14546875,326.47153135140735L938.3175,324.2852655980322L940.48953125,330.45430775483453L942.6615625,328.6587931646241L944.83359375,328.50078928139476L947.005625,334.00975503193007L949.17765625,332.852177861664L951.3496875,322.1623235709137L953.52171875,330.62650938166513L955.69375,329.90398469236163L957.86578125,333.9123746189806L960.0378125,330.60400076376067L962.20984375,327.73331739173994L964.381875,326.8003322614564L966.5539062500001,330.3023502661122L968.7259375,330.0326359371344L970.89796875,324.22818670007916L973.07,326.91895287235576L975.24203125,330.70917456679877" style="fill: none;" fill="none"></path></g><g><path stroke="rgb(187, 187, 187)" stroke-width="2px" d="M108.6015625,288.1841271718343L110.77359374999999,259.8859581285053L112.94562499999999,276.3624531957838L115.11765625,276.6234831280178L117.2896875,262.1596359146966L119.46171875,268.31773697667654L121.63375,261.46104000674353L123.80578125000001,261.05442970328863L125.97781250000001,270.3635038203663L128.14984375,275.6028953128391L130.321875,265.26030794779456L132.49390625,265.7140832410918L134.6659375,258.9874965879652L136.83796875,267.6238334443834L139.01,256.90914769305124L141.18203125,267.8809336092737L143.3540625,268.8367930981848L145.52609375,266.1851028203964L147.698125,264.65324838293924L149.87015625,247.2051514122221L152.0421875,256.2614286541939L154.21421875,268.4652316504055L156.38625,276.8129990763134L158.55828125,268.2362079222997L160.7303125,274.3789556556278L162.90234375,275.39432193835574L165.074375,260.34423903624213L167.24640625,271.48399332496854L169.4184375,271.1809032095803L171.59046875,267.5775555703375L173.76250000000002,275.99315622780057L175.93453125,268.5794517000516L178.1065625,263.4916402830018L180.27859375,275.57523908880023L182.450625,269.1755390432146L184.62265625,268.11505436235007L186.79468749999998,267.6128145323859L188.96671874999998,283.3682790001233L191.13875,279.6242534716924L193.31078125,275.0157880716854L195.4828125,278.706041932106L197.65484375,273.17580874760944L199.826875,278.02766292625006L201.99890625,279.43349244859485L204.1709375,275.2632700337304L206.34296875,276.7183967365159L208.51500000000001,291.3266959720188L210.68703125000002,283.64170520835455L212.85906250000002,287.18019223213196L215.03109375,278.60717521111167L217.203125,276.4783852232827L219.37515625,294.4403090013398L221.54718749999998,263.56739530298444L223.71921874999998,266.09655465682346L225.89124999999999,266.47794441382086L228.06328125,283.83156355222064L230.2353125,283.4006431632572L232.40734375,279.28276058038074L234.579375,274.5845641957389L236.75140625,290.41866291893854L238.9234375,288.6030792792638L241.09546875,291.58676097128125L243.2675,279.5622565282716L245.43953125000002,294.33396404981613L247.61156250000002,289.07081497377817L249.78359375000002,289.73504681719675L251.95562500000003,296.1093473368221L254.12765625,281.0233440266715L256.2996875,290.6752572721905L258.47171875,295.2899636096424L260.64375,292.3469647367795L262.81578125,285.8601405819257L264.9878125,296.51892247464923L267.15984375,292.62944108247757L269.331875,292.17638948890897L271.50390625,299.01335202323065L273.6759375,284.1970085700353L275.84796875,290.77136148346796L278.02,295.00095062123404L280.19203125,297.4179832074377L282.3640625,291.84699716832904L284.53609375,299.4124996595913L286.708125,282.07727650139066L288.88015625,296.46251280440225L291.0521875,293.783500916428L293.22421875000003,297.6496293743451L295.39625,307.55936648448306L297.56828125000004,297.67792369922L299.7403125,297.99412600861655L301.91234375000005,294.6118102735943L304.084375,296.93916634718573L306.25640625,298.75518576304114L308.4284375,293.12901178333493L310.60046874999995,295.32182196113797L312.7725,301.38995080524023L314.94453124999995,305.09162822696896L317.1165625,289.45984637737274L319.28859374999996,299.83761488729056L321.460625,307.65775852070914L323.63265624999997,296.2076771193081" style="fill: none;" fill="none"></path></g><g><path stroke="rgb(0, 153, 136)" stroke-width="2px" d="M112.94562499999999,-56.421886920928955L115.11765625,33.029951943291536L117.2896875,59.71747665935089L119.46171875,118.69245233800676L121.63375,100.80466498268973L123.80578125000001,114.60382901297673L125.97781250000001,169.91148355272082L128.14984375,153.71472566657596L130.321875,163.26139896445804L132.49390625,163.3259560929404L134.6659375,164.3894834253523L136.83796875,194.29513741864096L139.01,177.26379032929736L141.18203125,191.4357764456007L143.3540625,193.98690358797708L145.52609375,191.2328759431839L147.698125,198.62091636657715L149.87015625,179.44804061783682L152.0421875,196.14150553279453L154.21421875,214.00450033611722L156.38625,231.28229441907672L158.55828125,218.5996979077657L160.7303125,224.0750544203652L162.90234375,230.9314167764452L165.074375,215.00482455889383L167.24640625,227.4267646604114L169.4184375,233.1169743935267L171.59046875,229.94874148898654L173.76250000000002,231.52740295728046L175.93453125,234.32348300351035L178.1065625,231.87653749518924L180.27859375,244.28222937054105L182.450625,222.88309762212964L184.62265625,237.3195687532425L186.79468749999998,245.19255024856992L188.96671874999998,251.60335480504565L191.13875,252.91599047846265L193.31078125,242.1190052827199L195.4828125,252.96992556254068L197.65484375,255.43592071533203L199.826875,247.61549694008298L201.99890625,247.444976164235L204.1709375,254.30363412698108L206.34296875,255.87424929936725L208.51500000000001,256.1118562618891L210.68703125000002,260.82579506105844L212.85906250000002,261.29097835222876L215.03109375,257.09677268399133L217.203125,249.85453051990933L219.37515625,275.81192780865564L221.54718749999998,240.39295808474222L223.71921874999998,232.85869918929208L225.89124999999999,251.01417762703366L228.06328125,256.1623829536968L230.2353125,269.69778566890295L232.40734375,249.84944127665628L234.579375,256.89181780815125L236.75140625,256.6969091296196L238.9234375,259.6640001999007L241.09546875,274.28940365049573L243.2675,263.1075035797225L245.43953125000002,276.36184622181787L247.61156250000002,268.64156536923514L249.78359375000002,270.3196771873368L251.95562500000003,276.92711796363193L254.12765625,273.90786604086554L256.2996875,274.80231221516925L258.47171875,278.58873254060745L260.64375,274.7773095568021L262.81578125,253.26623780197568L264.9878125,278.98116455475486L267.15984375,274.6132009161843L269.331875,281.58153440554935L271.50390625,283.33052988847095L273.6759375,268.67723676231174L275.84796875,271.8408706718021L278.02,275.3955203228527L280.19203125,279.6065111557642L282.3640625,280.83512762520047L284.53609375,284.95397514104843L286.708125,268.0970007777214L288.88015625,285.6278174055947L291.0521875,280.53602174917853L293.22421875000003,283.89065013329184L295.39625,293.961601085133L297.56828125000004,279.63814383745193L299.7403125,280.8626282148891L301.91234375000005,285.18346577220495L304.084375,282.7592117521498L306.25640625,285.0953066945076L308.4284375,278.1220006876522L310.60046874999995,283.19541592730417L312.7725,285.68945639001L314.94453124999995,294.2186312145657L317.1165625,276.44673697816L319.28859374999996,284.1072464585304L321.460625,295.9098707901107L323.63265624999997,281.3876373502943" style="fill: none;" fill="none"></path></g><g><path stroke="rgb(51, 187, 238)" stroke-width="2px" d="M108.6015625,125.05823965867357L110.77359374999999,110.77509948942397L112.94562499999999,96.62090237935381L115.11765625,106.66744208335876L117.2896875,99.37298459476894L119.46171875,84.35386514663696L121.63375,101.3503190146552L123.80578125000001,63.55663368437025L125.97781250000001,93.98616846402483L128.14984375,113.05078495873343L130.321875,102.75109042061698L132.49390625,114.70150513119167L134.6659375,118.6318950123257L136.83796875,106.18516235881383L139.01,138.66209814283582L141.18203125,119.03537706534067L143.3540625,112.14122668902078L145.52609375,131.80343239837222L147.698125,107.14919265111284L149.87015625,132.53340419133502L152.0421875,113.15303672684561L154.21421875,92.2263486120436L156.38625,124.76868195003932L158.55828125,94.45948364999559L160.7303125,120.05283663007948L162.90234375,133.38947093486786L165.074375,80.88044884469774L167.24640625,125.39408302307129L169.4184375,115.82851571506923L171.59046875,131.14589283201428L173.76250000000002,115.56869973076712L175.93453125,123.50882188479105L178.1065625,128.56533523400623L180.27859375,111.57375272115068L182.450625,99.52964613172743L184.62265625,118.67886545923021L186.79468749999998,120.63699460029602L188.96671874999998,123.86097572909459L191.13875,125.65713620185852L193.31078125,114.42456936836243L195.4828125,156.68885140948825L197.65484375,138.4438832203547L199.826875,99.24060201644897L201.99890625,114.93621729479894L204.1709375,117.10261632336508L206.34296875,117.80928965409593L208.51500000000001,122.5442935625712L210.68703125000002,115.40372731950548L212.85906250000002,133.8212317493227L215.03109375,105.76298862033421L217.203125,115.02787036365932L219.37515625,133.74055090215472L221.54718749999998,122.94659279452428L223.71921874999998,136.0941780540678L225.89124999999999,110.98115936915079L228.06328125,107.81066976653203L230.2353125,110.2295077111986L232.40734375,119.95055373509722L234.579375,127.53394639492035L236.75140625,124.65976903173659L238.9234375,113.16844452752005L241.09546875,136.36474837197196L243.2675,134.8959647549523L245.43953125000002,137.67159444755978L247.61156250000002,133.79267284605237L249.78359375000002,141.73534740342032L251.95562500000003,104.2026920053694L254.12765625,127.57680809497833L256.2996875,134.35290981663596L258.47171875,137.057648062706L260.64375,126.92297262615627L262.81578125,162.67594922913443L264.9878125,154.8015047709147L267.15984375,118.12855796019235L269.331875,137.92333300908405L271.50390625,138.5791139072842L273.6759375,141.18147587776184L275.84796875,146.64589129553897L278.02,137.24349104033573L280.19203125,126.01479950216081L282.3640625,175.64511526955496L284.53609375,126.62440368864272L286.708125,132.79706434408823L288.88015625,155.24739718437195L291.0521875,139.5977562930849L293.22421875000003,142.60076777140299L295.39625,141.09531670146518L297.56828125000004,156.7313084602356L299.7403125,164.0260927809609L301.91234375000005,156.20331892702313L304.084375,167.68043401506213L306.25640625,135.67787173059253L308.4284375,139.51572142706974L310.60046874999995,161.49091815948486L312.7725,145.23458344406552L314.94453124999995,171.45290172100067L317.1165625,162.33512556552887L319.28859374999996,159.64665110905963L321.460625,150.35685230625998L323.63265624999997,170.44261689980823L325.8046875,156.24765915340848" style="fill: none;" fill="none"></path></g></g></g></g></g></g><g transform="translate(63, 376)" clip-path="url(#clip_1)"><clipPath id="clip_1"><rect width="1086" height="24"></rect></clipPath><g><g><line x1="0" y1="0" x2="0" y2="5" style="visibility: inherit;" fill="rgb(0, 0, 0)" stroke="rgb(204, 204, 204)" stroke-width="1px"></line><line x1="108.6015625" y1="0" x2="108.6015625" y2="5" style="visibility: inherit;" fill="rgb(0, 0, 0)" stroke="rgb(204, 204, 204)" stroke-width="1px"></line><line x1="217.203125" y1="0" x2="217.203125" y2="5" style="visibility: inherit;" fill="rgb(0, 0, 0)" stroke="rgb(204, 204, 204)" stroke-width="1px"></line><line x1="325.8046875" y1="0" x2="325.8046875" y2="5" style="visibility: inherit;" fill="rgb(0, 0, 0)" stroke="rgb(204, 204, 204)" stroke-width="1px"></line><line x1="434.40625" y1="0" x2="434.40625" y2="5" style="visibility: inherit;" fill="rgb(0, 0, 0)" stroke="rgb(204, 204, 204)" stroke-width="1px"></line><line x1="543.0078125" y1="0" x2="543.0078125" y2="5" style="visibility: inherit;" fill="rgb(0, 0, 0)" stroke="rgb(204, 204, 204)" stroke-width="1px"></line><line x1="651.609375" y1="0" x2="651.609375" y2="5" style="visibility: inherit;" fill="rgb(0, 0, 0)" stroke="rgb(204, 204, 204)" stroke-width="1px"></line><line x1="760.2109375" y1="0" x2="760.2109375" y2="5" style="visibility: inherit;" fill="rgb(0, 0, 0)" stroke="rgb(204, 204, 204)" stroke-width="1px"></line><line x1="868.8125" y1="0" x2="868.8125" y2="5" style="visibility: inherit;" fill="rgb(0, 0, 0)" stroke="rgb(204, 204, 204)" stroke-width="1px"></line><line x1="977.4140625" y1="0" x2="977.4140625" y2="5" style="visibility: inherit;" fill="rgb(0, 0, 0)" stroke="rgb(204, 204, 204)" stroke-width="1px"></line><line x1="1086.015625" y1="0" x2="1086.015625" y2="5" style="visibility: inherit;" fill="rgb(0, 0, 0)" stroke="rgb(204, 204, 204)" stroke-width="1px"></line></g><g transform="translate(0, 8)"><text x="0" y="0" dx="0em" dy="0.95em" style="text-anchor: middle; visibility: hidden; font-family: Roboto, sans-serif; font-size: 12px; font-weight: 200;" fill="rgb(33, 33, 33)" stroke="none" stroke-width="1px">-50</text><text x="108.6015625" y="0" dx="0em" dy="0.95em" style="text-anchor: middle; visibility: inherit; font-family: Roboto, sans-serif; font-size: 12px; font-weight: 200;" fill="rgb(33, 33, 33)" stroke="none" stroke-width="1px">0</text><text x="217.203125" y="0" dx="0em" dy="0.95em" style="text-anchor: middle; visibility: inherit; font-family: Roboto, sans-serif; font-size: 12px; font-weight: 200;" fill="rgb(33, 33, 33)" stroke="none" stroke-width="1px">50</text><text x="325.8046875" y="0" dx="0em" dy="0.95em" style="text-anchor: middle; visibility: inherit; font-family: Roboto, sans-serif; font-size: 12px; font-weight: 200;" fill="rgb(33, 33, 33)" stroke="none" stroke-width="1px">100</text><text x="434.40625" y="0" dx="0em" dy="0.95em" style="text-anchor: middle; visibility: inherit; font-family: Roboto, sans-serif; font-size: 12px; font-weight: 200;" fill="rgb(33, 33, 33)" stroke="none" stroke-width="1px">150</text><text x="543.0078125" y="0" dx="0em" dy="0.95em" style="text-anchor: middle; visibility: inherit; font-family: Roboto, sans-serif; font-size: 12px; font-weight: 200;" fill="rgb(33, 33, 33)" stroke="none" stroke-width="1px">200</text><text x="651.609375" y="0" dx="0em" dy="0.95em" style="text-anchor: middle; visibility: inherit; font-family: Roboto, sans-serif; font-size: 12px; font-weight: 200;" fill="rgb(33, 33, 33)" stroke="none" stroke-width="1px">250</text><text x="760.2109375" y="0" dx="0em" dy="0.95em" style="text-anchor: middle; visibility: inherit; font-family: Roboto, sans-serif; font-size: 12px; font-weight: 200;" fill="rgb(33, 33, 33)" stroke="none" stroke-width="1px">300</text><text x="868.8125" y="0" dx="0em" dy="0.95em" style="text-anchor: middle; visibility: inherit; font-family: Roboto, sans-serif; font-size: 12px; font-weight: 200;" fill="rgb(33, 33, 33)" stroke="none" stroke-width="1px">350</text><text x="977.4140625" y="0" dx="0em" dy="0.95em" style="text-anchor: middle; visibility: inherit; font-family: Roboto, sans-serif; font-size: 12px; font-weight: 200;" fill="rgb(33, 33, 33)" stroke="none" stroke-width="1px">400</text><text x="1086.015625" y="0" dx="0em" dy="0.95em" style="text-anchor: middle; visibility: hidden; font-family: Roboto, sans-serif; font-size: 12px; font-weight: 200;" fill="rgb(33, 33, 33)" stroke="none" stroke-width="1px">450</text></g><line x1="0" y1="0" x2="1086.015625" y2="0" fill="rgb(0, 0, 0)" stroke="rgb(204, 204, 204)" stroke-width="1px"></line></g></g></g></g></svg>