<svg viewBox="0 0 1150 400" xmlns="http://www.w3.org/2000/svg"><g><g><g><g><g><line x1="42.390625" y1="376" x2="37.390625" y2="376" style="visibility: inherit;" fill="rgb(0, 0, 0)" stroke="rgb(204, 204, 204)" stroke-width="1px"></line><line x1="42.390625" y1="329" x2="37.390625" y2="329" style="visibility: inherit;" fill="rgb(0, 0, 0)" stroke="rgb(204, 204, 204)" stroke-width="1px"></line><line x1="42.390625" y1="282" x2="37.390625" y2="282" style="visibility: inherit;" fill="rgb(0, 0, 0)" stroke="rgb(204, 204, 204)" stroke-width="1px"></line><line x1="42.390625" y1="235" x2="37.390625" y2="235" style="visibility: inherit;" fill="rgb(0, 0, 0)" stroke="rgb(204, 204, 204)" stroke-width="1px"></line><line x1="42.390625" y1="188" x2="37.390625" y2="188" style="visibility: inherit;" fill="rgb(0, 0, 0)" stroke="rgb(204, 204, 204)" stroke-width="1px"></line><line x1="42.390625" y1="141" x2="37.390625" y2="141" style="visibility: inherit;" fill="rgb(0, 0, 0)" stroke="rgb(204, 204, 204)" stroke-width="1px"></line><line x1="42.390625" y1="93.99999999999996" x2="37.390625" y2="93.99999999999996" style="visibility: inherit;" fill="rgb(0, 0, 0)" stroke="rgb(204, 204, 204)" stroke-width="1px"></line><line x1="42.390625" y1="47.00000000000004" x2="37.390625" y2="47.00000000000004" style="visibility: inherit;" fill="rgb(0, 0, 0)" stroke="rgb(204, 204, 204)" stroke-width="1px"></line><line x1="42.390625" y1="0" x2="37.390625" y2="0" style="visibility: inherit;" fill="rgb(0, 0, 0)" stroke="rgb(204, 204, 204)" stroke-width="1px"></line></g><g transform="translate(32.390625, 0)"><text x="0" y="376" dx="0em" dy="0.3em" style="text-anchor: end; visibility: hidden; font-family: Roboto, sans-serif; font-size: 12px; font-weight: 200;" fill="rgb(33, 33, 33)" stroke="none" stroke-width="1px">0.3</text><text x="0" y="329" dx="0em" dy="0.3em" style="text-anchor: end; visibility: inherit; font-family: Roboto, sans-serif; font-size: 12px; font-weight: 200;" fill="rgb(33, 33, 33)" stroke="none" stroke-width="1px">0.4</text><text x="0" y="282" dx="0em" dy="0.3em" style="text-anchor: end; visibility: inherit; font-family: Roboto, sans-serif; font-size: 12px; font-weight: 200;" fill="rgb(33, 33, 33)" stroke="none" stroke-width="1px">0.5</text><text x="0" y="235" dx="0em" dy="0.3em" style="text-anchor: end; visibility: inherit; font-family: Roboto, sans-serif; font-size: 12px; font-weight: 200;" fill="rgb(33, 33, 33)" stroke="none" stroke-width="1px">0.6</text><text x="0" y="188" dx="0em" dy="0.3em" style="text-anchor: end; visibility: inherit; font-family: Roboto, sans-serif; font-size: 12px; font-weight: 200;" fill="rgb(33, 33, 33)" stroke="none" stroke-width="1px">0.7</text><text x="0" y="141" dx="0em" dy="0.3em" style="text-anchor: end; visibility: inherit; font-family: Roboto, sans-serif; font-size: 12px; font-weight: 200;" fill="rgb(33, 33, 33)" stroke="none" stroke-width="1px">0.8</text><text x="0" y="93.99999999999996" dx="0em" dy="0.3em" style="text-anchor: end; visibility: inherit; font-family: Roboto, sans-serif; font-size: 12px; font-weight: 200;" fill="rgb(33, 33, 33)" stroke="none" stroke-width="1px">0.9</text><text x="0" y="47.00000000000004" dx="0em" dy="0.3em" style="text-anchor: end; visibility: inherit; font-family: Roboto, sans-serif; font-size: 12px; font-weight: 200;" fill="rgb(33, 33, 33)" stroke="none" stroke-width="1px">1</text><text x="0" y="0" dx="0em" dy="0.3em" style="text-anchor: end; visibility: hidden; font-family: Roboto, sans-serif; font-size: 12px; font-weight: 200;" fill="rgb(33, 33, 33)" stroke="none" stroke-width="1px">1.1</text></g><line x1="42.390625" y1="0" x2="42.390625" y2="376" fill="rgb(0, 0, 0)" stroke="rgb(204, 204, 204)" stroke-width="1px"></line></g></g><g transform="translate(42, 0)" clip-path="url(#clip_0)"><clipPath id="clip_0"><rect width="1107" height="376"></rect></clipPath><g><g><g><line x1="0" y1="0" x2="0" y2="376" fill="rgb(0, 0, 0)" stroke="rgb(66, 66, 66)" stroke-width="1px" opacity="0.25"></line><line x1="110.76093750000001" y1="0" x2="110.76093750000001" y2="376" fill="rgb(0, 0, 0)" stroke="rgb(66, 66, 66)" stroke-width="1px" opacity="0.25"></line><line x1="221.52187500000002" y1="0" x2="221.52187500000002" y2="376" fill="rgb(0, 0, 0)" stroke="rgb(66, 66, 66)" stroke-width="1px" opacity="0.25"></line><line x1="332.2828125" y1="0" x2="332.2828125" y2="376" fill="rgb(0, 0, 0)" stroke="rgb(66, 66, 66)" stroke-width="1px" opacity="0.25"></line><line x1="443.04375000000005" y1="0" x2="443.04375000000005" y2="376" fill="rgb(0, 0, 0)" stroke="rgb(66, 66, 66)" stroke-width="1px" opacity="0.25"></line><line x1="553.8046875" y1="0" x2="553.8046875" y2="376" fill="rgb(0, 0, 0)" stroke="rgb(66, 66, 66)" stroke-width="1px" opacity="0.25"></line><line x1="664.565625" y1="0" x2="664.565625" y2="376" fill="rgb(0, 0, 0)" stroke="rgb(66, 66, 66)" stroke-width="1px" opacity="0.25"></line><line x1="775.3265624999999" y1="0" x2="775.3265624999999" y2="376" fill="rgb(0, 0, 0)" stroke="rgb(66, 66, 66)" stroke-width="1px" opacity="0.25"></line><line x1="886.0875000000001" y1="0" x2="886.0875000000001" y2="376" fill="rgb(0, 0, 0)" stroke="rgb(66, 66, 66)" stroke-width="1px" opacity="0.25"></line><line x1="996.8484375" y1="0" x2="996.8484375" y2="376" fill="rgb(0, 0, 0)" stroke="rgb(66, 66, 66)" stroke-width="1px" opacity="0.25"></line><line x1="1107.609375" y1="0" x2="1107.609375" y2="376" fill="rgb(0, 0, 0)" stroke="rgb(66, 66, 66)" stroke-width="1px" opacity="0.25"></line></g><g><line x1="0" y1="376" x2="1107.609375" y2="376" fill="rgb(0, 0, 0)" stroke="rgb(66, 66, 66)" stroke-width="1px" opacity="0.25"></line><line x1="0" y1="329" x2="1107.609375" y2="329" fill="rgb(0, 0, 0)" stroke="rgb(66, 66, 66)" stroke-width="1px" opacity="0.25"></line><line x1="0" y1="282" x2="1107.609375" y2="282" fill="rgb(0, 0, 0)" stroke="rgb(66, 66, 66)" stroke-width="1px" opacity="0.25"></line><line x1="0" y1="235" x2="1107.609375" y2="235" fill="rgb(0, 0, 0)" stroke="rgb(66, 66, 66)" stroke-width="1px" opacity="0.25"></line><line x1="0" y1="188" x2="1107.609375" y2="188" fill="rgb(0, 0, 0)" stroke="rgb(66, 66, 66)" stroke-width="1px" opacity="0.25"></line><line x1="0" y1="141" x2="1107.609375" y2="141" fill="rgb(0, 0, 0)" stroke="rgb(66, 66, 66)" stroke-width="1px" opacity="0.25"></line><line x1="0" y1="93.99999999999996" x2="1107.609375" y2="93.99999999999996" fill="rgb(0, 0, 0)" stroke="rgb(66, 66, 66)" stroke-width="1px" opacity="0.25"></line><line x1="0" y1="47.00000000000004" x2="1107.609375" y2="47.00000000000004" fill="rgb(0, 0, 0)" stroke="rgb(66, 66, 66)" stroke-width="1px" opacity="0.25"></line><line x1="0" y1="0" x2="1107.609375" y2="0" fill="rgb(0, 0, 0)" stroke="rgb(66, 66, 66)" stroke-width="1px" opacity="0.25"></line></g></g></g><g><g><line x1="0" y1="517" x2="1107.609375" y2="517" fill="rgb(0, 0, 0)" stroke="rgb(153, 153, 153)" stroke-width="1.5px"></line></g></g><g><g><line x1="110.76093750000001" y1="0" x2="110.76093750000001" y2="376" fill="rgb(0, 0, 0)" stroke="rgb(153, 153, 153)" stroke-width="1.5px"></line></g></g><g><g><g><g><g><path stroke="rgb(255, 112, 67)" stroke-width="2px" d="M110.76093750000001,515.7619731482118L112.97615624999999,311.0982283523772L115.191375,325.0590778526527L117.40659375,332.60510052686476L119.6218125,308.28359889457136L121.83703125,244.66753656936336L124.05225,213.69514721069748L126.26746875,189.32657275261252L128.4826875,150.00295572133788L130.69790625,126.67965940945771L132.913125,110.41663339320132L135.12834375,120.93277376642511L137.3435625,112.84394531726116L139.55878125,102.74790309541505L141.774,97.20684295868726L143.98921875,90.75275385110731L146.2044375,85.43213650975126L148.41965625,83.690470321533L150.63487500000002,81.15902706682706L152.85009375,75.64266905350557L155.0653125,72.43216691732533L157.28053125,69.19537877259519L159.49575,69.50609466373972L161.71096874999998,67.11005094147231L163.9261875,66.11075433403802L166.14140625,65.18575367680708L168.356625,66.20427894738762L170.57184375,66.42678045672967L172.7870625,65.60088479750515L175.00228125,69.55593942955937L177.2175,66.82053987075173L179.43271875,64.73212673666428L181.6479375,63.282318537159526L183.86315625,62.33811763485505L186.07837500000002,63.48504542629784L188.29359375,63.103699008589736L190.50881249999998,60.74659763305925L192.72403125,59.97727934152054L194.93925,59.411890217178055L197.15446874999998,59.32482921380863L199.3696875,60.22416717660472L201.58490625,59.971596090982274L203.800125,59.349067788534335L206.01534375,60.58137980793191L208.2305625,60.77235016642576L210.44578125,59.34553600194242L212.661,58.79917231106021L214.87621875,57.917356818318055L217.0914375,58.25434280002554L219.30665625,58.526704314737394L221.52187500000002,58.79915242397252L223.73709375,58.3743906796173L225.95231249999998,59.09000096203185L228.16753125,60.56065431524256L230.38275,60.14433121257363L232.59796874999998,59.90080132230111L234.8131875,59.18663419570897L237.02840625,60.66976574234019L239.243625,60.81902811033634L241.45884375,59.68116090955204L243.6740625,61.37861522592228L245.88928125,59.680720571024L248.1045,59.5859027405636L250.31971875000002,57.37722023129792L252.5349375,56.34255142092911L254.75015625,55.80670034337165L256.965375,55.287667295027525L259.18059375,55.74336544316341L261.3958125,55.62887754226529L263.61103125,55.315620983748424L265.82625,55.98199878043454L268.04146875,55.78398038093163L270.2566875,57.0189267226691L272.47190625,55.05724302700968L274.687125,54.45409774644268L276.90234375,54.52412204660829L279.1175625,54.71912768314988L281.33278125,53.82402345437236L283.548,53.36878474294203L285.76321875,53.43260731541554L287.9784375,54.85408433820869L290.19365625,56.098967412388646L292.408875,55.74729305462623L294.62409375000004,56.17813819620951L296.8393125,55.68208886369431L299.05453125,55.22370267620309L301.26975000000004,56.19683728641649L303.48496875,57.26378341928949L305.7001875,57.08427851447954L307.91540625000005,55.864849525985136L310.130625,55.666290830550814L312.34584375,55.39368271289959L314.5610625,54.735701128594265L316.77628124999995,54.438849761934364L318.9915,54.435401770383905L321.20671875,54.61508899504591L323.42193749999996,54.15936802372132L325.63715625,54.08721174326414L327.852375,53.30250581220902L330.06759374999996,53.180727768636494L332.2828125,53.44918745082424L334.49803125,53.265543134938575L336.71325,54.740567107159485L338.92846875,54.9257647866956L341.1436875,55.143382112679035L343.35890625,54.49168446093629L345.574125,53.18955499189992L347.78934375,54.37361792479691L350.0045625,54.03524949404442L352.21978125,53.485592140274285L354.435,53.49795175404365L356.65021875,52.915736203259286L358.8654375,52.559246447602554L361.08065625,53.71550387556528L363.295875,54.81359263905988L365.51109375000004,55.65825837045368L367.7263125,54.0205720972387L369.94153125,54.23583559461643L372.15675000000005,53.74043429057724L374.37196875,54.80871684647156L376.5871875,55.07052001533839L378.80240625000005,54.948838384019936L381.01762499999995,53.9780868953869L383.23284375,53.58277074494394L385.4480625,53.93694925307298L387.66328124999995,54.6792605876867L389.8785,54.20435906409881L392.09371875,53.73173432922163L394.30893749999996,53.24001410827522L396.52415625,53.52636591926503L398.739375,53.40086808404503L400.95459375,53.63752411962258L403.1698125,53.57304200625843L405.38503125,51.953904587605166L407.60025,52.17859413539083L409.81546875,52.301720346896055L412.0306875,51.18985655658743L414.24590625,51.11684066506204L416.461125,50.70528334648601L418.67634375,50.83046695155621L420.8915625,50.10540240146353L423.10678125,50.86306191168807L425.322,50.47217836786853L427.53721875,50.29043816810582L429.7524375,50.6952862220152L431.96765625,51.99434096080918L434.182875,51.9119678882531L436.39809375000004,51.94990347312513L438.6133125,51.36832045606748L440.82853125,50.8262072509049L443.04375000000005,50.504256207079855L445.25896875,50.78530967136097L447.4741875,50.67493169248025L449.68940625000005,50.86980829679921L451.90462499999995,50.503657686972396L454.11984375,50.63981467977989L456.3350625,50.286594286536165L458.55028124999995,51.01785477100309L460.7655,51.0979734903484L462.98071875,50.85552643811168L465.19593749999996,49.92065214559708L467.41115625,49.1583504166918L469.626375,49.89779130737293L471.84159375,50.609125757934514L474.0568125,50.722178783846985L476.27203125,49.87298312594484L478.48725,50.68367332702871L480.70246875,50.40463911584619L482.9176875,50.07160994465115L485.13290625,49.73831046256397L487.348125,49.24757717033018L489.56334375,49.75220254647607L491.7785625,49.29127752535266L493.99378125,49.245917962507754L496.209,49.352240232536936L498.42421875,49.321233599132164L500.63943750000004,49.862207322565204L502.85465625,49.3232487614438L505.069875,48.997632490127444L507.28509375000004,48.6022190490539L509.5003125,48.65941125387994L511.71553125,49.373373068779955L513.93075,49.62681839311743L516.1459687500001,50.28588627245796L518.3611875,50.172062769334126L520.57640625,50.51841219353718L522.791625,49.913261461782724L525.00684375,50.63107026131651L527.2220625,50.58325088329135L529.43728125,49.755863692206226L531.6525,49.25890471091397L533.86771875,48.78093429535942L536.0829375,48.35866425115052L538.29815625,48.42257965611331L540.513375,48.459584218304876L542.72859375,48.48312043073269L544.9438125,49.29495162321628L547.15903125,49.666844812354384L549.37425,49.25622146565971L551.58946875,49.60300856375254L553.8046875,49.57423771347732L556.01990625,49.547965842045144L558.235125,48.933506010506676L560.45034375,49.559019850810856L562.6655625,50.17974360413578L564.88078125,49.5305118061735L567.096,49.387105339624526L569.31121875,49.840200015221875L571.5264375,49.31161317128833L573.74165625,48.58964491426291L575.956875,48.959977963801336L578.17209375,48.81881142809157L580.3873125,48.6971103737007L582.60253125,48.62363030846417L584.81775,48.65987574062051L587.03296875,48.46589137912569L589.2481875000001,48.484192954306515L591.46340625,48.89442083049098L593.678625,49.02483656888177L595.8938437500001,49.30024983218291L598.1090625,49.38336020547735L600.32428125,49.82925733231649L602.5395000000001,49.698366691488985L604.75471875,50.01669242967303L606.9699375,50.01266433590137L609.1851562500001,50.20833016510895L611.400375,50.73562198326643L613.61559375,50.8364671554903L615.8308125000001,49.907838278218506L618.04603125,49.75164476228019L620.26125,48.80601734633602L622.4764687500001,48.454282872172385L624.6916875,48.27455083864467L626.9069062499999,48.770383646115896L629.122125,48.886429864183185L631.33734375,48.57265548587743L633.5525624999999,48.749852685218485L635.76778125,49.84038769488663L637.983,48.95136253407668L640.1982187499999,48.402326729125214L642.4134375,48.12603134287981L644.62865625,47.88852659686564L646.8438749999999,47.84434232606984L649.05909375,47.732141980496L651.2743125,47.719415813068686L653.4895312499999,47.63385586105594L655.70475,48.44992864228971L657.91996875,49.07251641808568L660.1351874999999,49.446147523275656L662.35040625,48.709697438449695L664.565625,48.22778951714693L666.78084375,47.938678381384975L668.9960625,47.76507723184915L671.21128125,47.66125271232422L673.4265,47.5987787098377L675.64171875,47.56126069132621L677.8569375,47.7528566783914L680.07215625,47.65353938736017L682.287375,47.71820872305332L684.50259375,47.56354437636436L686.7178125,47.33812662581859L688.93303125,47.241031292797686L691.14825,47.949208524061234L693.36346875,48.44926010741774L695.5786875,48.68268453582509L697.79390625,48.813841888334665L700.009125,48.71464623750826L702.22434375,48.52432502354135L704.4395625,48.717952138453484L706.65478125,48.63349082843653L708.87,48.41770965323568L711.08521875,48.45448831597402L713.3004375,48.90316669869083L715.51565625,49.144314722583644L717.730875,49.290280983666165L719.94609375,48.978994802128994L722.1613125,48.79217827051391L724.3765312500001,48.49176580744686L726.59175,48.32455052755898L728.80696875,47.996914278403686L731.0221875000001,48.08355591948978L733.23740625,47.85209340009786L735.452625,48.31413132043898L737.6678437500001,48.4236051445735L739.8830625,48.25773540768222L742.09828125,48.01473612566712L744.3135000000001,47.811025637268536L746.52871875,47.915747843908946L748.7439375,48.00620315237505L750.9591562500001,47.805524860403835L753.174375,47.48331491624231L755.38959375,47.289988949745364L757.6048125000001,47.77208497217267L759.82003125,47.866756070202385L762.0352499999999,48.09694411071881L764.25046875,48.13914757795774L766.4656875,48.13058370249051L768.6809062499999,48.48199869332663L770.896125,48.291908700096286L773.11134375,48.20991413523413L775.3265624999999,48.02461328941385L777.54178125,47.95326895021078L779.757,47.77434703411272L781.9722187499999,47.69828012407788L784.1874375,47.67440139544584L786.40265625,48.4070443349634L788.6178749999999,48.64812159762111L790.83309375,48.99319262638888L793.0483125,49.08296787342547L795.2635312499999,48.45216638804146L797.47875,48.07370790815761L799.69396875,47.886849981405774L801.9091875,47.7896499764076L804.12440625,47.473789985844576L806.339625,47.28537214748211L808.55484375,47.37346327872369L810.7700625,47.62831142289218L812.98528125,47.579215638296525L815.2005,47.429532499585555L817.41571875,47.29399226395727L819.6309375,47.212881030371406L821.84615625,48.12930289610071L824.061375,47.74463648619552L826.27659375,47.44678189171736L828.4918125,47.280518637975334L830.70703125,47.2155206840517L832.92225,47.17141212471016L835.13746875,47.36658399967962L837.3526875,47.62300725977787L839.56790625,47.77683880449043L841.783125,48.06980892730182L843.99834375,48.24579270310657L846.2135625,47.831675050422255L848.42878125,47.52639169559756L850.644,47.3404090587252L852.85921875,47.41216670179088L855.0744375,47.500873200319504L857.28965625,47.30052392019167L859.504875,47.18031435211502L861.72009375,47.10818861126898L863.9353125,47.4681605231762L866.1505312500001,47.511598714113255L868.36575,47.50916560168268L870.58096875,47.33848886296271L872.7961875000001,47.20309331777759L875.01140625,47.1218559906666L877.226625,47.133781109200925L879.4418437500001,47.16730312940301L881.6570625,47.352431085329194L883.87228125,47.45926090873537L886.0875000000001,47.52481554029738L888.30271875,47.58035172270745L890.5179375,47.55045102385893L892.7331562500001,47.53266748397476L894.948375,47.52199736004425L897.16359375,47.71710690716121L899.3788125000001,47.63266101395621L901.59403125,47.783527510854825L903.8092499999999,47.70139039605449L906.02446875,47.66068046718593L908.2396875,47.598412951408335L910.4549062499999,47.96345937286528L912.670125,47.780248379914255L914.88534375,47.67032178414359L917.1005624999999,47.60435462100797L919.31578125,47.96664338173566L921.531,48.224009685886536L923.7462187499999,48.338974292977255L925.9614375,48.462804827632674L928.17665625,48.482441874469636L930.3918749999999,48.46915701158361L932.60709375,48.48554722742747L934.8223125,47.89132833645645L937.0375312499999,47.73700337508865L939.25275,47.64440839826788L941.46796875,47.618512829182905L943.6831875,47.604936480545035L945.89840625,47.86087477208553L948.113625,47.91917831898563L950.32884375,47.95437335491678L952.5440625,47.9756584615737L954.75928125,48.07492611713588L956.9745,48.248179470940684L959.18971875,47.9511140557791L961.4049375,48.1739818795124L963.62015625,48.30770257375238L965.835375,48.38823754347328L968.05059375,48.43736533377738L970.2658125,48.46618087324007L972.48103125,48.37763261337578L974.69625,48.23011827194397L976.91146875,48.431758163712615L979.1266875,48.462917422260126L981.34190625,48.2813003629478L983.557125,48.572731242777884L985.77234375,48.74773544442769L987.9875625,48.85262590868548L990.20278125,48.91544813050798L992.418,48.94490529378637L994.63321875,48.967017038347606" style="fill: none;" fill="none"></path></g><g><path stroke="rgb(187, 187, 187)" stroke-width="2px" d="M110.76093750000001,47.00000000000004L112.97615624999999,48.0498840361834L115.191375,49.72813548847128L117.40659375,58.26495462787505L119.6218125,62.64009151965029L121.83703125,114.56231505523826L124.05225,123.94282901949862L126.26746875,107.02175936685224L128.4826875,86.77484681600717L130.69790625,133.09115929169238L132.913125,110.09040142867147L135.12834375,137.9792686998641L137.3435625,121.56642507605926L139.55878125,137.42059682960436L141.774,146.42107830458838L143.98921875,144.3353705209033L146.2044375,139.04328732646152L148.41965625,115.66431000305073L150.63487500000002,113.70796896275372L152.85009375,95.39425664336879L155.0653125,95.17115497640307L157.28053125,82.5463704670949L159.49575,70.77778255518822L161.71096874999998,91.64162820384531L163.9261875,73.78492615518893L166.14140625,64.49930460726281L168.356625,65.8388461440325L170.57184375,67.65889175659836L172.7870625,59.3953320091965L175.00228125,55.77103209873764L177.2175,53.907107585077924L179.43271875,51.14426433116147L181.6479375,49.486558519538065L183.86315625,49.114903297943464L186.07837500000002,49.68793879953005L188.29359375,48.61276326862823L190.50881249999998,48.58665934956512L192.72403125,48.57428026049581L194.93925,47.94456815489452L197.15446874999998,48.284240149524805L199.3696875,47.770544089302874L201.58490625,48.127046989031584L203.800125,48.018146900281494L206.01534375,48.30708541156604L208.2305625,48.40563944389506L210.44578125,49.15332686554148L212.661,48.82422077446392L214.87621875,48.094532464662L217.0914375,50.07628205702514L219.30665625,48.84576923420508L221.52187500000002,48.180836288749866L223.73709375,47.7085017732486L225.95231249999998,47.50636460612405L228.16753125,47.535193504275114L230.38275,47.490893257487485L232.59796874999998,47.91548713018236L234.8131875,48.17632813435638L237.02840625,48.32632224072122L239.243625,48.761599113399456L241.45884375,48.27580626598281L243.6740625,47.765483759589614L245.88928125,47.45929025575382L248.1045,47.27557415345222L250.31971875000002,47.16534449207134L252.5349375,47.09920669524281L254.75015625,47.0595240171457L256.965375,47.037496112329016L259.18059375,47.08601142319577L261.3958125,47.17922826619469L263.61103125,47.25798432833866L265.82625,47.30986590866393L268.04146875,47.18591954519837L270.2566875,47.111551727119036L272.47190625,47.066931036271384L274.687125,47.04015862176284L276.90234375,47.02409517305772L279.1175625,47.07497894488392L281.33278125,47.11752168966897L283.548,47.11520123859384L285.76321875,47.098569252372585L287.9784375,47.087043677735785L290.19365625,47.085406205039355L292.408875,47.09213322459529L294.62409375000004,47.089378798358915L296.8393125,47.05362727901532L299.05453125,47.03217636740924L301.26975000000004,47.01930582044548L303.48496875,47.20119468878532L305.7001875,47.30394077605502L307.91540625000005,47.42724204246103L310.130625,47.474284363889105L312.34584375,47.42092125004738L314.5610625,47.453055860914056L316.77628124999995,47.555818892906515L318.9915,47.63533855521105L321.20671875,47.63501163150921L323.42193749999996,47.57218696967393L325.63715625,47.55593983111159L327.852375,47.33356389866697L330.06759374999996,47.20013833920023" style="fill: none;" fill="none"></path></g><g><path stroke="rgb(0, 153, 136)" stroke-width="2px" d="M121.83703125,388.6690709892805L124.05225,325.1286999260144L126.26746875,356.2191772136917L128.4826875,367.7984903301439L130.69790625,339.8085350015279L132.913125,370.9700795655681L135.12834375,329.4982041207052L137.3435625,339.32423676029725L139.55878125,357.53142315720834L141.774,309.33513458332425L143.98921875,293.03259479115115L146.2044375,248.99548732965263L148.41965625,209.50957425767157L150.63487500000002,209.18014149918733L152.85009375,158.99242768773829L155.0653125,216.91975006081068L157.28053125,204.91152417363853L159.49575,178.0450378836366L161.71096874999998,183.0962942445354L163.9261875,152.57429429068662L166.14140625,142.39154077759991L168.356625,115.38728706958925L170.57184375,146.64037073172958L172.7870625,118.65369822068662L175.00228125,165.25345255059491L177.2175,131.91817948388064L179.43271875,109.85033358638236L181.6479375,113.84888390027842L183.86315625,93.51387625679743L186.07837500000002,110.54366673744542L188.29359375,90.35619007815671L190.50881249999998,79.14046063199419L192.72403125,87.74451892098696L194.93925,80.27779034215199L197.15446874999998,85.15083730537206L199.3696875,77.82796256144735L201.58490625,99.94331957212341L203.800125,81.86410265228427L206.01534375,73.49550273906011L208.2305625,66.5886857197903L210.44578125,62.839337759154986L212.661,57.79305067814656L214.87621875,56.97259435149535L217.0914375,55.48059521370609L219.30665625,52.982412971556776L221.52187500000002,52.28718571513582L223.73709375,51.271812085206506L225.95231249999998,51.74662473434L228.16753125,51.421083275280886L230.38275,50.91050919520971L232.59796874999998,51.26189294235785L234.8131875,52.47950810657102L237.02840625,50.91719476262401L239.243625,50.237514828918364L241.45884375,51.744734010266114L243.6740625,50.47570278714104L245.88928125,50.05438744109876L248.1045,49.69415823866134L250.31971875000002,49.24081902652502L252.5349375,49.6254679498048L254.75015625,49.82070170265263L256.965375,49.930603089462764L259.18059375,50.00296477230255L261.3958125,50.047513555001366L263.61103125,49.61911320120754L265.82625,49.19871668476266L268.04146875,49.565054347863146L270.2566875,49.76596418067835L272.47190625,50.1232411327662L274.687125,50.37105623857396L276.90234375,50.26278800950182L279.1175625,49.539841146384084L281.33278125,48.5239046878305L283.548,47.97514479557791L285.76321875,47.75774389028626L287.9784375,47.50137399148984L290.19365625,47.30082439489388L292.408875,47.35906824533486L294.62409375000004,47.44166107812134L296.8393125,47.33666813277362L299.05453125,47.202000879664176L301.26975000000004,47.45901795829478L303.48496875,47.530519131452664L305.7001875,47.594598557729114L307.91540625000005,47.52207643161934L310.130625,47.31324585897158L312.34584375,47.4246897734549L314.5610625,47.27547712548653L316.77628124999995,47.16528627529193L318.9915,47.09917176517513L321.20671875,47.05950305910508L323.42193749999996,47.03570183546303L325.63715625,47.02142110127779L327.852375,47.01285266076664L330.06759374999996,47.007711596460034" style="fill: none;" fill="none"></path></g><g><path stroke="rgb(51, 187, 238)" stroke-width="2px" d="M110.76093750000001,106.2506974935532L112.97615624999999,112.31312428414826L115.191375,110.52375228794254L117.40659375,112.30354333055372L119.6218125,115.78283024454682L121.83703125,123.91375648464798L124.05225,127.11517824171004L126.26746875,120.45066925691104L128.4826875,123.43864079763982L130.69790625,116.9427733727565L132.913125,133.41615433904514L135.12834375,128.0886904901614L137.3435625,144.89921599898628L139.55878125,135.17157455462745L141.774,153.48120453430911L143.98921875,145.83516669673736L146.2044375,164.6922253808077L148.41965625,155.58200986416597L150.63487500000002,172.46653017855118L152.85009375,185.3941824667588L155.0653125,201.09700314486747L157.28053125,198.4559805885427L159.49575,218.29190877984325L161.71096874999998,213.53250105578465L163.9261875,227.6210511170067L166.14140625,212.34048795282027L168.356625,221.15943094437128L170.57184375,218.67306287395652L172.7870625,219.06616120104644L175.00228125,239.91704565241918L177.2175,231.47376848493846L179.43271875,218.62010591988184L181.6479375,244.20193795390134L183.86315625,216.68009042580874L186.07837500000002,216.384942334823L188.29359375,195.74704475688873L190.50881249999998,189.28787177074832L192.72403125,159.22600945556897L194.93925,182.92432127942294L197.15446874999998,180.01720730005306L199.3696875,218.90544960958644L201.58490625,186.03982588892822L203.800125,215.06557840497322L206.01534375,184.85858837075864L208.2305625,228.29361741581738L210.44578125,196.1165043860823L212.661,203.55174648492445L214.87621875,177.43454811352805L217.0914375,196.1649847353736L219.30665625,169.61798555383922L221.52187500000002,234.99593219031712L223.73709375,188.69287806062235L225.95231249999998,225.79796698879716L228.16753125,182.26149770727076L230.38275,224.89849544235958L232.59796874999998,186.36856093803914L234.8131875,230.00429155112226L237.02840625,187.1799896340367L239.243625,218.3586711276078L241.45884375,182.27156110933268L243.6740625,225.83755145270263L245.88928125,186.5706788170249L248.1045,235.03921636747833L250.31971875000002,187.82054577355066L252.5349375,249.62887133410294L254.75015625,233.40372236520477L256.965375,271.50167393654846L259.18059375,211.02762947064787L261.3958125,240.41182075489854L263.61103125,192.74985839455897L265.82625,230.87994931655874L268.04146875,196.99211958955374L270.2566875,240.71461327022698L272.47190625,241.96906146494385L274.687125,263.02632620983024L276.90234375,280.2991558256906L279.1175625,281.8630552257992L281.33278125,246.0093317488371L283.548,252.15015547630423L285.76321875,254.24989858363412L287.9784375,275.2405369704625L290.19365625,271.69791014347436L292.408875,292.68296491714693L294.62409375000004,248.84716355569586L296.8393125,245.2609158263649L299.05453125,259.2440143529204L301.26975000000004,222.73638272903128L303.48496875,255.8015026606426L305.7001875,244.8328396533314L307.91540625000005,265.9568228515615L310.130625,213.4405335779566L312.34584375,260.64447365972865L314.5610625,215.73617202504553L316.77628124999995,264.87785226383255L318.9915,242.19159349369076L321.20671875,256.99970026354237L323.42193749999996,257.9805306645646L325.63715625,255.79626350715247L327.852375,233.7739772624641L330.06759374999996,234.81121872823653L332.2828125,227.5397046980931" style="fill: none;" fill="none"></path></g></g></g></g><g opacity="0.2"><g><g><g><path stroke="rgb(255, 112, 67)" stroke-width="2px" d="M110.76093750000001,515.7619731482118L112.97615624999999,188.2999814748764L115.191375,338.4614933729172L117.40659375,341.47922319173813L119.6218125,276.5294463634491L121.83703125,156.66362059116364L124.05225,169.4041348695755L126.26746875,153.7969572544098L128.4826875,92.00825881958012L130.69790625,92.04728257656102L132.913125,86.16959881782536L135.12834375,136.64975595474246L137.3435625,100.73711407184605L139.55878125,87.6236189603806L141.774,88.90176606178288L143.98921875,81.07617211341862L146.2044375,77.4534620046616L148.41965625,81.07841324806218L150.63487500000002,77.36224782466893L152.85009375,67.36863625049595L155.0653125,67.61658978462224L157.28053125,64.34030306339268L159.49575,69.97216236591343L161.71096874999998,63.51601374149327L163.9261875,64.61181652545933L166.14140625,63.798256635665936L168.356625,67.73206424713139L170.57184375,66.76053237915043L172.7870625,64.36204206943516L175.00228125,75.48851919174199L177.2175,62.717441439628644L179.43271875,61.59950745105748L181.6479375,61.10760641098027L183.86315625,60.921816349029584L186.07837500000002,65.20543706417088L188.29359375,62.531679391861005L190.50881249999998,57.21094560623173L192.72403125,58.82330191135411L194.93925,58.56380653381352L197.15446874999998,59.19423770904545L199.3696875,61.57317411899571L201.58490625,59.59273946285252L203.800125,58.41527533531193L206.01534375,62.42984783649449L208.2305625,61.058805704116864L210.44578125,57.2053147554398L212.661,57.979626774787945L214.87621875,56.59463357925419L217.0914375,58.75982177257542L219.30665625,58.935246586799664L221.52187500000002,59.207824587822L223.73709375,57.737248063087506L225.95231249999998,60.16341638565068L228.16753125,62.76663434505467L230.38275,59.519846558570904L232.59796874999998,59.53550648689274L234.8131875,58.11538350582127L237.02840625,62.89446306228642L239.243625,61.04292166233067L241.45884375,57.97436010837559L243.6740625,63.92479670047764L245.88928125,57.133878588676495L248.1045,59.44367599487309L250.31971875000002,54.06419646739964L252.5349375,54.790548205375714L254.75015625,55.002923727035565L256.965375,54.509117722511334L259.18059375,56.42691266536717L261.3958125,55.45714569091801L263.61103125,54.84573614597325L265.82625,56.98156547546391L268.04146875,55.48695278167729L270.2566875,58.87134623527531L272.47190625,52.11471748352055L274.687125,53.549379825592084L276.90234375,54.62915849685673L279.1175625,55.011636137962384L281.33278125,52.4813671112061L283.548,52.68592667579655L285.76321875,53.528341174125714L287.9784375,56.98629987239842L290.19365625,57.966292023658795L292.408875,55.219781517982526L294.62409375000004,56.82440590858464L296.8393125,54.93801486492161L299.05453125,54.53612339496617L301.26975000000004,57.65653920173649L303.48496875,58.86420261859898L305.7001875,56.81502115726475L307.91540625000005,54.03570604324345L310.130625,55.368452787399335L312.34584375,54.98477053642277L314.5610625,53.74872875213627L316.77628124999995,53.99357271194462L318.9915,54.43022978305821L321.20671875,54.88461983203892L323.42193749999996,53.47578656673436L325.63715625,53.97897732257847L327.852375,52.12544691562657L330.06759374999996,52.99806070327763L332.2828125,53.85187697410588L334.49803125,52.99007666110997L336.71325,56.953103065490765L338.92846875,55.2035613059998L341.1436875,55.469808101654095L343.35890625,53.514137983322186L345.574125,51.23636078834538L347.78934375,56.1497123241425L350.0045625,53.52769684791569L352.21978125,52.66110610961918L354.435,53.51649117469792L356.65021875,52.04241287708287L358.8654375,52.024511814117474L361.08065625,55.4498900175095L363.295875,56.4607257843018L365.51109375000004,56.9252569675446L367.7263125,51.56404268741612L369.94153125,54.558730840683026L372.15675000000005,52.997332334518475L374.37196875,56.41114068031315L376.5871875,55.46322476863865L378.80240625000005,54.76631593704228L381.01762499999995,52.52195966243748L383.23284375,52.98979651927952L385.4480625,54.46821701526646L387.66328124999995,55.79272758960728L389.8785,53.492006778717084L392.09371875,53.022797226905865L394.30893749999996,52.50243377685551L396.52415625,53.95589363574986L398.739375,53.21262133121495L400.95459375,53.992508172988934L403.1698125,53.4763188362122L405.38503125,49.52519845962529L407.60025,52.51562845706944L409.81546875,52.486409664154095L412.0306875,49.52206087112431L414.24590625,51.00731682777409L416.461125,50.08794736862187L418.67634375,51.01824235916142L420.8915625,49.017805576324506L423.10678125,51.999551177024884L425.322,49.885853052139325L427.53721875,50.01782786846165L429.7524375,51.302558302879376L431.96765625,53.94292306900029L434.182875,51.78840827941899L436.39809375000004,52.00680685043339L438.6133125,50.495945930481L440.82853125,50.01303744316105L443.04375000000005,50.021329641342206L445.25896875,51.206889867782635L447.4741875,50.50936472415928L449.68940625000005,51.16212320327763L451.90462499999995,49.9544317722321L454.11984375,50.84405016899113L456.3350625,49.756763696670575L458.55028124999995,52.114745497703595L460.7655,51.2181515693665L462.98071875,50.49185585975651L465.19593749999996,48.5183407068253L467.41115625,48.01489782333378L469.626375,51.00695264339451L471.84159375,51.6761274337769L474.0568125,50.8917583227158L476.27203125,48.599189639091534L478.48725,51.89970862865452L480.70246875,49.98608779907231L482.9176875,49.572066187858624L485.13290625,49.23836123943333L487.348125,48.51147723197941L489.56334375,50.50914061069493L491.7785625,48.599889993667645L493.99378125,49.1778786182404L496.209,49.511723637580914L498.42421875,49.274723649025006L500.63943750000004,50.673667907714886L502.85465625,48.5148109197617L505.069875,48.509208083152814L507.28509375000004,48.009098887443585L509.5003125,48.74519956111912L511.71553125,50.44431579113011L513.93075,50.006986379623456L516.1459687500001,51.274488091468854L518.3611875,50.00132751464848L520.57640625,51.037936329841656L522.791625,49.005535364151044L525.00684375,51.70778346061711L527.2220625,50.511521816253705L529.43728125,48.514782905578656L531.6525,48.51346623897557L533.86771875,48.06397867202763L536.0829375,47.725259184837384L538.29815625,48.51845276355748L540.513375,48.515091061592145L542.72859375,48.51842474937443L544.9438125,50.51269841194157L547.15903125,50.22468459606175L549.37425,48.64028644561772L551.58946875,50.123189210891766L553.8046875,49.53108143806462L556.01990625,49.50855803489689L558.235125,48.011816263198895L560.45034375,50.49729061126713L562.6655625,51.11082923412327L564.88078125,48.556664109230084L567.096,49.17199563980107L569.31121875,50.5198420286179L571.5264375,48.51873290538792L573.74165625,47.50669252872471L575.956875,49.51547753810887L578.17209375,48.60706162452702L580.3873125,48.5145587921143L582.60253125,48.51341021060948L584.81775,48.71424388885502L587.03296875,48.17491483688359L589.2481875000001,48.51164531707768L591.46340625,49.509762644767804L593.678625,49.22046017646794L595.8938437500001,49.71336972713475L598.1090625,49.50802576541905L600.32428125,50.49810302257542L602.5395000000001,49.50203073024754L604.75471875,50.4941810369492L606.9699375,50.00662219524388L609.1851562500001,50.50182890892033L611.400375,51.52655971050267L613.61559375,50.98773491382603L615.8308125000001,48.514894962310834L618.04603125,49.517354488372845L620.26125,47.38757622241978L622.4764687500001,47.92668116092686L624.6916875,48.00495278835301L626.9069062499999,49.514132857322736L629.122125,49.06049919128422L631.33734375,48.10199391841893L633.5525624999999,49.015648484230084L635.76778125,51.476190209388776L637.983,47.61782479286198L640.1982187499999,47.57877302169804L642.4134375,47.7115882635117L644.62865625,47.53226947784428L646.8438749999999,47.77806591987614L649.05909375,47.56384146213536L651.2743125,47.70032656192784L653.4895312499999,47.50551593303685L655.70475,49.67403781414036L657.91996875,50.00639808177952L660.1351874999999,50.006594181060834L662.35040625,47.605022311210675L664.565625,47.504927635192914L666.78084375,47.50501167774205L668.9960625,47.504675507545514L671.21128125,47.50551593303685L673.4265,47.505067706108136L675.64171875,47.504983663559L677.8569375,48.040250658988995L680.07215625,47.504563450813336L682.287375,47.81521272659306L684.50259375,47.331547856330914L686.7178125,47.00000000000004L688.93303125,47.09538829326634L691.14825,49.01147437095646L693.36346875,49.199337482452435L695.5786875,49.03282117843632L697.79390625,49.01057791709904L700.009125,48.56585276126866L702.22434375,48.238843202590985L704.4395625,49.008392810821576L706.65478125,48.50679886341099L708.87,48.09403789043431L711.08521875,48.509656310081525L713.3004375,49.576184272766156L715.51565625,49.506036758422894L717.730875,49.50923037528996L719.94609375,48.512065529823346L722.1613125,48.51195347309117L724.3765312500001,48.04114711284642L726.59175,48.07372760772709L728.80696875,47.50545990467076L731.0221875000001,48.21351838111882L733.23740625,47.50489962100987L735.452625,49.007188200950665L737.6678437500001,48.587815880775494L739.8830625,48.00893080234532L742.09828125,47.65023720264439L744.3135000000001,47.50545990467076L746.52871875,48.07283115386967L748.7439375,48.1418861150742L750.9591562500001,47.50450742244725L753.174375,47.00000000000004L755.38959375,47.00000000000004L757.6048125000001,48.49522900581364L759.82003125,48.00876271724705L762.0352499999999,48.44222617149357L764.25046875,48.202452778816266L766.4656875,48.1177378892899L768.6809062499999,49.00912117958073L770.896125,48.0067737102509L773.11134375,48.08692228794102L775.3265624999999,47.74666202068333L777.54178125,47.84625244140629L779.757,47.50596415996556L781.9722187499999,47.584179759025616L784.1874375,47.638583302497906L786.40265625,49.50600874423985L788.6178749999999,49.00973749160771L790.83309375,49.51079916954045L793.0483125,49.21763074398045L795.2635312499999,47.50596415996556L797.47875,47.50602018833165L799.69396875,47.60656309127812L801.9091875,47.64384996891026L804.12440625,47.00000000000004L806.339625,47.0027453899384L808.55484375,47.50559997558598L810.7700625,48.01058363914494L812.98528125,47.505571961402936L815.2005,47.20500779151921L817.41571875,47.090681910514874L819.6309375,47.09121417999272L821.84615625,49.50393569469456L824.061375,47.16763687133793L826.27659375,47.00000000000004L828.4918125,47.03112375736241L830.70703125,47.11802375316624L832.92225,47.10524928569798L835.13746875,47.65934181213383L837.3526875,48.007642149925275L839.56790625,48.007586121559186L841.783125,48.5092641115189L843.99834375,48.5097683668137L846.2135625,47.21049857139592L848.42878125,47.06846666336064L850.644,47.061435103416486L852.85921875,47.51980316638951L855.0744375,47.63393294811253L857.28965625,47.00000000000004L859.504875,47.00000000000004L861.72009375,47.00000000000004L863.9353125,48.00811839103703L866.1505312500001,47.57675600051884L868.36575,47.50551593303685L870.58096875,47.082473754882855L872.7961875000001,47.00000000000004L875.01140625,47.00000000000004L877.226625,47.151668787002606L879.4418437500001,47.21758615970616L881.6570625,47.63012301921849L883.87228125,47.61950564384465L886.0875000000001,47.62314748764042L888.30271875,47.663655996322674L890.5179375,47.50559997558598L892.7331562500001,47.5059921741486L894.948375,47.5059921741486L897.16359375,48.00977122783665L899.3788125000001,47.5059921741486L901.59403125,48.00982725620274L903.8092499999999,47.57818472385411L906.02446875,47.5996155738831L908.2396875,47.50501167774205L910.4549062499999,48.5110290050507L912.670125,47.50543189048771L914.88534375,47.50543189048771L917.1005624999999,47.50540387630467L919.31578125,48.51007652282719L921.531,48.610059142112775L923.7462187499999,48.511421203613324L925.9614375,48.648550629615826L928.17665625,48.51189744472508L930.3918749999999,48.44922971725468L932.60709375,48.51013255119328L934.8223125,47.00000000000004L937.0375312499999,47.50551593303685L939.25275,47.50551593303685L941.46796875,47.57966947555546L943.6831875,47.58457195758824L945.89840625,48.244782209396405L948.113625,48.006633639335675L950.32884375,48.00716590881352L952.5440625,48.007586121559186L954.75928125,48.22382760047917L956.9745,48.50805950164799L959.18971875,47.50551593303685L961.4049375,48.50828361511235L963.62015625,48.50828361511235L965.835375,48.50903999805455L968.05059375,48.511057019233746L970.2658125,48.509404182434125L972.48103125,48.24481022357945L974.69625,48.008846759796185L976.91146875,48.734218001365704L979.1266875,48.509656310081525L981.34190625,48.00887477397923L983.557125,49.00987756252293L985.77234375,49.01024174690251L987.9875625,49.009961605072064L990.20278125,49.00968146324162L992.418,48.98909103870396L994.63321875,49.00018465518956" style="fill: none;" fill="none"></path></g><g><path stroke="rgb(187, 187, 187)" stroke-width="2px" d="M110.76093750000001,47.00000000000004L112.97615624999999,48.679814457893414L115.191375,51.339256882667584L117.40659375,68.30425393581395L119.6218125,68.3522702455521L121.83703125,186.38944220542908L124.05225,137.3571140766144L126.26746875,82.35067737102513L128.4826875,56.91458356380467L130.69790625,201.8654854297638L132.913125,75.79787981510167L135.12834375,179.6607996225357L137.3435625,97.00075042247776L139.55878125,161.1707944869995L141.774,159.9112207889557L143.98921875,141.20827984809875L146.2044375,131.10740196704867L148.41965625,80.60177993774418L150.63487500000002,110.77375543117527L152.85009375,67.92536211013798L155.0653125,94.83651471138005L157.28053125,63.60960912704472L159.49575,53.12513303756718L161.71096874999998,122.93714952468876L163.9261875,47.00000000000004L166.14140625,50.570911884307904L168.356625,67.84815502166752L170.57184375,70.38895738124852L172.7870625,47.00000000000004L175.00228125,50.33458423614506L177.2175,51.111221432685895L179.43271875,47.00000000000004L181.6479375,47.00000000000004L183.86315625,48.557420492172284L186.07837500000002,50.54749202728276L188.29359375,47.00000000000004L190.50881249999998,48.547503471374554L192.72403125,48.55571162700657L194.93925,47.00000000000004L197.15446874999998,48.793748140335126L199.3696875,47.00000000000004L201.58490625,48.66180133819584L203.800125,47.854796767234845L206.01534375,48.74049317836766L208.2305625,48.55347049236302L210.44578125,50.27485799789433L212.661,48.33056163787846L214.87621875,47.00000000000004L217.0914375,53.04890644550328L219.30665625,47.00000000000004L221.52187500000002,47.183436870574994L223.73709375,47.00000000000004L225.95231249999998,47.203158855438275L228.16753125,47.57843685150151L230.38275,47.424442887306256L232.59796874999998,48.552377939224286L234.8131875,48.56758964061741L237.02840625,48.5513134002686L239.243625,49.41451442241673L241.45884375,47.54711699485783L243.6740625,47.00000000000004L245.88928125,47.00000000000004L248.1045,47.00000000000004L250.31971875000002,47.00000000000004L252.5349375,47.00000000000004L254.75015625,47.00000000000004L256.965375,47.00445425510411L259.18059375,47.15878438949589L261.3958125,47.3190535306931L263.61103125,47.37611842155461L265.82625,47.38768827915196L268.04146875,47.00000000000004L270.2566875,47.00000000000004L272.47190625,47.00000000000004L274.687125,47.00000000000004L276.90234375,47.00000000000004L279.1175625,47.15130460262303L281.33278125,47.18133580684666L283.548,47.111720561981244L285.76321875,47.073621273040814L287.9784375,47.06975531578068L290.19365625,47.08294999599461L292.408875,47.10222375392918L294.62409375000004,47.085247159004254L296.8393125,47.00000000000004L299.05453125,47.00000000000004L301.26975000000004,47.00000000000004L303.48496875,47.4740279912949L305.7001875,47.458059906959576L307.91540625000005,47.61219394207005L310.130625,47.54484784603123L312.34584375,47.34087657928471L314.5610625,47.50125777721409L316.77628124999995,47.70996344089512L318.9915,47.75461804866795L321.20671875,47.63452124595646L323.42193749999996,47.477949976921124L325.63715625,47.53156912326817L327.852375,47.00000000000004L330.06759374999996,47.00000000000004" style="fill: none;" fill="none"></path></g><g><path stroke="rgb(0, 153, 136)" stroke-width="2px" d="M117.40659375,513.977441017516L119.6218125,306.8394477367401L121.83703125,338.97563767433167L124.05225,234.26495265960693L126.26746875,401.54939156770706L128.4826875,384.8757280111313L130.69790625,298.2467133998871L132.913125,417.4297634959221L135.12834375,267.5160790681839L137.3435625,354.03120201826096L139.55878125,384.80653297901154L141.774,237.09735465049744L143.98921875,268.5902829170227L146.2044375,182.95846116542816L148.41965625,150.29073011875153L150.63487500000002,208.68604254722595L152.85009375,83.7154443264008L155.0653125,303.8075567483902L157.28053125,186.8995804786682L159.49575,137.74583888053897L161.71096874999998,190.67311894893646L163.9261875,106.791511297226L166.14140625,127.11745393276219L168.356625,74.88097560405735L170.57184375,193.51994824409485L172.7870625,76.67371523380284L175.00228125,235.15305829048157L177.2175,81.91528093814854L179.43271875,76.74856913089756L181.6479375,119.84670889377598L183.86315625,63.01136624813084L186.07837500000002,136.088351726532L188.29359375,60.0749756097794L190.50881249999998,62.31686663627629L192.72403125,100.65060627460484L194.93925,69.07769751548771L197.15446874999998,92.46040773391728L199.3696875,66.84365046024327L201.58490625,133.1163550615311L203.800125,54.74527728557591L206.01534375,60.94260287284855L208.2305625,56.2284601926804L210.44578125,57.215315818786664L212.661,50.22362005710606L214.87621875,55.74190986156468L217.0914375,53.24259650707249L219.30665625,49.23513960838322L221.52187500000002,51.24434483051304L223.73709375,49.74875164031987L225.95231249999998,52.45884370803837L228.16753125,50.93277108669285L230.38275,50.1446480751038L232.59796874999998,51.78896856307988L234.8131875,54.30593085289006L237.02840625,48.573724746704144L239.243625,49.21799492836003L241.45884375,54.00556278228764L243.6740625,48.572155952453656L245.88928125,49.42241442203526L248.1045,49.15381443500523L250.31971875000002,48.56081020832066L252.5349375,50.20244133472447L254.75015625,50.11355233192448L256.965375,50.09545516967778L259.18059375,50.11150729656224L261.3958125,50.114336729049725L263.61103125,48.97651267051701L265.82625,48.56812191009526L268.04146875,50.11456084251408L270.2566875,50.067328929901166L272.47190625,50.65915656089787L274.687125,50.742778897285504L276.90234375,50.1003856658936L279.1175625,48.4554208517075L281.33278125,47.00000000000004L283.548,47.15200495719914L285.76321875,47.431642532348675L287.9784375,47.11681914329533L290.19365625,47.00000000000004L292.408875,47.446434020996136L294.62409375000004,47.56555032730107L296.8393125,47.17917871475224L299.05453125,47.00000000000004L301.26975000000004,47.84454357624058L303.48496875,47.63777089118962L305.7001875,47.6907176971436L307.91540625000005,47.41329324245457L310.130625,47.00000000000004L312.34584375,47.59185564517979L314.5610625,47.05165815353398L316.77628124999995,47.00000000000004L318.9915,47.00000000000004L321.20671875,47.00000000000004L323.42193749999996,47.00000000000004L325.63715625,47.00000000000004L327.852375,47.00000000000004L330.06759374999996,47.00000000000004" style="fill: none;" fill="none"></path></g><g><path stroke="rgb(51, 187, 238)" stroke-width="2px" d="M110.76093750000001,106.2506974935532L112.97615624999999,115.95058035850529L115.191375,108.80595517158513L117.40659375,114.39657759666447L119.6218125,120.32538723945622L121.83703125,135.16175460815433L124.05225,131.6932625770569L126.26746875,110.73375117778782L128.4826875,127.84531843662266L130.69790625,107.29716730117802L132.913125,157.9768134355545L135.12834375,120.12648653984074L137.3435625,170.06011497974396L139.55878125,120.59916985034947L141.774,180.92412722110748L143.98921875,134.3715025186539L146.2044375,192.9698337316513L148.41965625,141.91899967193604L150.63487500000002,197.7907384634018L152.85009375,204.78447926044464L155.0653125,224.65037298202515L157.28053125,194.49453365802765L159.49575,248.04540944099426L161.71096874999998,206.39344584941864L163.9261875,248.7537760734558L166.14140625,189.41970837116241L168.356625,234.38782286643982L170.57184375,214.943514585495L172.7870625,219.65580832958221L175.00228125,271.1933608055115L177.2175,218.80885553359985L179.43271875,199.33961462974548L181.6479375,282.5746829509735L183.86315625,175.39732110500336L186.07837500000002,215.94222021102905L188.29359375,164.7901989221573L190.50881249999998,179.59911239147186L192.72403125,114.13321626186375L194.93925,218.47178888320923L197.15446874999998,175.6565363407135L199.3696875,277.23781299591064L201.58490625,136.7413903474808L203.800125,258.6042071580887L206.01534375,139.54810333251956L208.2305625,293.4461609721184L210.44578125,147.85083484649658L212.661,214.70460963249207L214.87621875,138.2587505578995L217.0914375,224.260639667511L219.30665625,129.797486782074L221.52187500000002,333.06285214424133L223.73709375,119.23829686641697L225.95231249999998,281.4556003808975L228.16753125,116.95679378509526L230.38275,288.8539920449257L232.59796874999998,128.57365918159488L234.8131875,295.4578874707222L237.02840625,122.9435367584229L239.243625,265.12669336795807L241.45884375,128.14089608192447L243.6740625,291.18653696775436L245.88928125,127.67036986351017L248.1045,307.7420226931572L250.31971875000002,116.99253988265995L252.5349375,342.3413596749306L254.75015625,209.0659989118576L256.965375,328.64860129356384L259.18059375,120.31656277179722L261.3958125,284.4881076812744L263.61103125,121.25691485404973L265.82625,288.07508569955826L268.04146875,146.16037499904633L270.2566875,306.2983537912369L272.47190625,243.85073375701904L274.687125,294.6122233271599L276.90234375,306.2084002494812L279.1175625,284.20890432596207L281.33278125,192.22874653339386L283.548,261.3613910675049L285.76321875,257.3995132446289L287.9784375,306.72649455070496L290.19365625,266.38396990299225L292.408875,324.1605470776558L294.62409375000004,183.0934615135193L296.8393125,239.88154423236847L299.05453125,280.2186621427536L301.26975000000004,167.97493529319763L303.48496875,305.3991825580597L305.7001875,228.3798451423645L307.91540625000005,297.6427976489067L310.130625,134.66609966754916L312.34584375,331.4503837823868L314.5610625,148.37371957302094L316.77628124999995,338.5903726220131L318.9915,208.1622053384781L321.20671875,279.2118604183197L323.42193749999996,259.451776266098L325.63715625,252.51986277103424L327.852375,200.74054789543152L330.06759374999996,236.36708092689514L332.2828125,216.6324336528778" style="fill: none;" fill="none"></path></g></g></g></g></g></g><g transform="translate(42, 376)" clip-path="url(#clip_1)"><clipPath id="clip_1"><rect width="1107" height="24"></rect></clipPath><g><g><line x1="0" y1="0" x2="0" y2="5" style="visibility: inherit;" fill="rgb(0, 0, 0)" stroke="rgb(204, 204, 204)" stroke-width="1px"></line><line x1="110.76093750000001" y1="0" x2="110.76093750000001" y2="5" style="visibility: inherit;" fill="rgb(0, 0, 0)" stroke="rgb(204, 204, 204)" stroke-width="1px"></line><line x1="221.52187500000002" y1="0" x2="221.52187500000002" y2="5" style="visibility: inherit;" fill="rgb(0, 0, 0)" stroke="rgb(204, 204, 204)" stroke-width="1px"></line><line x1="332.2828125" y1="0" x2="332.2828125" y2="5" style="visibility: inherit;" fill="rgb(0, 0, 0)" stroke="rgb(204, 204, 204)" stroke-width="1px"></line><line x1="443.04375000000005" y1="0" x2="443.04375000000005" y2="5" style="visibility: inherit;" fill="rgb(0, 0, 0)" stroke="rgb(204, 204, 204)" stroke-width="1px"></line><line x1="553.8046875" y1="0" x2="553.8046875" y2="5" style="visibility: inherit;" fill="rgb(0, 0, 0)" stroke="rgb(204, 204, 204)" stroke-width="1px"></line><line x1="664.565625" y1="0" x2="664.565625" y2="5" style="visibility: inherit;" fill="rgb(0, 0, 0)" stroke="rgb(204, 204, 204)" stroke-width="1px"></line><line x1="775.3265624999999" y1="0" x2="775.3265624999999" y2="5" style="visibility: inherit;" fill="rgb(0, 0, 0)" stroke="rgb(204, 204, 204)" stroke-width="1px"></line><line x1="886.0875000000001" y1="0" x2="886.0875000000001" y2="5" style="visibility: inherit;" fill="rgb(0, 0, 0)" stroke="rgb(204, 204, 204)" stroke-width="1px"></line><line x1="996.8484375" y1="0" x2="996.8484375" y2="5" style="visibility: inherit;" fill="rgb(0, 0, 0)" stroke="rgb(204, 204, 204)" stroke-width="1px"></line><line x1="1107.609375" y1="0" x2="1107.609375" y2="5" style="visibility: inherit;" fill="rgb(0, 0, 0)" stroke="rgb(204, 204, 204)" stroke-width="1px"></line></g><g transform="translate(0, 8)"><text x="0" y="0" dx="0em" dy="0.95em" style="text-anchor: middle; visibility: hidden; font-family: Roboto, sans-serif; font-size: 12px; font-weight: 200;" fill="rgb(33, 33, 33)" stroke="none" stroke-width="1px">-50</text><text x="110.76093750000001" y="0" dx="0em" dy="0.95em" style="text-anchor: middle; visibility: inherit; font-family: Roboto, sans-serif; font-size: 12px; font-weight: 200;" fill="rgb(33, 33, 33)" stroke="none" stroke-width="1px">0</text><text x="221.52187500000002" y="0" dx="0em" dy="0.95em" style="text-anchor: middle; visibility: inherit; font-family: Roboto, sans-serif; font-size: 12px; font-weight: 200;" fill="rgb(33, 33, 33)" stroke="none" stroke-width="1px">50</text><text x="332.2828125" y="0" dx="0em" dy="0.95em" style="text-anchor: middle; visibility: inherit; font-family: Roboto, sans-serif; font-size: 12px; font-weight: 200;" fill="rgb(33, 33, 33)" stroke="none" stroke-width="1px">100</text><text x="443.04375000000005" y="0" dx="0em" dy="0.95em" style="text-anchor: middle; visibility: inherit; font-family: Roboto, sans-serif; font-size: 12px; font-weight: 200;" fill="rgb(33, 33, 33)" stroke="none" stroke-width="1px">150</text><text x="553.8046875" y="0" dx="0em" dy="0.95em" style="text-anchor: middle; visibility: inherit; font-family: Roboto, sans-serif; font-size: 12px; font-weight: 200;" fill="rgb(33, 33, 33)" stroke="none" stroke-width="1px">200</text><text x="664.565625" y="0" dx="0em" dy="0.95em" style="text-anchor: middle; visibility: inherit; font-family: Roboto, sans-serif; font-size: 12px; font-weight: 200;" fill="rgb(33, 33, 33)" stroke="none" stroke-width="1px">250</text><text x="775.3265624999999" y="0" dx="0em" dy="0.95em" style="text-anchor: middle; visibility: inherit; font-family: Roboto, sans-serif; font-size: 12px; font-weight: 200;" fill="rgb(33, 33, 33)" stroke="none" stroke-width="1px">300</text><text x="886.0875000000001" y="0" dx="0em" dy="0.95em" style="text-anchor: middle; visibility: inherit; font-family: Roboto, sans-serif; font-size: 12px; font-weight: 200;" fill="rgb(33, 33, 33)" stroke="none" stroke-width="1px">350</text><text x="996.8484375" y="0" dx="0em" dy="0.95em" style="text-anchor: middle; visibility: inherit; font-family: Roboto, sans-serif; font-size: 12px; font-weight: 200;" fill="rgb(33, 33, 33)" stroke="none" stroke-width="1px">400</text><text x="1107.609375" y="0" dx="0em" dy="0.95em" style="text-anchor: middle; visibility: hidden; font-family: Roboto, sans-serif; font-size: 12px; font-weight: 200;" fill="rgb(33, 33, 33)" stroke="none" stroke-width="1px">450</text></g><line x1="0" y1="0" x2="1107.609375" y2="0" fill="rgb(0, 0, 0)" stroke="rgb(204, 204, 204)" stroke-width="1px"></line></g></g></g></g></svg>