<svg viewBox="0 0 1150 400" xmlns="http://www.w3.org/2000/svg"><g><g><g><g><g><line x1="42.390625" y1="376" x2="37.390625" y2="376" style="visibility: inherit;" fill="rgb(0, 0, 0)" stroke="rgb(204, 204, 204)" stroke-width="1px"></line><line x1="42.390625" y1="334.22222222222223" x2="37.390625" y2="334.22222222222223" style="visibility: inherit;" fill="rgb(0, 0, 0)" stroke="rgb(204, 204, 204)" stroke-width="1px"></line><line x1="42.390625" y1="292.44444444444446" x2="37.390625" y2="292.44444444444446" style="visibility: inherit;" fill="rgb(0, 0, 0)" stroke="rgb(204, 204, 204)" stroke-width="1px"></line><line x1="42.390625" y1="250.66666666666669" x2="37.390625" y2="250.66666666666669" style="visibility: inherit;" fill="rgb(0, 0, 0)" stroke="rgb(204, 204, 204)" stroke-width="1px"></line><line x1="42.390625" y1="208.88888888888889" x2="37.390625" y2="208.88888888888889" style="visibility: inherit;" fill="rgb(0, 0, 0)" stroke="rgb(204, 204, 204)" stroke-width="1px"></line><line x1="42.390625" y1="167.1111111111112" x2="37.390625" y2="167.1111111111112" style="visibility: inherit;" fill="rgb(0, 0, 0)" stroke="rgb(204, 204, 204)" stroke-width="1px"></line><line x1="42.390625" y1="125.33333333333334" x2="37.390625" y2="125.33333333333334" style="visibility: inherit;" fill="rgb(0, 0, 0)" stroke="rgb(204, 204, 204)" stroke-width="1px"></line><line x1="42.390625" y1="83.55555555555563" x2="37.390625" y2="83.55555555555563" style="visibility: inherit;" fill="rgb(0, 0, 0)" stroke="rgb(204, 204, 204)" stroke-width="1px"></line><line x1="42.390625" y1="41.7777777777778" x2="37.390625" y2="41.7777777777778" style="visibility: inherit;" fill="rgb(0, 0, 0)" stroke="rgb(204, 204, 204)" stroke-width="1px"></line><line x1="42.390625" y1="0" x2="37.390625" y2="0" style="visibility: inherit;" fill="rgb(0, 0, 0)" stroke="rgb(204, 204, 204)" stroke-width="1px"></line></g><g transform="translate(32.390625, 0)"><text x="0" y="376" dx="0em" dy="0.3em" style="text-anchor: end; visibility: hidden; font-family: Roboto, sans-serif; font-size: 12px; font-weight: 200;" fill="rgb(33, 33, 33)" stroke="none" stroke-width="1px">0.2</text><text x="0" y="334.22222222222223" dx="0em" dy="0.3em" style="text-anchor: end; visibility: inherit; font-family: Roboto, sans-serif; font-size: 12px; font-weight: 200;" fill="rgb(33, 33, 33)" stroke="none" stroke-width="1px">0.3</text><text x="0" y="292.44444444444446" dx="0em" dy="0.3em" style="text-anchor: end; visibility: inherit; font-family: Roboto, sans-serif; font-size: 12px; font-weight: 200;" fill="rgb(33, 33, 33)" stroke="none" stroke-width="1px">0.4</text><text x="0" y="250.66666666666669" dx="0em" dy="0.3em" style="text-anchor: end; visibility: inherit; font-family: Roboto, sans-serif; font-size: 12px; font-weight: 200;" fill="rgb(33, 33, 33)" stroke="none" stroke-width="1px">0.5</text><text x="0" y="208.88888888888889" dx="0em" dy="0.3em" style="text-anchor: end; visibility: inherit; font-family: Roboto, sans-serif; font-size: 12px; font-weight: 200;" fill="rgb(33, 33, 33)" stroke="none" stroke-width="1px">0.6</text><text x="0" y="167.1111111111112" dx="0em" dy="0.3em" style="text-anchor: end; visibility: inherit; font-family: Roboto, sans-serif; font-size: 12px; font-weight: 200;" fill="rgb(33, 33, 33)" stroke="none" stroke-width="1px">0.7</text><text x="0" y="125.33333333333334" dx="0em" dy="0.3em" style="text-anchor: end; visibility: inherit; font-family: Roboto, sans-serif; font-size: 12px; font-weight: 200;" fill="rgb(33, 33, 33)" stroke="none" stroke-width="1px">0.8</text><text x="0" y="83.55555555555563" dx="0em" dy="0.3em" style="text-anchor: end; visibility: inherit; font-family: Roboto, sans-serif; font-size: 12px; font-weight: 200;" fill="rgb(33, 33, 33)" stroke="none" stroke-width="1px">0.9</text><text x="0" y="41.7777777777778" dx="0em" dy="0.3em" style="text-anchor: end; visibility: inherit; font-family: Roboto, sans-serif; font-size: 12px; font-weight: 200;" fill="rgb(33, 33, 33)" stroke="none" stroke-width="1px">1</text><text x="0" y="0" dx="0em" dy="0.3em" style="text-anchor: end; visibility: hidden; font-family: Roboto, sans-serif; font-size: 12px; font-weight: 200;" fill="rgb(33, 33, 33)" stroke="none" stroke-width="1px">1.1</text></g><line x1="42.390625" y1="0" x2="42.390625" y2="376" fill="rgb(0, 0, 0)" stroke="rgb(204, 204, 204)" stroke-width="1px"></line></g></g><g transform="translate(42, 0)" clip-path="url(#clip_0)"><clipPath id="clip_0"><rect width="1107" height="376"></rect></clipPath><g><g><g><line x1="0" y1="0" x2="0" y2="376" fill="rgb(0, 0, 0)" stroke="rgb(66, 66, 66)" stroke-width="1px" opacity="0.25"></line><line x1="110.76093750000001" y1="0" x2="110.76093750000001" y2="376" fill="rgb(0, 0, 0)" stroke="rgb(66, 66, 66)" stroke-width="1px" opacity="0.25"></line><line x1="221.52187500000002" y1="0" x2="221.52187500000002" y2="376" fill="rgb(0, 0, 0)" stroke="rgb(66, 66, 66)" stroke-width="1px" opacity="0.25"></line><line x1="332.2828125" y1="0" x2="332.2828125" y2="376" fill="rgb(0, 0, 0)" stroke="rgb(66, 66, 66)" stroke-width="1px" opacity="0.25"></line><line x1="443.04375000000005" y1="0" x2="443.04375000000005" y2="376" fill="rgb(0, 0, 0)" stroke="rgb(66, 66, 66)" stroke-width="1px" opacity="0.25"></line><line x1="553.8046875" y1="0" x2="553.8046875" y2="376" fill="rgb(0, 0, 0)" stroke="rgb(66, 66, 66)" stroke-width="1px" opacity="0.25"></line><line x1="664.565625" y1="0" x2="664.565625" y2="376" fill="rgb(0, 0, 0)" stroke="rgb(66, 66, 66)" stroke-width="1px" opacity="0.25"></line><line x1="775.3265624999999" y1="0" x2="775.3265624999999" y2="376" fill="rgb(0, 0, 0)" stroke="rgb(66, 66, 66)" stroke-width="1px" opacity="0.25"></line><line x1="886.0875000000001" y1="0" x2="886.0875000000001" y2="376" fill="rgb(0, 0, 0)" stroke="rgb(66, 66, 66)" stroke-width="1px" opacity="0.25"></line><line x1="996.8484375" y1="0" x2="996.8484375" y2="376" fill="rgb(0, 0, 0)" stroke="rgb(66, 66, 66)" stroke-width="1px" opacity="0.25"></line><line x1="1107.609375" y1="0" x2="1107.609375" y2="376" fill="rgb(0, 0, 0)" stroke="rgb(66, 66, 66)" stroke-width="1px" opacity="0.25"></line></g><g><line x1="0" y1="376" x2="1107.609375" y2="376" fill="rgb(0, 0, 0)" stroke="rgb(66, 66, 66)" stroke-width="1px" opacity="0.25"></line><line x1="0" y1="334.22222222222223" x2="1107.609375" y2="334.22222222222223" fill="rgb(0, 0, 0)" stroke="rgb(66, 66, 66)" stroke-width="1px" opacity="0.25"></line><line x1="0" y1="292.44444444444446" x2="1107.609375" y2="292.44444444444446" fill="rgb(0, 0, 0)" stroke="rgb(66, 66, 66)" stroke-width="1px" opacity="0.25"></line><line x1="0" y1="250.66666666666669" x2="1107.609375" y2="250.66666666666669" fill="rgb(0, 0, 0)" stroke="rgb(66, 66, 66)" stroke-width="1px" opacity="0.25"></line><line x1="0" y1="208.88888888888889" x2="1107.609375" y2="208.88888888888889" fill="rgb(0, 0, 0)" stroke="rgb(66, 66, 66)" stroke-width="1px" opacity="0.25"></line><line x1="0" y1="167.1111111111112" x2="1107.609375" y2="167.1111111111112" fill="rgb(0, 0, 0)" stroke="rgb(66, 66, 66)" stroke-width="1px" opacity="0.25"></line><line x1="0" y1="125.33333333333334" x2="1107.609375" y2="125.33333333333334" fill="rgb(0, 0, 0)" stroke="rgb(66, 66, 66)" stroke-width="1px" opacity="0.25"></line><line x1="0" y1="83.55555555555563" x2="1107.609375" y2="83.55555555555563" fill="rgb(0, 0, 0)" stroke="rgb(66, 66, 66)" stroke-width="1px" opacity="0.25"></line><line x1="0" y1="41.7777777777778" x2="1107.609375" y2="41.7777777777778" fill="rgb(0, 0, 0)" stroke="rgb(66, 66, 66)" stroke-width="1px" opacity="0.25"></line><line x1="0" y1="0" x2="1107.609375" y2="0" fill="rgb(0, 0, 0)" stroke="rgb(66, 66, 66)" stroke-width="1px" opacity="0.25"></line></g></g></g><g><g><line x1="0" y1="459.5555555555556" x2="1107.609375" y2="459.5555555555556" fill="rgb(0, 0, 0)" stroke="rgb(153, 153, 153)" stroke-width="1.5px"></line></g></g><g><g><line x1="110.76093750000001" y1="0" x2="110.76093750000001" y2="376" fill="rgb(0, 0, 0)" stroke="rgb(153, 153, 153)" stroke-width="1.5px"></line></g></g><g><g><g><g><g><path stroke="rgb(255, 112, 67)" stroke-width="2px" d="M110.76093750000001,338.23677417967053L112.97615624999999,359.74328584803476L115.191375,336.39110832581986L117.40659375,309.37116183759343L119.6218125,279.412914519303L121.83703125,233.75609605914724L124.05225,205.52445757517552L126.26746875,173.90512342018812L128.4826875,152.98714762506177L130.69790625,157.76565889327466L132.913125,135.99644203837443L135.12834375,126.87624030541302L137.3435625,113.66833260633042L139.55878125,102.72636353744912L141.774,92.20840183671102L143.98921875,86.32805163437142L146.2044375,85.34771166758843L148.41965625,83.79322814013145L150.63487500000002,82.51577217616018L152.85009375,77.51630786789156L155.0653125,77.16152245852261L157.28053125,74.47812633321904L159.49575,73.22104793349286L161.71096874999998,72.99619564035211L163.9261875,71.80250020638893L166.14140625,69.79622605296385L168.356625,68.29435269610642L170.57184375,71.27542508535396L172.7870625,70.17034311110585L175.00228125,67.30533409036757L177.2175,66.09485754226071L179.43271875,63.851373244713635L181.6479375,62.78634099937787L183.86315625,63.559027378045L186.07837500000002,63.84617722650887L188.29359375,66.48895454058652L190.50881249999998,66.30999132472549L192.72403125,66.32686190101775L194.93925,64.9774820871486L197.15446874999998,62.22675270008241L199.3696875,62.34095460815103L201.58490625,60.984223685529514L203.800125,60.36019350780911L206.01534375,59.80931343972736L208.2305625,59.46690240502806L210.44578125,59.27333877814209L212.661,59.33366256355913L214.87621875,58.535577032678695L217.0914375,57.126365979720106L219.30665625,56.63377323162694L221.52187500000002,58.985435863154855L223.73709375,60.70844918744009L225.95231249999998,61.07704857740603L228.16753125,57.78429834165773L230.38275,57.20499461032748L232.59796874999998,58.09265606286831L234.8131875,58.40588071488314L237.02840625,56.5191623044586L239.243625,56.26945102647396L241.45884375,55.20245235755641L243.6740625,54.950029213131415L245.88928125,55.327971171677696L248.1045,54.804075768395634L250.31971875000002,54.80653535904086L252.5349375,54.00662120728654L254.75015625,53.234129940761875L256.965375,52.7102540332505L259.18059375,53.278248257013686L261.3958125,52.07262204482513L263.61103125,51.48395345048718L265.82625,51.483686177551384L268.04146875,52.36584558205987L270.2566875,51.80331022941712L272.47190625,54.513244063743485L274.687125,54.19917861089418L276.90234375,52.93635931226134L279.1175625,52.77231939866326L281.33278125,53.315487476261254L283.548,53.111992477618784L285.76321875,52.827687133232004L287.9784375,52.94455683628146L290.19365625,53.08553835524108L292.408875,52.621099081938056L294.62409375000004,52.16597355642195L296.8393125,52.598756047847885L299.05453125,52.9478418346821L301.26975000000004,52.36201920806843L303.48496875,51.69995417349556L305.7001875,52.319144418092044L307.91540625000005,52.650288259470635L310.130625,52.71287294754439L312.34584375,52.08130064061052L314.5610625,52.547952298361096L316.77628124999995,51.79332597496388L318.9915,51.316375808570506L321.20671875,51.383139592401484L323.42193749999996,50.44988802790181L325.63715625,50.1870816611421L327.852375,50.529101142410134L330.06759374999996,50.327681361444334L332.2828125,50.0840651173902L334.49803125,49.83966394938106L336.71325,50.59803326003666L338.92846875,50.77567210174685L341.1436875,50.176397600037376L343.35890625,50.70625457395201L345.574125,52.42877250450313L347.78934375,50.99179588015686L350.0045625,51.539164069163995L352.21978125,51.34035058722321L354.435,51.46437999615994L356.65021875,51.985022489951334L358.8654375,51.711057439283294L361.08065625,50.98937296692016L363.295875,50.30461811914136L365.51109375000004,49.8937652104741L367.7263125,51.798423983936935L369.94153125,51.14297265242003L372.15675000000005,50.67608307061868L374.37196875,50.29310614289479L376.5871875,50.40113368153229L378.80240625000005,51.01045627771275L381.01762499999995,51.15371931818203L383.23284375,50.47386649386337L385.4480625,50.171816039235296L387.66328124999995,49.284688117329196L389.8785,49.60680161449743L392.09371875,50.45569622172307L394.30893749999996,50.234203959094536L396.52415625,49.50574450104003L398.739375,49.94382692421608L400.95459375,50.030214416587484L403.1698125,49.65186858762886L405.38503125,50.274938401451564L407.60025,50.522459980636114L409.81546875,49.79002772245823L412.0306875,50.15331291507762L414.24590625,49.75305956877584L416.461125,49.38636811872046L418.67634375,49.74300217277312L420.8915625,49.96147483509024L423.10678125,49.67327700276583L425.322,49.86788446371732L427.53721875,49.90531277390643L429.7524375,49.65418200333315L431.96765625,48.84593471537343L434.182875,48.48915932301207L436.39809375000004,49.030366423071555L438.6133125,49.65860007743506L440.82853125,49.51783816739209L443.04375000000005,49.88717592459162L445.25896875,49.643299893744235L447.4741875,49.409868842089665L449.68940625000005,48.82751979904182L451.90462499999995,48.83104425688005L454.11984375,49.009620893117294L456.3350625,49.646152759462524L458.55028124999995,48.96929014946555L460.7655,48.38671062193301L462.98071875,47.82737278157993L465.19593749999996,49.17451357373314L467.41115625,50.23675346623425L469.626375,50.558904225465426L471.84159375,50.222798835802834L474.0568125,49.844673640470944L476.27203125,49.79426048480613L478.48725,49.41108866833865L480.70246875,50.063505346728085L482.9176875,50.98434123836456L485.13290625,50.83098496661093L487.348125,50.23474579055419L489.56334375,49.75416818525643L491.7785625,49.91641917321172L493.99378125,48.95498803618079L496.209,48.975805101303756L498.42421875,49.80233520650707L500.63943750000004,49.592395462893506L502.85465625,49.85271358388849L505.069875,49.400122641910194L507.28509375000004,49.432774712940166L509.5003125,49.194197205219105L511.71553125,49.05105070058642L513.93075,48.82097317513976L516.1459687500001,48.29772043733751L518.3611875,48.05672021745357L520.57640625,47.83916866272585L522.791625,47.81424995489188L525.00684375,47.87014846672316L527.2220625,48.44829325280406L529.43728125,49.16350313267211L531.6525,49.450630769577174L533.86771875,49.73429672380417L536.0829375,50.080958257874606L538.29815625,50.54143642696056L540.513375,50.45307578100819L542.72859375,50.75971668103438L544.9438125,50.236727827292015L547.15903125,50.029492996898796L549.37425,49.5522281755943L551.58946875,49.265869282811586L553.8046875,49.270515908676174L556.01990625,48.9577421657841L558.235125,49.612196713112525L560.45034375,48.82053436867426L562.6655625,48.82685299865956L564.88078125,49.18356809971925L567.096,49.39759716035511L569.31121875,49.7545904091824L571.5264375,50.798992275837165L573.74165625,50.797159478186764L575.956875,50.328439585770084L578.17209375,50.437443975054144L580.3873125,50.33349651435931L582.60253125,50.145146389179246L584.81775,49.798082172496855L587.03296875,49.766305604021696L589.2481875000001,49.614664098022324L591.46340625,49.24329830961629L593.678625,49.08051136322483L595.8938437500001,48.8063772338556L598.1090625,48.6428031706899L600.32428125,48.27684812318487L602.5395000000001,47.93016789829791L604.75471875,47.662814518004325L606.9699375,47.968140150554134L609.1851562500001,48.04904018435376L611.400375,47.83456064286595L613.61559375,47.54826636924007L615.8308125000001,48.63473251814516L618.04603125,49.15320991290527L620.26125,49.7323061713353L622.4764687500001,50.25623584852609L624.6916875,50.39412173270778L626.9069062499999,49.99786800659794L629.122125,49.886177104482314L631.33734375,50.52502036994859L633.5525624999999,50.25528957589162L635.76778125,48.80493812779139L637.983,49.34688113873272L640.1982187499999,49.67204694529743L642.4134375,50.04360839077063L644.62865625,50.26654525805457L646.8438749999999,50.40030737842484L649.05909375,50.480564650647075L651.2743125,50.352257052446134L653.4895312499999,50.09881053199129L655.70475,49.41735673511548L657.91996875,49.00868366895827L660.1351874999999,48.774187472560996L662.35040625,49.15196878406022L664.565625,49.22930827950997L666.78084375,49.30539456005896L668.9960625,49.2462508724557L671.21128125,49.47983030489978L673.4265,49.473089019528466L675.64171875,49.43930190143605L677.8569375,49.19811351831663L680.07215625,49.1407350153547L682.287375,49.19543534820212L684.50259375,49.58117947097904L686.7178125,49.73502292238784L688.93303125,50.08139397702486L691.14825,49.64763454464865L693.36346875,49.146651142709885L695.5786875,48.84606110154661L697.79390625,48.833084972627766L700.009125,48.65792139949737L702.22434375,48.90574717868767L704.4395625,48.68882892075161L706.65478125,48.43667059599486L708.87,48.59653473505182L711.08521875,48.6936186085008L713.3004375,48.39776965888851L715.51565625,48.267035259281606L717.730875,48.39836482215426L719.94609375,48.839409603063615L722.1613125,49.08969320989047L724.3765312500001,49.341272226457875L726.59175,49.31575767486398L728.80696875,49.50635443435901L731.0221875000001,49.41480699960467L733.23740625,49.38268830912425L735.452625,48.87551710263492L737.6678437500001,48.68338067750161L739.8830625,48.978326068176344L742.09828125,49.274451941429376L744.3135000000001,49.48202918182539L746.52871875,49.5766738096188L748.7439375,49.28053666322632L750.9591562500001,49.172140297971104L753.174375,49.40453590811212L755.38959375,49.7154848183183L757.6048125000001,49.540285229980256L759.82003125,49.4664317954046L762.0352499999999,49.390853416232055L764.25046875,49.34550638872851L766.4656875,49.14183621069201L768.6809062499999,48.88976782172505L770.896125,48.75109706354553L773.11134375,48.9616525771166L775.3265624999999,49.26444784679353L777.54178125,49.622586970133966L779.757,49.85589755120742L781.9722187499999,49.80099483124802L784.1874375,49.944515160806695L786.40265625,49.19357851007185L788.6178749999999,48.972070440800586L790.83309375,48.92478690322001L793.0483125,48.88940451938698L795.2635312499999,49.415500011436926L797.47875,49.74516190803947L799.69396875,49.911015406881546L801.9091875,50.010527506186804L804.12440625,50.08785506436747L806.339625,50.11663130067836L808.55484375,50.02822505387164L810.7700625,50.053272397367515L812.98528125,49.97911360525002L815.2005,50.05138642520783L817.41571875,50.09475011718253L819.6309375,49.94430637083313L821.84615625,49.05599697794963L824.061375,49.14459252575906L826.27659375,49.208696552103625L828.4918125,49.23621227025144L830.70703125,49.429183662674426L832.92225,49.72142845966253L835.13746875,49.720313376321116L837.3526875,49.39011784892634L839.56790625,49.183982250764714L841.783125,49.22138368944812L843.99834375,49.08191502540937L846.2135625,49.51306727730339L848.42878125,49.77175862843991L850.644,49.926973439121824L852.85921875,49.84364036399668L855.0744375,49.79364051892163L857.28965625,49.82002755950831L859.504875,49.80172481308943L861.72009375,49.78702786202906L863.9353125,49.50504027983955L866.1505312500001,49.59048046842737L868.36575,49.690830410573L870.58096875,50.054878469935915L872.7961875000001,50.12397801410407L875.01140625,49.9952210742773L877.226625,49.88458894508993L879.4418437500001,49.81820966757761L881.6570625,49.778382101070136L883.87228125,49.75448556116563L886.0875000000001,49.740147637223004L888.30271875,49.731544882857385L890.5179375,49.79994224953865L892.7331562500001,49.970886794086255L894.948375,50.066769959277785L897.16359375,49.94661274325334L899.3788125000001,50.05703641900976L901.59403125,49.946898387118225L903.8092499999999,49.85559533279455L906.02446875,49.80081350020031L908.2396875,49.653208267492104L910.4549062499999,49.47723091617024L912.670125,49.587819372795074L914.88534375,49.65902325819858L917.1005624999999,49.689942280318L919.31578125,49.397872431992845L921.531,49.34971779818497L923.7462187499999,49.33997924865377L925.9614375,49.31498188818157L928.17665625,49.37111210518545L930.3918749999999,49.510123563634785L932.60709375,49.295310122135454L934.8223125,49.698945530339685L937.0375312499999,49.75483370309153L939.25275,49.78580673294977L941.46796875,49.7589403402934L943.6831875,49.74282050469961L945.89840625,49.38022468027475L948.113625,49.02251160531109L950.32884375,48.894521045353606L952.5440625,48.88484122150469L954.75928125,48.8654371103578L956.9745,48.681267118509616L959.18971875,49.142632960246985L961.4049375,48.87297419380501L963.62015625,48.71118889453826L965.835375,48.69468899556357L968.05059375,48.90773713051957L970.2658125,48.854711426057555L972.48103125,49.02382119462382L974.69625,49.169302940163L976.91146875,49.03611414155276L979.1266875,48.95906951473033L981.34190625,49.13205558857188L983.557125,48.947169169590026L985.77234375,48.864993565827376L987.9875625,48.7937549658582L990.20278125,48.72793309934736L992.418,48.771292237063385L994.63321875,48.79730771969302" style="fill: none;" fill="none"></path></g><g><path stroke="rgb(187, 187, 187)" stroke-width="2px" d="M110.76093750000001,44.70828543768991L112.97615624999999,44.59454785452951L115.191375,45.962052894557786L117.40659375,49.81228557365406L119.6218125,55.268359203090185L121.83703125,85.398976447261L124.05225,70.66424218048135L126.26746875,72.88972339522927L128.4826875,64.20537542766945L130.69790625,56.838920709677105L132.913125,57.913665472992925L135.12834375,59.70883054087856L137.3435625,58.03395638844091L139.55878125,57.02777143065206L141.774,52.574806729074574L143.98921875,52.65368136412289L146.2044375,64.24680167693143L148.41965625,58.007095900475676L150.63487500000002,68.06119267571316L152.85009375,61.945267072774485L155.0653125,60.898069761379894L157.28053125,58.19728688931143L159.49575,52.216115256268466L161.71096874999998,50.78931099158338L163.9261875,47.83960862640954L166.14140625,46.514285036939214L168.356625,45.7190923301447L170.57184375,46.89110471637786L172.7870625,45.59108519899769L175.00228125,45.16517314709395L177.2175,47.10845824995817L179.43271875,46.244070564639436L181.6479375,45.21974835235666L183.86315625,45.613028196469415L186.07837500000002,45.17833903226241L188.29359375,45.472051979244526L190.50881249999998,44.700996948494925L192.72403125,45.11782501288924L194.93925,44.93057189431995L197.15446874999998,43.669454246017295L199.3696875,43.28882613040781L201.58490625,43.2341122947006L203.800125,43.75098949882287L206.01534375,43.51141031573451L208.2305625,44.16469993062461L210.44578125,45.958468557051674L212.661,45.935318722052955L214.87621875,45.531939541192585L217.0914375,45.12968584656353L219.30665625,44.37338065228684L221.52187500000002,43.88484500785201L223.73709375,44.171589818568414L225.95231249999998,43.76377050762256L228.16753125,43.51907892105547L230.38275,43.372263969115494L232.59796874999998,43.96550981138756L234.8131875,44.189828008685986L237.02840625,44.34279623114203L239.243625,44.965915326508146L241.45884375,45.33978678372774L243.6740625,45.14688011161846L245.88928125,44.987010657371016L248.1045,44.91054203352855L250.31971875000002,44.356710182410936L252.5349375,43.963940278758116L254.75015625,44.23000363936856L256.965375,43.79881880010342L259.18059375,44.08981340191538L261.3958125,43.714704657631486L263.61103125,44.039344916432235L265.82625,44.23412907171265L268.04146875,43.89853938184325L270.2566875,43.696856868173896L272.47190625,43.573267564982565L274.687125,43.50900485729467L276.90234375,43.46641319032349L279.1175625,43.89037003604742L281.33278125,44.144744143481816L283.548,44.297368607942396L285.76321875,44.388943286618805L287.9784375,44.443888093824555L290.19365625,44.476854978148104L292.408875,44.49663510874213L294.62409375000004,44.508503187098626L296.8393125,44.608078308607915L299.05453125,44.63680607804672L301.26975000000004,44.64096447399005L303.48496875,44.04539530087626L305.7001875,43.688053797007974L307.91540625000005,43.473648894687024L310.130625,43.345005953294425L312.34584375,43.2678201884589L314.5610625,43.221508729557556L316.77628124999995,43.193721854216754L318.9915,43.17704972901223L321.20671875,43.16704645388956L323.42193749999996,43.16104448881598L325.63715625,43.1574433097718L327.852375,43.161617542937805L330.06759374999996,43.33094218510512" style="fill: none;" fill="none"></path></g><g><path stroke="rgb(0, 153, 136)" stroke-width="2px" d="M112.97615624999999,402.69517440700696L115.191375,327.93424186357163L117.40659375,267.79450786423575L119.6218125,314.60689536777215L121.83703125,339.67402040797396L124.05225,322.2740479492362L126.26746875,328.7869624833599L128.4826875,286.7330460791744L130.69790625,262.3847249289842L132.913125,248.11264336110492L135.12834375,235.64284982727898L137.3435625,231.2021322332189L139.55878125,216.4383611351874L141.774,205.38765008228825L143.98921875,199.3104103782118L146.2044375,198.41416679523468L148.41965625,191.27935179179659L150.63487500000002,181.50151660441773L152.85009375,146.49963023822812L155.0653125,125.49931746011205L157.28053125,114.5485728172121L159.49575,98.62584971053494L161.71096874999998,108.31941121329857L163.9261875,98.19395397684696L166.14140625,95.60826021781872L168.356625,101.71603685500494L170.57184375,90.72185643684416L172.7870625,84.8869102605631L175.00228125,86.534269611482L177.2175,88.97085658471761L179.43271875,77.78953112904853L181.6479375,74.92868510711583L183.86315625,72.91398713806996L186.07837500000002,83.5472244477177L188.29359375,76.18447913750154L190.50881249999998,67.3691680085938L192.72403125,66.40362813955655L194.93925,60.4012364796684L197.15446874999998,56.25009598618807L199.3696875,53.759411693651316L201.58490625,59.24881493841532L203.800125,55.33252752121741L206.01534375,55.1946653198084L208.2305625,52.25930233658595L210.44578125,51.914641011237244L212.661,51.15813871065012L214.87621875,51.25394283569947L217.0914375,51.22467845912337L219.30665625,51.293866684781705L221.52187500000002,50.785674114802696L223.73709375,51.03046407818958L225.95231249999998,49.52822154010502L228.16753125,50.27599253337101L230.38275,50.76766499328951L232.59796874999998,51.569374071250756L234.8131875,51.50068405205764L237.02840625,51.1006394826125L239.243625,51.21944329887475L241.45884375,48.54218810117807L243.6740625,49.159946963422314L245.88928125,48.40591127124736L248.1045,47.40378435057118L250.31971875000002,47.28412305276628L252.5349375,46.7307114194826L254.75015625,47.00055351998384L256.965375,46.19067291704409L259.18059375,46.566077342688025L261.3958125,46.94318924211997L263.61103125,47.62556214383696L265.82625,48.188916972784924L268.04146875,47.927750072451374L270.2566875,47.116887631293615L272.47190625,46.080654700629594L274.687125,45.45891494223103L276.90234375,45.53128912714962L279.1175625,45.12929559814311L281.33278125,45.19128017531928L283.548,44.92529022704488L285.76321875,45.31541172404977L287.9784375,45.549484622252685L290.19365625,45.925725607471655L292.408875,45.91567295230581L294.62409375000004,45.909641359206304L296.8393125,45.356306937377106L299.05453125,45.32713835791515L301.26975000000004,45.556520602571915L303.48496875,45.69414994936597L305.7001875,45.77672755744236L307.91540625000005,45.82627412228822L310.130625,45.537840626598275L312.34584375,45.133226497812316L314.5610625,44.89045802054071L316.77628124999995,44.93028319787673L318.9915,44.89500238909016L321.20671875,44.87299721355125L323.42193749999996,44.929458533548L325.63715625,44.95873352907793L327.852375,44.943079930679176L330.06759374999996,44.94452490271632" style="fill: none;" fill="none"></path></g><g><path stroke="rgb(51, 187, 238)" stroke-width="2px" d="M110.76093750000001,183.32749324374734L112.97615624999999,183.32749324374737L115.191375,183.32749324374737L117.40659375,182.6959267617052L119.6218125,182.37378841035124L121.83703125,182.773939807285L124.05225,184.13281191484225L126.26746875,183.80518151376697L128.4826875,188.30787513069978L130.69790625,185.75054370474L132.913125,188.08804690596588L135.12834375,186.28554389115317L137.3435625,188.66165945641785L139.55878125,184.50914207218685L141.774,189.6904925509412L143.98921875,185.4949827519259L146.2044375,187.9266415400814L148.41965625,182.7882074089767L150.63487500000002,184.10341289695455L152.85009375,184.42309445533039L155.0653125,185.92077893043015L157.28053125,187.082311926135L159.49575,185.7630613702038L161.71096874999998,186.01700698937557L163.9261875,194.83595554212397L166.14140625,198.30816159312639L168.356625,204.95917748715266L170.57184375,191.90883181148308L172.7870625,190.67512791190535L175.00228125,197.6308045608358L177.2175,200.31466163898162L179.43271875,201.21570130958912L181.6479375,208.35281136670395L183.86315625,206.45825095268486L186.07837500000002,210.39892986875125L188.29359375,204.86392515033387L190.50881249999998,200.09730085639626L192.72403125,188.9917138059339L194.93925,193.8722170829537L197.15446874999998,187.8445266494566L199.3696875,202.64724025115316L201.58490625,187.7731399894135L203.800125,200.28727423740082L206.01534375,185.80745488044033L208.2305625,208.45289660445982L210.44578125,189.60740733066834L212.661,210.18316256764155L214.87621875,191.29946027412902L217.0914375,205.7013093976359L219.30665625,186.41940518425625L221.52187500000002,192.87854736507458L223.73709375,181.5028026455606L225.95231249999998,202.5718523077914L228.16753125,185.91315592336727L230.38275,202.54932114090417L232.59796874999998,191.56233702861394L234.8131875,205.30932994476484L237.02840625,185.52243535394118L239.243625,212.12983338440466L241.45884375,190.1644528836962L243.6740625,213.2659273861429L245.88928125,187.0910931697631L248.1045,209.2230795756998L250.31971875000002,187.87068513250478L252.5349375,204.7434652838079L254.75015625,182.3757808694356L256.965375,187.00679261155943L259.18059375,174.54091295402063L261.3958125,185.20173656093235L263.61103125,171.89983255884675L265.82625,195.16095373961306L268.04146875,187.67903205381282L270.2566875,190.88578599932325L272.47190625,175.5470555280201L274.687125,193.3707356564931L276.90234375,178.35927878098084L279.1175625,200.13603248363572L281.33278125,190.66407930022646L283.548,205.32008081310033L285.76321875,197.62245679610126L287.9784375,211.69393929270794L290.19365625,198.698234396412L292.408875,206.29262537261553L294.62409375000004,201.50422652463544L296.8393125,173.89434982876236L299.05453125,189.76116815531407L301.26975000000004,189.83315344513616L303.48496875,187.88514131092396L305.7001875,182.8394400332042L307.91540625000005,187.43231532098864L310.130625,180.8430170205554L312.34584375,188.98299900085323L314.5610625,173.27927791444154L316.77628124999995,197.6377374690832L318.9915,188.06568132015437L321.20671875,187.81952260570486L323.42193749999996,175.02855095050788L325.63715625,160.09057010480996L327.852375,167.1865073783021L330.06759374999996,150.55518085350846L332.2828125,160.3658528561806" style="fill: none;" fill="none"></path></g></g></g></g><g opacity="0.2"><g><g><g><path stroke="rgb(255, 112, 67)" stroke-width="2px" d="M110.76093750000001,338.23677417967053L112.97615624999999,372.6471928490533L115.191375,313.9730179044936L117.40659375,277.59570476743914L119.6218125,240.29942682054312L121.83703125,170.59627967410623L124.05225,165.15276283688019L126.26746875,127.80383067660863L128.4826875,122.13719643486873L130.69790625,164.86119121975372L132.913125,103.54006195068364L135.12834375,113.24556944105365L137.3435625,93.89959716796879L139.55878125,86.33484639061824L141.774,76.44382275475398L143.98921875,77.51167360941572L146.2044375,83.87761656443281L148.41965625,81.46189753214522L150.63487500000002,80.5997828377618L152.85009375,70.01756837632925L155.0653125,76.62936380174429L157.28053125,70.45312044355609L159.49575,71.33545515272357L161.71096874999998,72.6589198642307L163.9261875,70.01196553972036L166.14140625,66.78682337866891L168.356625,66.04154650370283L170.57184375,75.74702909257681L172.7870625,68.51272116767038L175.00228125,63.007822142707L177.2175,64.27914312150747L179.43271875,60.48614724477134L181.6479375,61.188792758517806L183.86315625,64.71805689069964L186.07837500000002,64.27690198686392L188.29359375,70.45312044355609L190.50881249999998,66.04154650370283L192.72403125,66.35216776529951L194.93925,62.953412373860694L197.15446874999998,58.10065862867571L199.3696875,62.51225747002498L201.58490625,58.94912730322946L203.800125,59.4241482416789L206.01534375,58.98299333784319L208.2305625,58.95328585306806L210.44578125,58.98299333784319L212.661,59.4241482416789L214.87621875,57.33844873640276L217.0914375,55.01254940032963L219.30665625,55.89488410949711L221.52187500000002,62.51292981041804L223.73709375,63.29296917385528L225.95231249999998,61.62994766235356L228.16753125,52.84517298804391L230.38275,56.33603901333282L232.59796874999998,59.4241482416789L234.8131875,58.87571769290501L237.02840625,53.689084688822454L239.243625,55.89488410949711L241.45884375,53.60195435418025L243.6740625,54.57139449649388L245.88928125,55.89488410949711L248.1045,54.01823266347251L250.31971875000002,54.81022474500872L252.5349375,52.806749979654974L254.75015625,52.07539304097495L256.965375,51.924440171983555L259.18059375,54.13023959265817L261.3958125,50.26418272654218L263.61103125,50.60095055898032L265.82625,51.4832852681478L268.04146875,53.689084688822454L270.2566875,50.959507200453054L272.47190625,58.57814481523307L274.687125,53.728080431620306L276.90234375,51.04213036431209L279.1175625,52.52625952826608L281.33278125,54.13023959265817L283.548,52.806749979654974L285.76321875,52.401229116651784L287.9784375,53.119861390855625L290.19365625,53.29701063368059L292.408875,51.924440171983555L294.62409375000004,51.4832852681478L296.8393125,53.247929784986745L299.05453125,53.471470514933294L301.26975000000004,51.4832852681478L303.48496875,50.706856621636305L305.7001875,53.247929784986745L307.91540625000005,53.14700402153865L310.130625,52.806749979654974L312.34584375,51.1339421802097L314.5610625,53.247929784986745L316.77628124999995,50.66138648986821L318.9915,50.60095055898032L321.20671875,51.4832852681478L323.42193749999996,49.050010681152386L325.63715625,49.79287211100263L327.852375,51.04213036431209L330.06759374999996,50.02555168999568L332.2828125,49.7186407513089L334.49803125,49.473062197367376L336.71325,51.73558722601999L338.92846875,51.04213036431209L341.1436875,49.27748584747319L343.35890625,51.50104003482396L345.574125,55.01254940032963L347.78934375,48.836330943637435L350.0045625,52.36021635267473L352.21978125,51.04213036431209L354.435,51.65042410956491L356.65021875,52.76598623063834L358.8654375,51.30010986328129L361.08065625,49.90684625837542L363.295875,49.27748584747319L365.51109375000004,49.27748584747319L367.7263125,54.65541214413116L369.94153125,50.159795655144606L372.15675000000005,49.97574869791669L374.37196875,49.7186407513089L376.5871875,50.56317498948844L378.80240625000005,51.924440171983555L381.01762499999995,51.36861387888593L383.23284375,49.4540872573853L385.4480625,49.71874035729304L387.66328124999995,47.953996234469955L389.8785,50.089971860249854L392.09371875,51.7290381325616L394.30893749999996,49.90196556515167L396.52415625,48.41305531395808L398.739375,50.60095055898032L400.95459375,50.159795655144606L403.1698125,49.08434984419085L405.38503125,51.20954312218562L407.60025,50.893742349412754L409.81546875,48.69137933519156L412.0306875,50.69824070400665L414.24590625,49.15267954932321L416.461125,48.836330943637435L418.67634375,50.27795325385202L420.8915625,50.28918382856585L423.10678125,49.240980254279265L425.322,50.159795655144606L427.53721875,49.961455239190016L429.7524375,49.27748584747319L431.96765625,47.63356378343375L434.182875,47.953996234469955L436.39809375000004,49.84217707316083L438.6133125,50.60095055898032L440.82853125,49.30669530232749L443.04375000000005,50.44118256039093L445.25896875,49.27748584747319L447.4741875,49.059722264607764L449.68940625000005,47.953996234469955L451.90462499999995,48.836330943637435L454.11984375,49.27748584747319L456.3350625,50.60095055898032L458.55028124999995,47.953996234469955L460.7655,47.512841330634245L462.98071875,46.98836602105037L465.19593749999996,51.19522476196293L467.41115625,51.830113304985915L469.626375,51.04213036431209L471.84159375,49.7186407513089L474.0568125,49.27748584747319L476.27203125,49.7186407513089L478.48725,48.836330943637435L480.70246875,51.04213036431209L482.9176875,52.365595075819265L485.13290625,50.60095055898032L487.348125,49.34038702646894L489.56334375,49.03330177730987L491.7785625,50.159795655144606L493.99378125,47.512841330634245L496.209,49.00703069898821L498.42421875,51.04213036431209L500.63943750000004,49.27748584747319L502.85465625,50.2431907653809L505.069875,48.721236228942914L507.28509375000004,49.481752819485166L509.5003125,48.836330943637435L511.71553125,48.836330943637435L513.93075,48.475856886969694L516.1459687500001,47.512841330634245L518.3611875,47.695219887627516L520.57640625,47.512841330634245L522.791625,47.77687189314104L525.00684375,47.953996234469955L527.2220625,49.31551043192548L529.43728125,50.236317952473975L531.6525,49.88132222493491L533.86771875,50.159795655144606L536.0829375,50.60095055898032L538.29815625,51.23215368058951L540.513375,50.32053481207956L542.72859375,51.2196780310737L544.9438125,49.45224454667838L547.15903125,49.7186407513089L549.37425,48.836330943637435L551.58946875,48.836330943637435L553.8046875,49.27748584747319L556.01990625,48.488581551445876L558.235125,50.59387853410514L560.45034375,47.633040852016904L562.6655625,48.836330943637435L564.88078125,49.7186407513089L567.096,49.7186407513089L569.31121875,50.29008028242327L571.5264375,52.365595075819265L573.74165625,50.794410281711166L575.956875,49.62535974714495L578.17209375,50.60095055898032L580.3873125,50.17757532331682L582.60253125,49.862621201409254L584.81775,49.27748584747319L587.03296875,49.7186407513089L589.2481875000001,49.38720183902318L591.46340625,48.6862496270074L593.678625,48.836330943637435L595.8938437500001,48.395176039801726L598.1090625,48.397442075941335L600.32428125,47.7279155519274L602.5395000000001,47.41014756096736L604.75471875,47.26178444756404L606.9699375,48.426128599378835L609.1851562500001,48.17039023505319L611.400375,47.512841330634245L613.61559375,47.11882495880131L615.8308125000001,50.2644317415026L618.04603125,49.9309260050456L620.26125,50.60095055898032L622.4764687500001,51.04213036431209L624.6916875,50.60095055898032L626.9069062499999,49.403487417433034L629.122125,49.7186407513089L631.33734375,51.4832852681478L633.5525624999999,49.85069338480634L635.76778125,46.62941095564104L637.983,50.159795655144606L640.1982187499999,50.159795655144606L642.4134375,50.60095055898032L644.62865625,50.60095055898032L646.8438749999999,50.60095055898032L649.05909375,50.60095055898032L651.2743125,50.159795655144606L653.4895312499999,49.7186407513089L655.70475,48.395176039801726L657.91996875,48.39567406972251L660.1351874999999,48.422443177965L662.35040625,49.7186407513089L664.565625,49.34531752268476L666.78084375,49.41952398088248L668.9960625,49.15753534105094L671.21128125,49.83019945356585L673.4265,49.46297709147138L675.64171875,49.38862122429744L677.8569375,48.836330943637435L680.07215625,49.05466726091178L682.287375,49.27748584747319L684.50259375,50.159795655144606L686.7178125,49.965788099500905L688.93303125,50.60095055898032L691.14825,48.99699539608429L693.36346875,48.395176039801726L695.5786875,48.395176039801726L697.79390625,48.81362077924944L700.009125,48.395176039801726L702.22434375,49.27748584747319L704.4395625,48.363451533847396L706.65478125,48.0584331088596L708.87,48.836330943637435L711.08521875,48.839244418674056L713.3004375,47.953996234469955L715.51565625,48.070933659871436L717.730875,48.59535916646323L719.94609375,49.50097677442766L722.1613125,49.46511862013079L724.3765312500001,49.7186407513089L726.59175,49.27748584747319L728.80696875,49.79224957360164L731.0221875000001,49.27748584747319L733.23740625,49.33451027340362L735.452625,48.114760292900954L737.6678437500001,48.395176039801726L739.8830625,49.420744154188405L742.09828125,49.7186407513089L744.3135000000001,49.793395042419476L746.52871875,49.7186407513089L748.7439375,48.836330943637435L750.9591562500001,49.00954575008819L753.174375,49.753129323323584L755.38959375,50.18190818362767L757.6048125000001,49.27748584747319L759.82003125,49.35565164354117L762.0352499999999,49.27748584747319L764.25046875,49.27748584747319L766.4656875,48.836330943637435L768.6809062499999,48.51166523827449L770.896125,48.543090926276335L773.11134375,49.27748584747319L775.3265624999999,49.7186407513089L777.54178125,50.159795655144606L779.757,50.205863422817686L781.9722187499999,49.7186407513089L784.1874375,50.159795655144606L786.40265625,48.067173533969466L788.6178749999999,48.63980833689374L790.83309375,48.85386159684928L793.0483125,48.836330943637435L795.2635312499999,50.20464324951176L797.47875,50.23965475294329L799.69396875,50.159795655144606L801.9091875,50.159795655144606L804.12440625,50.203846401638486L806.339625,50.159795655144606L808.55484375,49.89561568366159L810.7700625,50.09084341261126L812.98528125,49.867875417073584L815.2005,50.159795655144606L817.41571875,50.159795655144606L819.6309375,49.7186407513089L821.84615625,47.72353288862444L824.061375,49.27748584747319L826.27659375,49.30485259162057L828.4918125,49.27748584747319L830.70703125,49.7186407513089L832.92225,50.159795655144606L835.13746875,49.7186407513089L837.3526875,48.89482455783421L839.56790625,48.87477885352243L841.783125,49.27748584747319L843.99834375,48.87271202935115L846.2135625,50.159795655144606L848.42878125,50.159795655144606L850.644,50.159795655144606L852.85921875,49.7186407513089L855.0744375,49.7186407513089L857.28965625,49.859608120388486L859.504875,49.774270693461126L861.72009375,49.764982435438405L863.9353125,49.08205890655522L866.1505312500001,49.7186407513089L868.36575,49.84135532379155L870.58096875,50.60095055898032L872.7961875000001,50.227627330356185L875.01140625,49.802085664537266L877.226625,49.7186407513089L879.4418437500001,49.7186407513089L881.6570625,49.7186407513089L883.87228125,49.7186407513089L886.0875000000001,49.7186407513089L888.30271875,49.7186407513089L890.5179375,49.90253829956059L892.7331562500001,50.22730361090768L894.948375,50.21059470706517L897.16359375,49.76637691921661L899.3788125000001,50.222671932644346L901.59403125,49.78169133928092L903.8092499999999,49.7186407513089L906.02446875,49.7186407513089L908.2396875,49.431800418429916L910.4549062499999,49.213264889187315L912.670125,49.7537020577325L914.88534375,49.765829086303754L917.1005624999999,49.736320813496924L919.31578125,48.959767659505225L921.531,49.27748584747319L923.7462187499999,49.32537142435712L925.9614375,49.27748584747319L928.17665625,49.45530743069122L930.3918749999999,49.7186407513089L932.60709375,48.97308995988639L934.8223125,50.304398642645964L937.0375312499999,49.83866596221928L939.25275,49.83226627773712L941.46796875,49.7186407513089L943.6831875,49.7186407513089L945.89840625,48.836330943637435L948.113625,48.48594199286569L950.32884375,48.70253520541722L952.5440625,48.870321485731374L954.75928125,48.836330943637435L956.9745,48.40501213073735L959.18971875,49.834681722852956L961.4049375,48.46848604414202L963.62015625,48.46851094563804L965.835375,48.66993914710153L968.05059375,49.22730933295358L970.2658125,48.77517286936445L972.48103125,49.27748584747319L974.69625,49.38752555847172L976.91146875,48.836330943637435L979.1266875,48.84350257449681L981.34190625,49.39153469933406L983.557125,48.669839541117376L985.77234375,48.74173016018341L987.9875625,48.68689706590445L990.20278125,48.62920029958091L992.418,48.836330943637435L994.63321875,48.836330943637435" style="fill: none;" fill="none"></path></g><g><path stroke="rgb(187, 187, 187)" stroke-width="2px" d="M110.76093750000001,44.70828543768991L112.97615624999999,44.52630530463327L115.191375,47.27485773298479L117.40659375,54.34015920427115L119.6218125,62.39180893368194L121.83703125,127.0804671181573L124.05225,49.593336423238135L126.26746875,76.13449637095137L128.4826875,51.397649023267995L130.69790625,45.90059396955706L132.913125,59.51603476206464L135.12834375,62.39180893368194L137.3435625,55.52711391448979L139.55878125,55.52046521504722L141.774,45.90059396955706L143.98921875,52.77193768819175L146.2044375,81.63157632615831L148.41965625,48.649121496412526L150.63487500000002,83.14080619812016L152.85009375,52.77193768819175L155.0653125,59.32733122507734L157.28053125,54.14620145161948L159.49575,43.24447589450418L161.71096874999998,48.649121496412526L163.9261875,43.41507604387076L166.14140625,44.52630530463327L168.356625,44.52630530463327L170.57184375,48.649121496412526L172.7870625,43.64105712042917L175.00228125,44.52630530463327L177.2175,50.02338525984026L179.43271875,44.94748920864532L181.6479375,43.68326515621612L183.86315625,46.202947934468604L186.07837500000002,44.52630530463327L188.29359375,45.91262139214412L190.50881249999998,43.54441441429988L192.72403125,45.74306710561118L194.93925,44.64969221750898L197.15446874999998,41.7777777777778L199.3696875,42.71788395775691L201.58490625,43.152041541205534L203.800125,44.52630530463327L206.01534375,43.152041541205534L208.2305625,45.14463435279001L210.44578125,48.649121496412526L212.661,45.90059396955706L214.87621875,44.92687076992462L217.0914375,44.52630530463327L219.30665625,43.238922860887364L221.52187500000002,43.152041541205534L223.73709375,44.601707034640896L225.95231249999998,43.152041541205534L228.16753125,43.152041541205534L230.38275,43.152041541205534L232.59796874999998,44.855378574795225L234.8131875,44.52630530463327L237.02840625,44.57224856482614L239.243625,45.90059396955706L241.45884375,45.90059396955706L243.6740625,44.85752010345463L245.88928125,44.74720647599967L248.1045,44.795839097764805L250.31971875000002,43.525962405734646L252.5349375,43.37478542327885L254.75015625,44.629098680284336L256.965375,43.152041541205534L259.18059375,44.52630530463327L261.3958125,43.152041541205534L263.61103125,44.52630530463327L265.82625,44.52630530463327L268.04146875,43.39515484703914L270.2566875,43.39433309766985L272.47190625,43.387883610195615L274.687125,43.41261079576285L276.90234375,43.402525689866856L279.1175625,44.52630530463327L281.33278125,44.52630530463327L283.548,44.52630530463327L285.76321875,44.52630530463327L287.9784375,44.52630530463327L290.19365625,44.52630530463327L292.408875,44.52630530463327L294.62409375000004,44.52630530463327L296.8393125,44.757440990871885L299.05453125,44.67989773220489L301.26975000000004,44.647202067905056L303.48496875,43.152041541205534L305.7001875,43.152041541205534L307.91540625000005,43.152041541205534L310.130625,43.152041541205534L312.34584375,43.152041541205534L314.5610625,43.152041541205534L316.77628124999995,43.152041541205534L318.9915,43.152041541205534L321.20671875,43.152041541205534L323.42193749999996,43.152041541205534L325.63715625,43.152041541205534L327.852375,43.16787889268668L330.06759374999996,43.584929148356146" style="fill: none;" fill="none"></path></g><g><path stroke="rgb(0, 153, 136)" stroke-width="2px" d="M110.76093750000001,456.8070175233815L112.97615624999999,370.22806853718225L115.191375,256.1637466218737L117.40659375,197.07018068101675L119.6218125,375.7251484923893L121.83703125,374.3508785035875L124.05225,297.3918089336819L126.26746875,338.2828543980917L128.4826875,224.71168793572323L130.69790625,226.2303056716919L132.913125,226.83396773868137L135.12834375,217.00601959228516L137.3435625,224.5555555555556L139.55878125,194.32162825266522L141.774,188.82457319895428L143.98921875,190.19883696238202L146.2044375,197.07018068101675L148.41965625,180.5789408153958L150.63487500000002,166.83625337812634L152.85009375,94.00000000000004L155.0653125,94.00000000000004L157.28053125,98.12281619177926L159.49575,74.74207941691084L161.71096874999998,122.85963863796661L163.9261875,83.00584008958604L166.14140625,91.72973060607914L168.356625,110.87768618265791L170.57184375,74.23060268825958L172.7870625,76.13449637095137L175.00228125,89.00530772738988L177.2175,92.62573623657231L179.43271875,61.01754517025421L181.6479375,70.63741641574437L183.86315625,69.89194032881L186.07837500000002,99.497079955207L188.29359375,65.14036136203343L190.50881249999998,54.14620145161948L192.72403125,64.95531834496394L194.93925,51.397649023267995L197.15446874999998,50.02338525984026L199.3696875,50.02338525984026L201.58490625,67.482919798957L203.800125,49.45809639824763L206.01534375,54.98787201775447L208.2305625,47.85625786251495L210.44578125,51.397649023267995L212.661,50.02338525984026L214.87621875,51.397649023267995L217.0914375,51.180781894259994L219.30665625,51.397649023267995L221.52187500000002,50.02338525984026L223.73709375,51.397649023267995L225.95231249999998,47.27485773298479L228.16753125,51.397649023267995L230.38275,51.50517368316655L232.59796874999998,52.77193768819175L234.8131875,51.397649023267995L237.02840625,50.50057262844513L239.243625,51.397649023267995L241.45884375,44.52630530463327L243.6740625,50.0865852567885L245.88928125,47.27485773298479L248.1045,45.90059396955706L250.31971875000002,47.10463110605878L252.5349375,45.90059396955706L254.75015625,47.405316670735694L256.965375,44.97585201263432L259.18059375,47.12918398115374L261.3958125,47.50885709126792L263.61103125,48.649121496412526L265.82625,49.033949216206885L268.04146875,47.535999721950986L270.2566875,45.90059396955706L272.47190625,44.52630530463327L274.687125,44.52630530463327L276.90234375,45.6398504045275L279.1175625,44.52630530463327L281.33278125,45.284257041083464L283.548,44.52630530463327L285.76321875,45.90059396955706L287.9784375,45.90059396955706L290.19365625,46.490087085300075L292.408875,45.90059396955706L294.62409375000004,45.90059396955706L296.8393125,44.52630530463327L299.05453125,45.2833854887221L301.26975000000004,45.90059396955706L303.48496875,45.90059396955706L305.7001875,45.90059396955706L307.91540625000005,45.90059396955706L310.130625,45.105190383063444L312.34584375,44.52630530463327L314.5610625,44.52630530463327L316.77628124999995,44.99002096388079L318.9915,44.842081175910124L321.20671875,44.83998945024283L323.42193749999996,45.01415051354304L325.63715625,45.00264602237283L327.852375,44.9195995330811L330.06759374999996,44.94669236077205" style="fill: none;" fill="none"></path></g><g><path stroke="rgb(51, 187, 238)" stroke-width="2px" d="M110.76093750000001,183.32749324374734L112.97615624999999,183.32749324374734L115.191375,183.32749324374734L117.40659375,181.95320457882355L119.6218125,181.95320457882355L121.83703125,183.32749324374734L124.05225,186.0760207706028L126.26746875,183.32749324374734L128.4826875,194.94847361246747L130.69790625,181.95320457882355L132.913125,191.57310072580975L135.12834375,183.59159851074222L137.3435625,192.21807437472873L139.55878125,178.28850120968292L141.774,197.45642778608538L143.98921875,179.20467705196808L146.2044375,191.57310072580975L148.41965625,175.0818608601888L150.63487500000002,186.0760207706028L152.85009375,184.90258757273358L155.0653125,188.16722350650363L157.28053125,188.82457319895428L159.49575,183.78421158260772L161.71096874999998,186.39792240990536L163.9261875,208.06431568993466L166.14140625,203.51645586225726L168.356625,214.9356843100654L170.57184375,172.33333333333334L172.7870625,188.82457319895428L175.00228125,208.06431568993466L177.2175,204.3404463662042L179.43271875,202.56726063622372L181.6479375,219.0584756003486L183.86315625,203.6164104673598L186.07837500000002,216.30994807349313L188.29359375,196.56141821543378L190.50881249999998,192.9473644892375L192.72403125,172.33333333333334L194.93925,201.19297197129995L197.15446874999998,178.80299101935495L199.3696875,224.8513106240167L201.58490625,165.4619896146986L203.800125,219.0584756003486L206.01534375,164.08772585127087L208.2305625,242.42105918460422L210.44578125,161.3391734229194L212.661,241.04679542117648L214.87621875,162.97390683492026L217.0914375,227.30408308241107L219.30665625,157.49654886457654L221.52187500000002,202.56726063622372L223.73709375,164.43918556637237L225.95231249999998,234.1754268010458L228.16753125,160.92511134677463L230.38275,227.5035689671835L232.59796874999998,175.0818608601888L234.8131875,225.92981931898333L237.02840625,155.8420934677124L239.243625,252.04093043009442L241.45884375,157.2163821326362L243.6740625,247.91813913981122L245.88928125,147.82884184519452L248.1045,242.42105918460422L250.31971875000002,155.8420934677124L252.5349375,230.0526355107626L254.75015625,148.82425424787732L256.965375,193.95331022474505L259.18059375,155.8420934677124L261.3958125,201.19297197129995L263.61103125,151.94697655571835L265.82625,230.0526355107626L268.04146875,176.4561495251126L270.2566875,195.69591691758902L272.47190625,152.53895982106528L274.687125,220.10625584920254L276.90234375,155.8420934677124L279.1175625,232.80116303761807L281.33278125,176.4561495251126L283.548,227.30408308241107L285.76321875,186.0760207706028L287.9784375,232.80116303761807L290.19365625,179.20467705196808L292.408875,217.68421183692087L294.62409375000004,194.32162825266522L296.8393125,132.47953478495282L299.05453125,213.5613956451416L301.26975000000004,189.9411313798693L303.48496875,184.96312310960562L305.7001875,175.27088811662466L307.91540625000005,194.32162825266522L310.130625,170.95906956990567L312.34584375,201.19297197129995L314.5610625,149.72369628482394L316.77628124999995,234.1754268010458L318.9915,173.70759709676108L321.20671875,187.45028453403054L323.42193749999996,155.8420934677124L325.63715625,137.68359883626303L327.852375,177.83041328854034L330.06759374999996,125.6081910663181L332.2828125,175.0818608601888" style="fill: none;" fill="none"></path></g></g></g></g></g></g><g transform="translate(42, 376)" clip-path="url(#clip_1)"><clipPath id="clip_1"><rect width="1107" height="24"></rect></clipPath><g><g><line x1="0" y1="0" x2="0" y2="5" style="visibility: inherit;" fill="rgb(0, 0, 0)" stroke="rgb(204, 204, 204)" stroke-width="1px"></line><line x1="110.76093750000001" y1="0" x2="110.76093750000001" y2="5" style="visibility: inherit;" fill="rgb(0, 0, 0)" stroke="rgb(204, 204, 204)" stroke-width="1px"></line><line x1="221.52187500000002" y1="0" x2="221.52187500000002" y2="5" style="visibility: inherit;" fill="rgb(0, 0, 0)" stroke="rgb(204, 204, 204)" stroke-width="1px"></line><line x1="332.2828125" y1="0" x2="332.2828125" y2="5" style="visibility: inherit;" fill="rgb(0, 0, 0)" stroke="rgb(204, 204, 204)" stroke-width="1px"></line><line x1="443.04375000000005" y1="0" x2="443.04375000000005" y2="5" style="visibility: inherit;" fill="rgb(0, 0, 0)" stroke="rgb(204, 204, 204)" stroke-width="1px"></line><line x1="553.8046875" y1="0" x2="553.8046875" y2="5" style="visibility: inherit;" fill="rgb(0, 0, 0)" stroke="rgb(204, 204, 204)" stroke-width="1px"></line><line x1="664.565625" y1="0" x2="664.565625" y2="5" style="visibility: inherit;" fill="rgb(0, 0, 0)" stroke="rgb(204, 204, 204)" stroke-width="1px"></line><line x1="775.3265624999999" y1="0" x2="775.3265624999999" y2="5" style="visibility: inherit;" fill="rgb(0, 0, 0)" stroke="rgb(204, 204, 204)" stroke-width="1px"></line><line x1="886.0875000000001" y1="0" x2="886.0875000000001" y2="5" style="visibility: inherit;" fill="rgb(0, 0, 0)" stroke="rgb(204, 204, 204)" stroke-width="1px"></line><line x1="996.8484375" y1="0" x2="996.8484375" y2="5" style="visibility: inherit;" fill="rgb(0, 0, 0)" stroke="rgb(204, 204, 204)" stroke-width="1px"></line><line x1="1107.609375" y1="0" x2="1107.609375" y2="5" style="visibility: inherit;" fill="rgb(0, 0, 0)" stroke="rgb(204, 204, 204)" stroke-width="1px"></line></g><g transform="translate(0, 8)"><text x="0" y="0" dx="0em" dy="0.95em" style="text-anchor: middle; visibility: hidden; font-family: Roboto, sans-serif; font-size: 12px; font-weight: 200;" fill="rgb(33, 33, 33)" stroke="none" stroke-width="1px">-50</text><text x="110.76093750000001" y="0" dx="0em" dy="0.95em" style="text-anchor: middle; visibility: inherit; font-family: Roboto, sans-serif; font-size: 12px; font-weight: 200;" fill="rgb(33, 33, 33)" stroke="none" stroke-width="1px">0</text><text x="221.52187500000002" y="0" dx="0em" dy="0.95em" style="text-anchor: middle; visibility: inherit; font-family: Roboto, sans-serif; font-size: 12px; font-weight: 200;" fill="rgb(33, 33, 33)" stroke="none" stroke-width="1px">50</text><text x="332.2828125" y="0" dx="0em" dy="0.95em" style="text-anchor: middle; visibility: inherit; font-family: Roboto, sans-serif; font-size: 12px; font-weight: 200;" fill="rgb(33, 33, 33)" stroke="none" stroke-width="1px">100</text><text x="443.04375000000005" y="0" dx="0em" dy="0.95em" style="text-anchor: middle; visibility: inherit; font-family: Roboto, sans-serif; font-size: 12px; font-weight: 200;" fill="rgb(33, 33, 33)" stroke="none" stroke-width="1px">150</text><text x="553.8046875" y="0" dx="0em" dy="0.95em" style="text-anchor: middle; visibility: inherit; font-family: Roboto, sans-serif; font-size: 12px; font-weight: 200;" fill="rgb(33, 33, 33)" stroke="none" stroke-width="1px">200</text><text x="664.565625" y="0" dx="0em" dy="0.95em" style="text-anchor: middle; visibility: inherit; font-family: Roboto, sans-serif; font-size: 12px; font-weight: 200;" fill="rgb(33, 33, 33)" stroke="none" stroke-width="1px">250</text><text x="775.3265624999999" y="0" dx="0em" dy="0.95em" style="text-anchor: middle; visibility: inherit; font-family: Roboto, sans-serif; font-size: 12px; font-weight: 200;" fill="rgb(33, 33, 33)" stroke="none" stroke-width="1px">300</text><text x="886.0875000000001" y="0" dx="0em" dy="0.95em" style="text-anchor: middle; visibility: inherit; font-family: Roboto, sans-serif; font-size: 12px; font-weight: 200;" fill="rgb(33, 33, 33)" stroke="none" stroke-width="1px">350</text><text x="996.8484375" y="0" dx="0em" dy="0.95em" style="text-anchor: middle; visibility: inherit; font-family: Roboto, sans-serif; font-size: 12px; font-weight: 200;" fill="rgb(33, 33, 33)" stroke="none" stroke-width="1px">400</text><text x="1107.609375" y="0" dx="0em" dy="0.95em" style="text-anchor: middle; visibility: hidden; font-family: Roboto, sans-serif; font-size: 12px; font-weight: 200;" fill="rgb(33, 33, 33)" stroke="none" stroke-width="1px">450</text></g><line x1="0" y1="0" x2="1107.609375" y2="0" fill="rgb(0, 0, 0)" stroke="rgb(204, 204, 204)" stroke-width="1px"></line></g></g></g></g></svg>